SplineFontDB: 3.2
FontName: BARC
FullName: The Bokeh Annotation and Reporting Component (BARC) 
FamilyName: BARC
Weight: Regular
Copyright: Copyright (c) 2020, James Groves
UComments: "2020-8-7: Created with FontForge (http://fontforge.org)"
Version: 001.000
ItalicAngle: 0
UnderlinePosition: -100
UnderlineWidth: 50
Ascent: 800
Descent: 200
InvalidEm: 0
LayerCount: 2
Layer: 0 0 "Back" 1
Layer: 1 0 "Fore" 0
XUID: [1021 616 -1694118403 13591]
StyleMap: 0x0000
FSType: 0
OS2Version: 0
OS2_WeightWidthSlopeOnly: 0
OS2_UseTypoMetrics: 1
CreationTime: 1596818005
ModificationTime: 1597229193
OS2TypoAscent: 0
OS2TypoAOffset: 1
OS2TypoDescent: 0
OS2TypoDOffset: 1
OS2TypoLinegap: 90
OS2WinAscent: 0
OS2WinAOffset: 1
OS2WinDescent: 0
OS2WinDOffset: 1
HheadAscent: 0
HheadAOffset: 1
HheadDescent: 0
HheadDOffset: 1
OS2Vendor: 'PfEd'
MarkAttachClasses: 1
DEI: 91125
LangName: 1033
Encoding: UnicodeFull
UnicodeInterp: none
NameList: AGL For New Fonts
DisplaySize: -48
AntiAlias: 1
FitToEm: 0
WinInfo: 982917 39 14
BeginPrivate: 0
EndPrivate
BeginChars: 1114112 105

StartChar: one
Encoding: 49 49 0
Width: 1000
HStem: 1.4541 117.546<461.909 516.454> 119.637 54.5449<383.569 594.794> 737.818 54.5449<383.569 594.794>
VStem: 152.818 54.5449<350.387 561.613> 461.909 54.5449<1.4541 119> 771 54.5449<350.387 561.613>
CounterMasks: 1 1c
LayerCount: 2
Fore
SplineSet
489.181640625 792.36328125 m 0
 674.626953125 792.36328125 825.544921875 641.4453125 825.544921875 456 c 0
 825.544921875 270.5546875 674.626953125 119.63671875 489.181640625 119.63671875 c 0
 303.736328125 119.63671875 152.818359375 270.5546875 152.818359375 456 c 0
 152.818359375 641.4453125 303.736328125 792.36328125 489.181640625 792.36328125 c 0
489.181640625 737.818359375 m 0
 333.21484375 737.818359375 207.36328125 611.966796875 207.36328125 456 c 0
 207.36328125 300.033203125 333.21484375 174.181640625 489.181640625 174.181640625 c 0
 645.1484375 174.181640625 771 300.033203125 771 456 c 0
 771 611.966796875 645.1484375 737.818359375 489.181640625 737.818359375 c 0
461.909179688 119 m 1
 516.454101562 119 l 1
 516.454101562 1.4541015625 l 1
 461.909179688 1.4541015625 l 1
 461.909179688 119 l 1
EndSplineSet
Validated: 1
EndChar

StartChar: uF0000
Encoding: 983040 983040 1
Width: 1000
Flags: H
LayerCount: 2
Fore
SplineSet
506 672.7265625 m 0
 691.4453125 672.7265625 842.36328125 521.80859375 842.36328125 336.36328125 c 0
 842.36328125 150.91796875 691.4453125 0 506 0 c 0
 320.5546875 0 169.63671875 150.91796875 169.63671875 336.36328125 c 0
 169.63671875 521.80859375 320.5546875 672.7265625 506 672.7265625 c 0
506 618.181640625 m 0
 350.033203125 618.181640625 224.181640625 492.330078125 224.181640625 336.36328125 c 0
 224.181640625 180.396484375 350.033203125 54.544921875 506 54.544921875 c 0
 661.966796875 54.544921875 787.818359375 180.396484375 787.818359375 336.36328125 c 0
 787.818359375 492.330078125 661.966796875 618.181640625 506 618.181640625 c 0
EndSplineSet
Validated: 524289
Comment: "Cloud development NOT+AAoA-observed or NOT observable+AAoA-during past hour "
EndChar

StartChar: uF0001
Encoding: 983041 983041 2
Width: 1000
Flags: H
LayerCount: 2
Fore
SplineSet
500.727539062 671.341796875 m 0
 686.172851562 671.341796875 837.090820312 520.423828125 837.090820312 334.978515625 c 0
 837.090820312 158.73828125 700.709960938 13.9658203125 528 0 c 1
 528 -119.567382812 l 1
 473.455078125 -119.567382812 l 1
 473.455078125 0 l 1
 300.745117188 13.9658203125 164.364257812 158.73828125 164.364257812 334.978515625 c 0
 164.364257812 520.423828125 315.282226562 671.341796875 500.727539062 671.341796875 c 0
500.727539062 616.796875 m 0
 344.760742188 616.796875 218.909179688 490.9453125 218.909179688 334.978515625 c 0
 218.909179688 179.01171875 344.760742188 53.16015625 500.727539062 53.16015625 c 0
 656.694335938 53.16015625 782.545898438 179.01171875 782.545898438 334.978515625 c 0
 782.545898438 490.9453125 656.694335938 616.796875 500.727539062 616.796875 c 0
EndSplineSet
Validated: 524289
Comment: "Clouds generally dissolving or+AAoA-becoming less developed during+AAoA-past hour"
EndChar

StartChar: uF0002
Encoding: 983042 983042 3
Width: 1000
Flags: H
LayerCount: 2
Fore
SplineSet
506 672.7265625 m 0
 682.240234375 672.7265625 827.012695312 536.345703125 840.978515625 363.635742188 c 1
 960.545898438 363.635742188 l 1
 960.545898438 309.090820312 l 1
 840.978515625 309.090820312 l 1
 827.012695312 136.380859375 682.240234375 0 506 0 c 0
 329.759765625 0 184.987304688 136.380859375 171.021484375 309.090820312 c 1
 51.4541015625 309.090820312 l 1
 51.4541015625 363.635742188 l 1
 171.021484375 363.635742188 l 1
 184.987304688 536.345703125 329.759765625 672.7265625 506 672.7265625 c 0
506 618.181640625 m 0
 350.033203125 618.181640625 224.181640625 492.330078125 224.181640625 336.36328125 c 0
 224.181640625 180.396484375 350.033203125 54.544921875 506 54.544921875 c 0
 661.966796875 54.544921875 787.818359375 180.396484375 787.818359375 336.36328125 c 0
 787.818359375 492.330078125 661.966796875 618.181640625 506 618.181640625 c 0
EndSplineSet
Validated: 524289
Comment: "State of sky on the whole+AAoA-unchanged during past hour"
EndChar

StartChar: uF0003
Encoding: 983043 983043 4
Width: 1000
Flags: H
LayerCount: 2
Fore
SplineSet
476.727539062 790.909179688 m 1
 531.272460938 790.909179688 l 1
 531.272460938 671.341796875 l 1
 703.982421875 657.375976562 840.36328125 512.603515625 840.36328125 336.36328125 c 0
 840.36328125 150.91796875 689.4453125 0 504 0 c 0
 318.5546875 0 167.63671875 150.91796875 167.63671875 336.36328125 c 0
 167.63671875 512.603515625 304.017578125 657.375976562 476.727539062 671.341796875 c 1
 476.727539062 790.909179688 l 1
504 618.181640625 m 0
 348.033203125 618.181640625 222.181640625 492.330078125 222.181640625 336.36328125 c 0
 222.181640625 180.396484375 348.033203125 54.544921875 504 54.544921875 c 0
 659.966796875 54.544921875 785.818359375 180.396484375 785.818359375 336.36328125 c 0
 785.818359375 492.330078125 659.966796875 618.181640625 504 618.181640625 c 0
EndSplineSet
Validated: 524289
Comment: "Clouds generally forming or+AAoA-developing during past hour"
EndChar

StartChar: uF0004
Encoding: 983044 983044 5
Width: 1000
Flags: H
LayerCount: 2
Fore
SplineSet
232.544921875 769.2734375 m 0
 259.060546875 769.2734375 285.942382812 760.564453125 306.90625 741.9296875 c 0
 327.870117188 723.294921875 341.635742188 694.2734375 341.635742188 660.182617188 c 0
 341.635742188 639.727539062 348.32421875 627.83984375 358.041992188 619.202148438 c 0
 367.759765625 610.564453125 381.788085938 605.63671875 396.181640625 605.63671875 c 0
 410.575195312 605.63671875 424.602539062 610.564453125 434.3203125 619.202148438 c 0
 444.038085938 627.83984375 450.7265625 639.727539062 450.7265625 660.182617188 c 0
 450.7265625 694.2734375 464.493164062 723.294921875 485.45703125 741.9296875 c 0
 506.420898438 760.564453125 533.302734375 769.2734375 559.818359375 769.2734375 c 0
 586.333007812 769.2734375 613.21484375 760.564453125 634.178710938 741.9296875 c 0
 655.142578125 723.294921875 668.909179688 694.2734375 668.909179688 660.182617188 c 0
 668.909179688 639.727539062 675.59765625 627.83984375 685.315429688 619.202148438 c 0
 695.033203125 610.564453125 709.060546875 605.63671875 723.454101562 605.63671875 c 0
 737.848632812 605.63671875 751.875976562 610.564453125 761.59375 619.202148438 c 0
 771.311523438 627.83984375 778 639.727539062 778 660.182617188 c 0
 778 720.108398438 827.1640625 769.2734375 887.090820312 769.2734375 c 1
 887.090820312 714.727539062 l 1
 856.642578125 714.727539062 832.544921875 690.629882812 832.544921875 660.182617188 c 0
 832.544921875 626.091796875 818.779296875 597.069335938 797.815429688 578.435546875 c 0
 776.850585938 559.80078125 749.969726562 551.091796875 723.454101562 551.091796875 c 0
 696.939453125 551.091796875 670.057617188 559.80078125 649.09375 578.435546875 c 0
 628.129882812 597.069335938 614.36328125 626.091796875 614.36328125 660.182617188 c 0
 614.36328125 680.63671875 607.674804688 692.524414062 597.95703125 701.162109375 c 0
 588.239257812 709.80078125 574.211914062 714.727539062 559.818359375 714.727539062 c 0
 545.423828125 714.727539062 531.396484375 709.80078125 521.678710938 701.162109375 c 0
 511.9609375 692.524414062 505.272460938 680.63671875 505.272460938 660.182617188 c 0
 505.272460938 626.091796875 491.506835938 597.069335938 470.541992188 578.435546875 c 0
 449.578125 559.80078125 422.696289062 551.091796875 396.181640625 551.091796875 c 0
 369.666015625 551.091796875 342.78515625 559.80078125 321.8203125 578.435546875 c 0
 300.856445312 597.069335938 287.090820312 626.091796875 287.090820312 660.182617188 c 0
 287.090820312 680.63671875 280.40234375 692.524414062 270.684570312 701.162109375 c 0
 260.966796875 709.80078125 246.939453125 714.727539062 232.544921875 714.727539062 c 0
 218.151367188 714.727539062 204.124023438 709.80078125 194.40625 701.162109375 c 0
 184.688476562 692.524414062 178 680.63671875 178 660.182617188 c 2
 178 -158 l 1
 123.454101562 -158 l 1
 123.454101562 660.182617188 l 2
 123.454101562 694.2734375 137.220703125 723.294921875 158.184570312 741.9296875 c 0
 179.1484375 760.564453125 206.030273438 769.2734375 232.544921875 769.2734375 c 0
EndSplineSet
Validated: 524289
Comment: "Visibility reduced by smoke "
EndChar

StartChar: uF0005
Encoding: 983045 983045 6
Width: 1000
Flags: H
LayerCount: 2
Fore
SplineSet
279.63671875 490.908203125 m 0
 375.133789062 490.908203125 457.272460938 435.421875 497.818359375 355.50390625 c 1
 538.364257812 435.421875 620.502929688 490.908203125 716 490.908203125 c 0
 851.23828125 490.908203125 961.455078125 380.692382812 961.455078125 245.454101562 c 0
 961.455078125 110.215820312 851.23828125 0 716 0 c 0
 620.502929688 0 538.364257812 55.486328125 497.818359375 135.404296875 c 1
 457.272460938 55.486328125 375.133789062 0 279.63671875 0 c 0
 144.3984375 0 34.181640625 110.215820312 34.181640625 245.454101562 c 0
 34.181640625 380.692382812 144.3984375 490.908203125 279.63671875 490.908203125 c 0
279.63671875 436.36328125 m 0
 173.876953125 436.36328125 88.7275390625 351.213867188 88.7275390625 245.454101562 c 0
 88.7275390625 139.694335938 173.876953125 54.544921875 279.63671875 54.544921875 c 0
 385.395507812 54.544921875 470.545898438 139.694335938 470.545898438 245.454101562 c 0
 470.545898438 351.213867188 385.395507812 436.36328125 279.63671875 436.36328125 c 0
716 436.36328125 m 0
 610.241210938 436.36328125 525.090820312 351.213867188 525.090820312 245.454101562 c 0
 525.090820312 139.694335938 610.241210938 54.544921875 716 54.544921875 c 0
 821.759765625 54.544921875 906.909179688 139.694335938 906.909179688 245.454101562 c 0
 906.909179688 351.213867188 821.759765625 436.36328125 716 436.36328125 c 0
EndSplineSet
Validated: 524289
Comment: "Haze"
EndChar

StartChar: uF0006
Encoding: 983046 983046 7
Width: 1000
Flags: H
LayerCount: 2
Fore
SplineSet
484 773.2734375 m 0
 619.237304688 773.2734375 729.454101562 663.056640625 729.454101562 527.818359375 c 1
 674.909179688 527.818359375 l 1
 674.909179688 633.578125 589.758789062 718.727539062 484 718.727539062 c 0
 378.241210938 718.727539062 293.090820312 633.578125 293.090820312 527.818359375 c 0
 293.090820312 422.059570312 378.241210938 336.909179688 484 336.909179688 c 0
 619.237304688 336.909179688 729.454101562 226.692382812 729.454101562 91.455078125 c 0
 729.454101562 -43.783203125 619.237304688 -154 484 -154 c 0
 348.762695312 -154 238.545898438 -43.783203125 238.545898438 91.455078125 c 1
 293.090820312 91.455078125 l 1
 293.090820312 -14.3046875 378.241210938 -99.4541015625 484 -99.4541015625 c 0
 589.758789062 -99.4541015625 674.909179688 -14.3046875 674.909179688 91.455078125 c 0
 674.909179688 197.213867188 589.758789062 282.364257812 484 282.364257812 c 0
 348.762695312 282.364257812 238.545898438 392.581054688 238.545898438 527.818359375 c 0
 238.545898438 663.056640625 348.762695312 773.2734375 484 773.2734375 c 0
EndSplineSet
Validated: 524289
Comment: "Widespread dust in suspension+AAoA-in the air, NOT raised by wind,+AAoA-at time of observation"
EndChar

StartChar: uF0007
Encoding: 983047 983047 8
Width: 1000
Flags: H
LayerCount: 2
Fore
SplineSet
471.931640625 609.232421875 m 1
 510 609.232421875 l 1
 510 563.3515625 l 2
 577.90625 553.990234375 630.560546875 495.58203125 630.560546875 425.177734375 c 1
 592.493164062 425.177734375 l 1
 592.493164062 474.958007812 557.108398438 516.000976562 510 524.857421875 c 1
 510 322.194335938 l 2
 577.90625 312.837890625 630.560546875 254.459960938 630.560546875 184.0546875 c 0
 630.560546875 113.650390625 577.90625 55.2421875 510 45.880859375 c 2
 510 0 l 1
 471.931640625 0 l 1
 471.931640625 45.880859375 l 2
 404.025390625 55.2421875 351.37109375 113.650390625 351.37109375 184.0546875 c 1
 389.438476562 184.0546875 l 1
 389.438476562 134.274414062 424.823242188 93.2314453125 471.931640625 84.375 c 1
 471.931640625 287.038085938 l 2
 404.025390625 296.39453125 351.37109375 354.772460938 351.37109375 425.177734375 c 0
 351.37109375 495.58203125 404.025390625 553.990234375 471.931640625 563.3515625 c 2
 471.931640625 609.232421875 l 1
471.931640625 524.857421875 m 1
 424.823242188 516.000976562 389.438476562 474.958007812 389.438476562 425.177734375 c 0
 389.438476562 375.396484375 424.823242188 334.353515625 471.931640625 325.497070312 c 1
 471.931640625 524.857421875 l 1
510 283.735351562 m 1
 510 84.375 l 1
 557.108398438 93.2314453125 592.493164062 134.274414062 592.493164062 184.0546875 c 0
 592.493164062 233.8359375 557.108398438 274.87890625 510 283.735351562 c 1
EndSplineSet
Validated: 524289
Comment: "Dust or sand raised by wind,+AAoA-at time of observation"
EndChar

StartChar: uF0008
Encoding: 983048 983048 9
Width: 1000
Flags: HW
LayerCount: 2
Fore
SplineSet
518.865234375 783.934570312 m 0
 519.798341812 783.942001893 520.729485153 783.945708851 521.658570072 783.945708851 c 0
 540.141533529 783.945708851 557.809855367 782.478641679 573.920898438 779.68359375 c 0
 590.841796875 776.748046875 606.017578125 772.416992188 619.1796875 765.953125 c 0
 632.340820312 759.490234375 644.702148438 751.053710938 651.606445312 735.084960938 c 2
 607.548828125 713.359375 l 2
 608.384765625 711.424804688 606.333984375 715.250976562 598.920898438 718.891601562 c 0
 591.506835938 722.533203125 579.9453125 726.146484375 566.146484375 728.540039062 c 0
 553.026437233 730.816699873 537.865608372 732.05564514 521.783980736 732.05564514 c 0
 504.03715247 732.05564514 485.168961204 730.546838418 466.684570312 727.258789062 c 0
 431.450195312 720.990234375 397.653320312 708.111328125 374.493164062 689.541992188 c 0
 351.333007812 670.971679688 338.3046875 649.108398438 338.3046875 616.267578125 c 0
 338.3046875 588.477539062 345.129882812 566.942382812 354.866210938 548.053710938 c 1
 387.749023438 576.905273438 427.731445312 594.4765625 467.94921875 601.356445312 c 0
 482.945044816 603.921645751 497.899779558 605.204184646 512.490492417 605.204184646 c 0
 539.920566463 605.204184646 566.064085288 600.671333231 588.775390625 591.606445312 c 0
 606.170898438 584.663085938 621.778320312 574.999023438 633.8125 561.176757812 c 0
 645.84765625 547.35546875 653.850585938 528.543945312 653.850585938 508.313476562 c 0
 653.850585938 488.08203125 645.84765625 469.270507812 633.8125 455.44921875 c 0
 621.778320312 441.626953125 606.170898438 431.962890625 588.775390625 425.01953125 c 0
 566.064660191 415.954235337 539.921890031 411.421994804 512.492575471 411.421994804 c 0
 497.90120291 411.421994804 482.945758447 412.704547841 467.94921875 415.26953125 c 0
 427.731445312 422.149414062 387.749023438 439.720703125 354.866210938 468.572265625 c 1
 345.129882812 449.68359375 338.3046875 428.147460938 338.3046875 400.358398438 c 0
 338.3046875 372.569335938 345.129882812 351.033203125 354.866210938 332.14453125 c 1
 387.749023438 360.997070312 427.731445312 378.568359375 467.94921875 385.447265625 c 0
 482.945704452 388.012578902 497.901095216 389.29523554 512.492417863 389.29523554 c 0
 539.921789887 389.29523554 566.064616693 384.762578902 588.775390625 375.697265625 c 0
 606.170898438 368.75390625 621.778320312 359.08984375 633.8125 345.267578125 c 0
 645.84765625 331.446289062 653.850585938 312.634765625 653.850585938 292.403320312 c 0
 653.850585938 272.173828125 645.84765625 253.361328125 633.8125 239.540039062 c 0
 621.778320312 225.717773438 606.170898438 216.053710938 588.775390625 209.110351562 c 0
 566.064085288 200.045463643 539.920566463 195.512612228 512.490492417 195.512612228 c 0
 497.899779559 195.512612228 482.945044816 196.795151124 467.94921875 199.360351562 c 0
 427.731445312 206.240234375 387.749023438 223.811523438 354.866210938 252.663085938 c 1
 345.129882812 233.774414062 338.3046875 212.239257812 338.3046875 184.44921875 c 0
 338.3046875 151.154296875 350.782226562 129.184570312 372.66015625 110.8046875 c 0
 394.537109375 92.423828125 426.625976562 79.6611328125 460.743164062 73.4248046875 c 0
 478.594748646 70.1616887281 496.965024423 68.6575775878 514.51251198 68.6575775878 c 0
 530.501034647 68.6575775878 545.806472151 69.9063023262 559.4140625 72.2109375 c 0
 587.956054688 77.04296875 608.322265625 89.4970703125 610.330078125 92.283203125 c 2
 648.825195312 60.70703125 l 1
 630.606445312 35.4248046875 601.415039062 26.8271484375 567 21 c 0
 550.62742988 18.2274920274 532.913403161 16.755556062 514.564191667 16.755556062 c 0
 494.341287482 16.755556062 473.346854189 18.543447533 452.526367188 22.3486328125 c 0
 412.813476562 29.607421875 373.600585938 44.1025390625 342.634765625 70.1181640625 c 0
 311.668945312 96.134765625 289.759765625 135.69921875 289.759765625 184.44921875 c 0
 289.759765625 227.989257812 304.299804688 262.610351562 323.608398438 292.403320312 c 0
 304.299804688 322.198242188 289.759765625 356.819335938 289.759765625 400.358398438 c 0
 289.759765625 443.8984375 304.299804688 478.51953125 323.608398438 508.313476562 c 0
 304.299804688 538.106445312 289.759765625 572.727539062 289.759765625 616.267578125 c 0
 289.759765625 665.47265625 313.140625 705.142578125 345.352539062 730.969726562 c 0
 377.565429688 756.796875 418.1015625 771.17578125 458.720703125 778.40234375 c 0
 479.029296875 782.014648438 499.368164062 783.779296875 518.865234375 783.934570312 c 0
527.967773438 552.57421875 m 0
 522.584719285 553.006581078 517.051895217 553.230612936 511.421065163 553.230612936 c 0
 499.767902557 553.230612936 487.694985438 552.271096201 475.661132812 550.212890625 c 0
 442.368164062 544.518554688 410.25 529.913085938 385.5859375 508.313476562 c 1
 410.25 486.713867188 442.368164062 472.108398438 475.661132812 466.413085938 c 0
 487.726757196 464.349172676 499.831315793 463.382334081 511.511252654 463.382334081 c 0
 534.388434557 463.382334081 555.636596958 467.091515191 571.772460938 473.53125 c 0
 583.958007812 478.395507812 593.00390625 484.73828125 598.225585938 490.736328125 c 0
 603.447265625 496.734375 605.3046875 501.5546875 605.3046875 508.313476562 c 0
 605.3046875 515.071289062 603.447265625 519.891601562 598.225585938 525.889648438 c 0
 593.00390625 531.88671875 583.958007812 538.23046875 571.772460938 543.094726562 c 0
 559.584960938 547.958984375 544.490234375 551.247070312 527.967773438 552.57421875 c 0
527.967773438 336.665039062 m 0
 522.583445857 337.097503671 517.049277492 337.321642928 511.417069018 337.321642928 c 0
 499.76514251 337.321642928 487.69360988 336.362339585 475.661132812 334.303710938 c 0
 442.368164062 328.608398438 410.25 314.002929688 385.5859375 292.403320312 c 1
 410.25 270.803710938 442.368164062 256.19921875 475.661132812 250.50390625 c 0
 487.727443574 248.439875579 499.83269298 247.472932824 511.513245963 247.472932824 c 0
 534.389668802 247.472932824 555.637065603 251.181876061 571.772460938 257.622070312 c 0
 583.958007812 262.487304688 593.00390625 268.830078125 598.225585938 274.828125 c 0
 603.447265625 280.825195312 605.3046875 285.646484375 605.3046875 292.403320312 c 0
 605.3046875 299.162109375 603.447265625 303.982421875 598.225585938 309.98046875 c 0
 593.00390625 315.978515625 583.958007812 322.321289062 571.772460938 327.185546875 c 0
 559.584960938 332.049804688 544.490234375 335.337890625 527.967773438 336.665039062 c 0
EndSplineSet
Comment: "Well developed dust+AAoA-devil(s) within past hour"
EndChar

StartChar: uF0009
Encoding: 983049 983049 10
Width: 1000
Flags: H
LayerCount: 2
Fore
SplineSet
223.748046875 751.6328125 m 1
 257.909179688 709.090820312 l 1
 151.075195313 623.379394531 97.6582031251 499.597900391 97.6582031251 375.81640625 c 0
 97.6582031251 252.034912109 151.075195313 128.253417969 257.909179688 42.5419921875 c 1
 223.748046875 0 l 1
 103.781738281 96.24609375 43.7985839844 236.03125 43.7985839844 375.81640625 c 0
 43.7985839844 515.6015625 103.781738281 655.38671875 223.748046875 751.6328125 c 1
767 751.6328125 m 1
 886.966308595 655.38671875 946.949462892 515.6015625 946.949462892 375.81640625 c 0
 946.949462892 236.03125 886.966308595 96.24609375 767 0 c 1
 732.838867188 42.5419921875 l 1
 839.672851563 128.253417969 893.08984375 252.034912109 893.08984375 375.81640625 c 0
 893.08984375 499.597900391 839.672851563 623.379394531 732.838867188 709.090820312 c 1
 767 751.6328125 l 1
496.013671875 730.46875 m 0
 502.833984375 730.419921875 509.622070312 730.025390625 516.361328125 729.260742188 c 0
 534.331054688 727.223632812 551.889648438 722.684570312 568.420898438 715.837890625 c 0
 634.546875 688.451171875 686.283203125 623.340820312 686.283203125 539.453125 c 1
 631.737304688 539.453125 l 1
 631.737304688 601.359375 595.349609375 645.661132812 547.576171875 665.447265625 c 0
 530.495222005 672.52146945 512.225601544 676.350734884 493.800416058 676.350734884 c 0
 460.691439373 676.350734884 427.08014353 663.986044377 398.9609375 635.866210938 c 0
 370.841104061 607.746377499 358.476413554 574.134857335 358.476413554 541.02605942 c 0
 358.476413554 522.600973419 362.305678988 504.331577278 369.379882812 487.250976562 c 0
 389.166015625 439.477539062 433.466796875 403.088867188 495.374023438 403.088867188 c 2
 731.737304688 403.088867188 l 1
 731.737304688 444.95703125 l 1
 801.411132812 398.5078125 l 1
 835.466796875 375.81640625 l 1
 731.737304688 306.67578125 l 1
 731.737304688 348.543945312 l 1
 629.002929688 348.543945312 l 1
 647.426757812 330.349609375 662.021484375 308.73828125 671.758789062 285.2265625 c 0
 681.341220141 262.08952229 686.410052804 236.937126254 686.410052804 211.471596343 c 0
 686.410052804 164.15629436 668.911354199 115.759987012 630.352539062 77.201171875 c 0
 591.793723925 38.642356738 543.397416578 21.1436581334 496.082114595 21.1436581334 c 0
 470.616584684 21.1436581334 445.464188648 26.2124907961 422.327148438 35.794921875 c 0
 356.201171875 63.181640625 304.46484375 128.291992188 304.46484375 212.1796875 c 1
 359.010742188 212.1796875 l 1
 359.010742188 150.2734375 395.3984375 105.971679688 443.171875 86.185546875 c 0
 460.252824869 79.1113430503 478.52244533 75.2820776163 496.947630817 75.2820776163 c 0
 530.056607501 75.2820776163 563.667903345 87.6467681235 591.787109375 115.766601562 c 0
 619.906942814 143.886435001 632.271633321 177.497955165 632.271633321 210.606753079 c 0
 632.271633321 229.031839081 628.442367887 247.301235222 621.368164062 264.381835938 c 0
 601.58203125 312.155273438 557.28125 348.543945312 495.374023438 348.543945312 c 2
 195.374023438 348.543945312 l 1
 195.374023438 403.088867188 l 1
 361.745117188 403.088867188 l 1
 343.321289062 421.283203125 328.7265625 442.89453125 318.989257812 466.40625 c 0
 309.406826733 489.54329021 304.337994071 514.695686245 304.337994071 540.161216156 c 0
 304.337994071 587.47651814 321.836692675 635.872825488 360.395507812 674.431640625 c 0
 398.951138649 712.987271462 447.346756466 730.473505691 494.662021362 730.473505691 c 0
 495.112672682 730.473505691 495.563225998 730.471919429 496.013671875 730.46875 c 0
EndSplineSet
Comment: "Dust storm or sand storm within+AAoA-sight of or at station during+AAoA-past hour"
EndChar

StartChar: uF0027
Encoding: 983079 983079 11
Width: 1000
Flags: H
LayerCount: 2
Fore
SplineSet
173.63671875 471.181640625 m 1
 810 471.181640625 l 1
 810 416.63671875 l 1
 173.63671875 416.63671875 l 1
 173.63671875 471.181640625 l 1
173.63671875 307.544921875 m 1
 810 307.544921875 l 1
 810 253 l 1
 173.63671875 253 l 1
 173.63671875 307.544921875 l 1
EndSplineSet
Validated: 524289
Comment: "Light fog"
EndChar

StartChar: uF0028
Encoding: 983080 983080 12
Width: 1000
Flags: H
LayerCount: 2
Fore
SplineSet
180.63671875 588 m 1
 444.272460938 588 l 1
 444.272460938 533.454101562 l 1
 180.63671875 533.454101562 l 1
 180.63671875 588 l 1
553.364257812 588 m 1
 817 588 l 1
 817 533.454101562 l 1
 553.364257812 533.454101562 l 1
 553.364257812 588 l 1
180.63671875 415.272460938 m 1
 444.272460938 415.272460938 l 1
 444.272460938 360.727539062 l 1
 180.63671875 360.727539062 l 1
 180.63671875 415.272460938 l 1
553.364257812 415.272460938 m 1
 817 415.272460938 l 1
 817 360.727539062 l 1
 553.364257812 360.727539062 l 1
 553.364257812 415.272460938 l 1
180.63671875 242.545898438 m 1
 444.272460938 242.545898438 l 1
 444.272460938 188 l 1
 180.63671875 188 l 1
 180.63671875 242.545898438 l 1
553.364257812 242.545898438 m 1
 817 242.545898438 l 1
 817 188 l 1
 553.364257812 188 l 1
 553.364257812 242.545898438 l 1
EndSplineSet
Validated: 524289
Comment: "Patches of shallow fog at station,+AAoA-NOT deeper than 6 feet on land"
EndChar

StartChar: uF0186
Encoding: 983430 983430 13
Width: 1000
Flags: HW
LayerCount: 2
Fore
SplineSet
0 -202 m 25
 493 294 l 25
 1000 -200 l 25
 0 -202 l 25
EndSplineSet
Validated: 1
EndChar

StartChar: uF0187
Encoding: 983431 983431 14
Width: 1000
Flags: HW
LayerCount: 2
Fore
SplineSet
0 -200 m 1
 0 -200 -0.00325761146197 -199.679668206 -0.00325761146197 -199.053831495 c 0
 -0.00325761146197 -172.820842681 5.72038834951 390.186407767 497 398 c 0
 500.331052296 398.052978963 503.639562717 398.079293606 506.925686932 398.079293606 c 0
 999.855272679 398.079293606 989.072846074 -194.026489481 1000 -198 c 0
 1000.09630349 -198.035019452 1000.14416569 -198.069502371 1000.14416569 -198.103456138 c 0
 1000.14416569 -199.749124067 887.709280001 -200.151741155 728.775356793 -200.151741155 c 0
 576.498004804 -200.151741155 381.535053047 -199.782143142 201.879789713 -199.782143142 c 0
 131.018868848 -199.782143142 62.5394080705 -199.839642543 0 -200 c 1
EndSplineSet
Validated: 524289
EndChar

StartChar: uF0188
Encoding: 983432 983432 15
Width: 1000
Flags: HW
LayerCount: 2
Fore
SplineSet
0 800 m 25
 1000 798 l 25
 493 304 l 25
 0 800 l 25
EndSplineSet
Validated: 1
EndChar

StartChar: uF0189
Encoding: 983433 983433 16
Width: 1000
Flags: W
VStem: -0.149794 1000.34<644.243 798>
LayerCount: 2
Fore
SplineSet
391 644 m 1049
0 802 m 9
 1000 798 l 17
 1000 798 1000.18969515 794.281975015 1000.18969515 787.487055002 c 0
 1000.18969515 716.276293266 979.355400697 307.128919861 501 298 c 0
 495.951830443 297.903660886 490.954429186 297.855955391 486.007286566 297.855955391 c 0
 18.8824578403 297.855955391 -0.149793782702 723.185404704 -0.149793782702 792.50286851 c 0
 -0.149793782702 798.652434595 1.75692793647e-13 802 0 802 c 9
EndSplineSet
Validated: 524289
EndChar

StartChar: uF0029
Encoding: 983081 983081 17
Width: 1000
Flags: H
LayerCount: 2
Fore
SplineSet
194.63671875 620 m 1
 458.272460938 620 l 1
 458.272460938 565.454101562 l 1
 194.63671875 565.454101562 l 1
 194.63671875 620 l 1
567.364257812 620 m 1
 831 620 l 1
 831 565.454101562 l 1
 567.364257812 565.454101562 l 1
 567.364257812 620 l 1
194.63671875 447.272460938 m 1
 458.272460938 447.272460938 l 1
 458.272460938 392.727539062 l 1
 194.63671875 392.727539062 l 1
 194.63671875 447.272460938 l 1
567.364257812 447.272460938 m 1
 831 447.272460938 l 1
 831 392.727539062 l 1
 567.364257812 392.727539062 l 1
 567.364257812 447.272460938 l 1
194.63671875 274.545898438 m 1
 831 274.545898438 l 1
 831 220 l 1
 194.63671875 220 l 1
 194.63671875 274.545898438 l 1
EndSplineSet
Validated: 524289
Comment: "More or less continuous shallow+AAoA-fog at station, NOT deeper than+AAoA-6 feet on land"
EndChar

StartChar: uF002A
Encoding: 983082 983082 18
Width: 1000
Flags: H
LayerCount: 2
Fore
SplineSet
570.4765625 661.36328125 m 1
 614.794921875 629.544921875 l 1
 373.744140625 293.8203125 l 1
 592.635742188 74.9287109375 l 1
 629 111.291992188 l 1
 629 0 l 1
 583.544921875 0 l 1
 517.70703125 0 l 1
 554.0703125 36.36328125 l 1
 302.4375 287.997070312 l 1
 570.4765625 661.36328125 l 1
EndSplineSet
Validated: 524289
Comment: "Lightning visible, no thunder+AAoA-heard"
EndChar

StartChar: uF002B
Encoding: 983083 983083 19
Width: 1000
Flags: H
LayerCount: 2
Fore
SplineSet
634.465820312 516.359375 m 0
 634.465820312 461.130859375 589.694335938 416.359375 534.465820312 416.359375 c 0
 479.237304688 416.359375 434.465820312 461.130859375 434.465820312 516.359375 c 0
 434.465820312 571.587890625 479.237304688 616.359375 534.465820312 616.359375 c 0
 589.694335938 616.359375 634.465820312 571.587890625 634.465820312 516.359375 c 0
218.272460938 434.71875 m 1
 303.181640625 341.301757812 418.823730469 294.593261719 534.465820312 294.593261719 c 0
 650.107910156 294.593261719 765.75 341.301757812 850.659179688 434.71875 c 1
 891 398 l 1
 795.559570312 292.996582031 665.012695312 240.494873047 534.465820312 240.494873047 c 0
 403.918945312 240.494873047 273.372070312 292.996582031 177.931640625 398 c 1
 218.272460938 434.71875 l 1
EndSplineSet
Comment: "Precipitation within sight, but+AAoA-NOT reaching the ground"
EndChar

StartChar: uF002C
Encoding: 983084 983084 20
Width: 1000
Flags: H
LayerCount: 2
Fore
SplineSet
586.27734375 390.193359375 m 0
 586.27734375 445.421875 541.505859375 490.193359375 486.27734375 490.193359375 c 0
 431.048828125 490.193359375 386.27734375 445.421875 386.27734375 390.193359375 c 0
 386.27734375 334.96484375 431.048828125 290.193359375 486.27734375 290.193359375 c 0
 541.505859375 290.193359375 586.27734375 334.96484375 586.27734375 390.193359375 c 0
168.2734375 746.727539062 m 1
 273.276367188 651.287109375 325.777832031 520.740234375 325.777832031 390.193359375 c 0
 325.777832031 259.646484375 273.276367188 129.099609375 168.2734375 33.6591796875 c 1
 131.5546875 74 l 1
 224.971679688 158.909179688 271.680175781 274.551269531 271.680175781 390.193359375 c 0
 271.680175781 505.835449219 224.971679688 621.477539062 131.5546875 706.38671875 c 1
 168.2734375 746.727539062 l 1
804.28125 746.727539062 m 1
 841 706.38671875 l 1
 747.583007812 621.477539062 700.874511719 505.835449219 700.874511719 390.193359375 c 0
 700.874511719 274.551269531 747.583007812 158.909179688 841 74 c 1
 804.28125 33.6591796875 l 1
 699.278320312 129.099609375 646.776855469 259.646484375 646.776855469 390.193359375 c 0
 646.776855469 520.740234375 699.278320312 651.287109375 804.28125 746.727539062 c 1
EndSplineSet
Comment: "Precipitation within sight,+AAoA-reaching the ground, but distant+AAoA-from station"
EndChar

StartChar: uF002D
Encoding: 983085 983085 21
Width: 1000
Flags: HW
LayerCount: 2
Fore
SplineSet
500.640625 496.443359375 m 0
 450.325195312 496.443359375 409.731445312 455.849609375 409.731445312 405.534179688 c 0
 409.731445312 355.21875 450.325195312 314.625 500.640625 314.625 c 0
 550.956054688 314.625 591.549804688 355.21875 591.549804688 405.534179688 c 0
 591.549804688 455.849609375 550.956054688 496.443359375 500.640625 496.443359375 c 0
382.28125 762.068359375 m 1
 419 721.727539062 l 1
 325.583007812 636.818359375 278.874511719 521.176269531 278.874511719 405.534179688 c 0
 278.874511719 289.892089844 325.583007812 174.25 419 89.3408203125 c 1
 382.28125 49 l 1
 277.278320312 144.440429688 224.776855469 274.987304688 224.776855469 405.534179688 c 0
 224.776855469 536.081054688 277.278320312 666.627929688 382.28125 762.068359375 c 1
619 762.068359375 m 1
 724.002929688 666.627929688 776.504394531 536.081054688 776.504394531 405.534179688 c 0
 776.504394531 274.987304688 724.002929688 144.440429688 619 49 c 1
 582.28125 89.3408203125 l 1
 675.698242188 174.25 722.406738281 289.892089844 722.406738281 405.534179688 c 0
 722.406738281 521.176269531 675.698242188 636.818359375 582.28125 721.727539062 c 1
 619 762.068359375 l 1
EndSplineSet
Comment: "Precipitation within sight,+AAoA-reaching the ground, near to+AAoA-but NOT at station"
EndChar

StartChar: uF002E
Encoding: 983086 983086 22
Width: 1000
Flags: H
LayerCount: 2
Fore
SplineSet
256.544921875 700 m 1
 746.069335938 700 l 1
 474.016601562 321.09375 l 1
 692.909179688 102.202148438 l 1
 729.272460938 138.565429688 l 1
 729.272460938 27.2734375 l 1
 683.818359375 27.2734375 l 1
 617.979492188 27.2734375 l 1
 654.34375 63.63671875 l 1
 402.709960938 315.270507812 l 1
 639.748046875 645.455078125 l 1
 356.544921875 645.455078125 l 1
 356.544921875 0 l 1
 302 0 l 1
 302 645.455078125 l 1
 256.544921875 645.455078125 l 1
 256.544921875 700 l 1
EndSplineSet
Validated: 524289
Comment: "Thunder heard, but no+AAoA-precipitation at the station"
EndChar

StartChar: uF002F
Encoding: 983087 983087 23
Width: 1000
Flags: H
LayerCount: 2
Fore
SplineSet
222.3359375 760 m 1
 501.66796875 629.069335938 l 1
 781 760 l 1
 817.505859375 724.240234375 l 1
 501.66796875 13.6220703125 l 1
 185.830078125 724.240234375 l 1
 222.3359375 760 l 1
265.375 679.602539062 m 1
 501.66796875 147.961914062 l 1
 737.9609375 679.602539062 l 1
 513.245117188 574.275390625 l 1
 501.66796875 568.842773438 l 1
 265.375 679.602539062 l 1
EndSplineSet
Validated: 524289
Comment: "Squall(s) within sight during+AAoA-past hour"
EndChar

StartChar: uF0030
Encoding: 983088 983088 24
Width: 1000
Flags: H
LayerCount: 2
Fore
SplineSet
280.755859375 781.505859375 m 1
 435.514648438 646.065429688 l 1
 435.514648438 130.440429688 l 1
 280.755859375 -5 l 1
 244.818359375 36.05078125 l 1
 380.96875 155.15625 l 1
 380.96875 621.349609375 l 1
 244.818359375 740.455078125 l 1
 280.755859375 781.505859375 l 1
663 781.505859375 m 1
 698.9375 740.455078125 l 1
 562.787109375 621.349609375 l 1
 562.787109375 155.15625 l 1
 698.9375 36.05078125 l 1
 663 -5 l 1
 508.241210938 130.440429688 l 1
 508.241210938 646.065429688 l 1
 663 781.505859375 l 1
EndSplineSet
Validated: 524289
Comment: "Funnel cloud(s) within sight+AAoA-during past hour"
EndChar

StartChar: uF004E
Encoding: 983118 983118 25
Width: 1000
Flags: H
LayerCount: 2
Fore
SplineSet
388.219726562 139.551757812 m 0
 377.447265625 145.306640625 373.013671875 153.322265625 373.013671875 167.03125 c 0
 373.013671875 181.48046875 374.994140625 184.599609375 393.7578125 199.69921875 c 0
 413.302726042 215.43066779 431.627783382 235.16780381 431.627783382 240.111623811 c 0
 431.627783382 240.485117426 431.523194287 240.774179134 431.306640625 240.970703125 c 0
 430.583984375 241.625976562 422.604492188 242.942382812 413.575195312 243.895507812 c 0
 357.380859375 249.825195312 312.926757812 287.080078125 297.418945312 341.235351562 c 0
 295.006347656 349.662597656 293.800048828 363.409912109 293.800048828 377.157470703 c 0
 293.800048828 390.905029297 295.006347656 404.652832031 297.418945312 413.081054688 c 0
 315.21083249 475.213415746 369.843689997 511.00851755 425.755289227 511.00851755 c 0
 458.660153235 511.00851755 492.007910642 498.610850367 518.549804688 471.887695312 c 0
 544.323849889 445.937853971 556.842920657 414.933116752 556.842920657 377.040449458 c 0
 556.842920657 376.833162111 556.842546023 376.625668641 556.841796875 376.41796875 c 0
 556.75 351.352539062 553.974609375 339.208984375 543.318359375 317.266601562 c 0
 539.368164062 309.1328125 533.71484375 295.822265625 530.754882812 287.689453125 c 0
 512.295898438 236.963867188 482.46484375 193.860351562 441 158 c 0
 423.074034889 142.497139262 411.890627046 135.751491838 401.695112688 135.751491838 c 0
 397.176266834 135.751491838 392.851485836 137.07662771 388.219726562 139.551757812 c 0
526.454101562 774.181640625 m 1
 681 774.181640625 l 1
 681 -44 l 1
 526.454101562 -44 l 1
 526.454101562 10.544921875 l 1
 626.454101562 10.544921875 l 1
 626.454101562 719.63671875 l 1
 526.454101562 719.63671875 l 1
 526.454101562 774.181640625 l 1
EndSplineSet
Comment: "Drizzle (NOT freezing and NOT+AAoA-falling as showers) during past+AAoA-hour, but NOT at time of+AAoA-observation"
EndChar

StartChar: uF004F
Encoding: 983119 983119 26
Width: 1000
Flags: H
LayerCount: 2
Fore
SplineSet
405.544921875 462.181640625 m 0
 465.686523438 462.181640625 514.635742188 413.232421875 514.635742188 353.090820312 c 0
 514.635742188 292.94921875 465.686523438 244 405.544921875 244 c 0
 345.403320312 244 296.454101562 292.94921875 296.454101562 353.090820312 c 0
 296.454101562 413.232421875 345.403320312 462.181640625 405.544921875 462.181640625 c 0
496.454101562 762.181640625 m 1
 651 762.181640625 l 1
 651 -56 l 1
 496.454101562 -56 l 1
 496.454101562 -1.455078125 l 1
 596.454101562 -1.455078125 l 1
 596.454101562 707.63671875 l 1
 496.454101562 707.63671875 l 1
 496.454101562 762.181640625 l 1
EndSplineSet
Validated: 524289
Comment: "Rain (NOT freezing and NOT+AAoA-falling as showers) during past+AAoA-hour, but NOT at time of+AAoA-observation"
EndChar

StartChar: uF0050
Encoding: 983120 983120 27
Width: 1000
Flags: H
LayerCount: 2
Fore
SplineSet
301.006835938 464.975585938 m 0
 310.907226562 464.805664062 319.520507812 459.37890625 324.16015625 451.33984375 c 2
 350.544921875 405.63671875 l 1
 376.9296875 451.33984375 l 2
 381.537109375 459.297851562 390.044921875 464.689453125 399.834960938 464.940429688 c 0
 400.087890625 464.947265625 400.357421875 464.93359375 400.611328125 464.93359375 c 0
 405.55078125 464.93359375 410.184570312 463.6171875 414.181640625 461.318359375 c 0
 422.344726562 456.603515625 427.795898438 447.768554688 427.795898438 437.672851562 c 0
 427.795898438 432.71875 426.47265625 428.072265625 424.16015625 424.06640625 c 2
 397.775390625 378.36328125 l 1
 450.544921875 378.36328125 l 2
 465.59765625 378.36328125 477.818359375 366.142578125 477.818359375 351.090820312 c 0
 477.818359375 336.0390625 465.59765625 323.818359375 450.544921875 323.818359375 c 2
 397.775390625 323.818359375 l 1
 424.16015625 278.115234375 l 2
 426.47265625 274.109375 427.842773438 269.450195312 427.842773438 264.497070312 c 0
 427.842773438 254.400390625 422.344726562 245.578125 414.181640625 240.86328125 c 0
 410.17578125 238.55078125 405.517578125 237.181640625 400.563476562 237.181640625 c 0
 390.467773438 237.181640625 381.645507812 242.6796875 376.9296875 250.841796875 c 2
 350.544921875 296.544921875 l 1
 324.16015625 250.841796875 l 2
 319.4453125 242.6796875 310.611328125 237.227539062 300.514648438 237.227539062 c 0
 295.561523438 237.227539062 290.9140625 238.55078125 286.909179688 240.86328125 c 0
 278.74609375 245.578125 273.293945312 254.413085938 273.293945312 264.508789062 c 0
 273.293945312 269.462890625 274.618164062 274.109375 276.9296875 278.115234375 c 2
 303.315429688 323.818359375 l 1
 250.544921875 323.818359375 l 2
 235.493164062 323.818359375 223.272460938 336.0390625 223.272460938 351.090820312 c 0
 223.272460938 366.142578125 235.493164062 378.36328125 250.544921875 378.36328125 c 2
 303.315429688 378.36328125 l 1
 276.9296875 424.06640625 l 2
 274.618164062 428.072265625 273.248046875 432.731445312 273.248046875 437.684570312 c 0
 273.248046875 447.78125 278.74609375 456.603515625 286.909179688 461.318359375 c 0
 290.91796875 463.635742188 295.590820312 464.979492188 300.549804688 464.979492188 c 0
 300.703125 464.979492188 300.854492188 464.978515625 301.006835938 464.975585938 c 0
441.454101562 760.181640625 m 1
 596 760.181640625 l 1
 596 -58 l 1
 441.454101562 -58 l 1
 441.454101562 -3.455078125 l 1
 541.454101562 -3.455078125 l 1
 541.454101562 705.63671875 l 1
 441.454101562 705.63671875 l 1
 441.454101562 760.181640625 l 1
EndSplineSet
Validated: 524289
Comment: "Snow (NOT falling as showers)+AAoA-during past hour, but NOT at+AAoA-time of observation"
EndChar

StartChar: uF0051
Encoding: 983121 983121 28
Width: 1000
Flags: HW
LayerCount: 2
Fore
SplineSet
345.544921875 632.181640625 m 0
 405.686523438 632.181640625 454.635742188 583.232421875 454.635742188 523.090820312 c 0
 454.635742188 462.94921875 405.686523438 414 345.544921875 414 c 0
 285.403320312 414 236.454101562 462.94921875 236.454101562 523.090820312 c 0
 236.454101562 583.232421875 285.403320312 632.181640625 345.544921875 632.181640625 c 0
301.006835938 314.975585938 m 0
 310.907226562 314.805664062 319.520507812 309.37890625 324.16015625 301.33984375 c 2
 350.544921875 255.63671875 l 1
 376.9296875 301.33984375 l 2
 381.537109375 309.297851562 390.044921875 314.689453125 399.834960938 314.940429688 c 0
 400.087890625 314.947265625 400.357421875 314.93359375 400.611328125 314.93359375 c 0
 405.55078125 314.93359375 410.184570312 313.6171875 414.181640625 311.318359375 c 0
 422.344726562 306.603515625 427.795898438 297.768554688 427.795898438 287.672851562 c 0
 427.795898438 282.71875 426.47265625 278.072265625 424.16015625 274.06640625 c 2
 397.775390625 228.36328125 l 1
 450.544921875 228.36328125 l 2
 465.59765625 228.36328125 477.818359375 216.142578125 477.818359375 201.090820312 c 0
 477.818359375 186.0390625 465.59765625 173.818359375 450.544921875 173.818359375 c 2
 397.775390625 173.818359375 l 1
 424.16015625 128.115234375 l 2
 426.47265625 124.109375 427.842773438 119.450195312 427.842773438 114.497070312 c 0
 427.842773438 104.400390625 422.344726562 95.578125 414.181640625 90.86328125 c 0
 410.17578125 88.55078125 405.517578125 87.181640625 400.563476562 87.181640625 c 0
 390.467773438 87.181640625 381.645507812 92.6796875 376.9296875 100.841796875 c 2
 350.544921875 146.544921875 l 1
 324.16015625 100.841796875 l 2
 319.4453125 92.6796875 310.611328125 87.2275390625 300.514648438 87.2275390625 c 0
 295.561523438 87.2275390625 290.9140625 88.55078125 286.909179688 90.86328125 c 0
 278.74609375 95.578125 273.293945312 104.413085938 273.293945312 114.508789062 c 0
 273.293945312 119.462890625 274.618164062 124.109375 276.9296875 128.115234375 c 2
 303.315429688 173.818359375 l 1
 250.544921875 173.818359375 l 2
 235.493164062 173.818359375 223.272460938 186.0390625 223.272460938 201.090820312 c 0
 223.272460938 216.142578125 235.493164062 228.36328125 250.544921875 228.36328125 c 2
 303.315429688 228.36328125 l 1
 276.9296875 274.06640625 l 2
 274.618164062 278.072265625 273.248046875 282.731445312 273.248046875 287.684570312 c 0
 273.248046875 297.78125 278.74609375 306.603515625 286.909179688 311.318359375 c 0
 290.91796875 313.635742188 295.590820312 314.979492188 300.549804688 314.979492188 c 0
 300.703125 314.979492188 300.854492188 314.978515625 301.006835938 314.975585938 c 0
441.454101562 760.181640625 m 1
 596 760.181640625 l 1
 596 -58 l 1
 441.454101562 -58 l 1
 441.454101562 -3.455078125 l 1
 541.454101562 -3.455078125 l 1
 541.454101562 705.63671875 l 1
 441.454101562 705.63671875 l 1
 441.454101562 760.181640625 l 1
EndSplineSet
Validated: 524289
Comment: "Rain and snow (NOT falling as+AAoA-showers) during past hour, but+AAoA-NOT at time of observation"
EndChar

StartChar: uF0052
Encoding: 983122 983122 29
Width: 1000
Flags: H
LayerCount: 2
Fore
SplineSet
365.7265625 315.454101562 m 0
 365.7265625 371.005859375 321.278320312 415.454101562 265.7265625 415.454101562 c 0
 210.17578125 415.454101562 165.7265625 371.005859375 165.7265625 315.454101562 c 2
 165.7265625 297.272460938 l 2
 165.7265625 282.219726562 153.506835938 270 138.454101562 270 c 0
 123.40234375 270 111.181640625 282.219726562 111.181640625 297.272460938 c 2
 111.181640625 315.454101562 l 2
 111.181640625 400.484375 180.697265625 470 265.7265625 470 c 0
 350.756835938 470 420.272460938 400.484375 420.272460938 315.454101562 c 0
 420.272460938 259.90234375 464.720703125 215.454101562 520.272460938 215.454101562 c 0
 575.82421875 215.454101562 620.272460938 259.90234375 620.272460938 315.454101562 c 2
 620.272460938 333.635742188 l 2
 620.272460938 348.688476562 632.493164062 360.908203125 647.544921875 360.908203125 c 0
 662.59765625 360.908203125 674.817382812 348.688476562 674.817382812 333.635742188 c 2
 674.817382812 315.454101562 l 2
 674.817382812 230.423828125 605.302734375 160.908203125 520.272460938 160.908203125 c 0
 435.2421875 160.908203125 365.7265625 230.423828125 365.7265625 315.454101562 c 0
638.454101562 760.908203125 m 1
 793 760.908203125 l 1
 793 -130 l 1
 638.454101562 -130 l 1
 638.454101562 -75.455078125 l 1
 738.454101562 -75.455078125 l 1
 738.454101562 706.36328125 l 1
 638.454101562 706.36328125 l 1
 638.454101562 760.908203125 l 1
EndSplineSet
Validated: 524289
Comment: "Freezing drizzle or freezing rain+AAoA(NOT falling as showers) during+AAoA-past hour, but NOT at time+AAoA-of observatio"
EndChar

StartChar: uF0053
Encoding: 983123 983123 30
Width: 1000
Flags: H
LayerCount: 2
Fore
SplineSet
395.544921875 663.181640625 m 0
 455.686523438 663.181640625 504.635742188 614.232421875 504.635742188 554.090820312 c 0
 504.635742188 493.94921875 455.686523438 445 395.544921875 445 c 0
 335.403320312 445 286.454101562 493.94921875 286.454101562 554.090820312 c 0
 286.454101562 614.232421875 335.403320312 663.181640625 395.544921875 663.181640625 c 0
202.862304688 396.181640625 m 1
 398.635742188 396.181640625 l 1
 594.41015625 396.181640625 l 1
 398.635742188 -64.4365234375 l 1
 202.862304688 396.181640625 l 1
285.319335938 341.635742188 m 1
 398.635742188 75.0166015625 l 1
 511.953125 341.635742188 l 1
 398.635742188 341.635742188 l 1
 285.319335938 341.635742188 l 1
580.454101562 768.908203125 m 1
 735 768.908203125 l 1
 735 -122 l 1
 580.454101562 -122 l 1
 580.454101562 -67.455078125 l 1
 680.454101562 -67.455078125 l 1
 680.454101562 714.36328125 l 1
 580.454101562 714.36328125 l 1
 580.454101562 768.908203125 l 1
EndSplineSet
Validated: 524289
Comment: "Showers of rain during past hour,+AAoA-but NOT at time of observation"
EndChar

StartChar: uF0054
Encoding: 983124 983124 31
Width: 1000
Flags: HW
LayerCount: 2
Fore
SplineSet
348.006835938 665.975585938 m 0
 357.907226562 665.805664062 366.520507812 660.37890625 371.16015625 652.33984375 c 2
 397.544921875 606.63671875 l 1
 423.9296875 652.33984375 l 2
 428.537109375 660.297851562 437.044921875 665.689453125 446.834960938 665.940429688 c 0
 447.087890625 665.947265625 447.357421875 665.93359375 447.611328125 665.93359375 c 0
 452.55078125 665.93359375 457.184570312 664.6171875 461.181640625 662.318359375 c 0
 469.344726562 657.603515625 474.795898438 648.768554688 474.795898438 638.672851562 c 0
 474.795898438 633.71875 473.47265625 629.072265625 471.16015625 625.06640625 c 2
 444.775390625 579.36328125 l 1
 497.544921875 579.36328125 l 2
 512.59765625 579.36328125 524.818359375 567.142578125 524.818359375 552.090820312 c 0
 524.818359375 537.0390625 512.59765625 524.818359375 497.544921875 524.818359375 c 2
 444.775390625 524.818359375 l 1
 471.16015625 479.115234375 l 2
 473.47265625 475.109375 474.842773438 470.450195312 474.842773438 465.497070312 c 0
 474.842773438 455.400390625 469.344726562 446.578125 461.181640625 441.86328125 c 0
 457.17578125 439.55078125 452.517578125 438.181640625 447.563476562 438.181640625 c 0
 437.467773438 438.181640625 428.645507812 443.6796875 423.9296875 451.841796875 c 2
 397.544921875 497.544921875 l 1
 371.16015625 451.841796875 l 2
 366.4453125 443.6796875 357.611328125 438.227539062 347.514648438 438.227539062 c 0
 342.561523438 438.227539062 337.9140625 439.55078125 333.909179688 441.86328125 c 0
 325.74609375 446.578125 320.293945312 455.413085938 320.293945312 465.508789062 c 0
 320.293945312 470.462890625 321.618164062 475.109375 323.9296875 479.115234375 c 2
 350.315429688 524.818359375 l 1
 297.544921875 524.818359375 l 2
 282.493164062 524.818359375 270.272460938 537.0390625 270.272460938 552.090820312 c 0
 270.272460938 567.142578125 282.493164062 579.36328125 297.544921875 579.36328125 c 2
 350.315429688 579.36328125 l 1
 323.9296875 625.06640625 l 2
 321.618164062 629.072265625 320.248046875 633.731445312 320.248046875 638.684570312 c 0
 320.248046875 648.78125 325.74609375 657.603515625 333.909179688 662.318359375 c 0
 337.91796875 664.635742188 342.590820312 665.979492188 347.549804688 665.979492188 c 0
 347.703125 665.979492188 347.854492188 665.978515625 348.006835938 665.975585938 c 0
202.862304688 396.181640625 m 1
 398.635742188 396.181640625 l 1
 594.41015625 396.181640625 l 1
 398.635742188 -64.4365234375 l 1
 202.862304688 396.181640625 l 1
285.319335938 341.635742188 m 1
 398.635742188 75.0166015625 l 1
 511.953125 341.635742188 l 1
 398.635742188 341.635742188 l 1
 285.319335938 341.635742188 l 1
580.454101562 768.908203125 m 1
 735 768.908203125 l 1
 735 -122 l 1
 580.454101562 -122 l 1
 580.454101562 -67.455078125 l 1
 680.454101562 -67.455078125 l 1
 680.454101562 714.36328125 l 1
 580.454101562 714.36328125 l 1
 580.454101562 768.908203125 l 1
EndSplineSet
Validated: 524289
Comment: "Showers of snow, or of rain+AAoA-and snow, during past hour,+AAoA-but NOT at time of observation"
EndChar

StartChar: uF0055
Encoding: 983125 983125 32
Width: 1000
Flags: H
LayerCount: 2
Fore
SplineSet
364.635742188 681.678710938 m 1
 520.95703125 410.7265625 l 1
 255.544921875 410.7265625 l 1
 208.315429688 410.7265625 l 1
 364.635742188 681.678710938 l 1
364.635742188 572.516601562 m 1
 302.775390625 465.272460938 l 1
 426.497070312 465.272460938 l 1
 364.635742188 572.516601562 l 1
168.862304688 356.181640625 m 1
 364.635742188 356.181640625 l 1
 560.41015625 356.181640625 l 1
 364.635742188 -104.436523438 l 1
 168.862304688 356.181640625 l 1
251.319335938 301.635742188 m 1
 364.635742188 35.0166015625 l 1
 477.953125 301.635742188 l 1
 364.635742188 301.635742188 l 1
 251.319335938 301.635742188 l 1
546.454101562 728.908203125 m 1
 701 728.908203125 l 1
 701 -162 l 1
 546.454101562 -162 l 1
 546.454101562 -107.455078125 l 1
 646.454101562 -107.455078125 l 1
 646.454101562 674.36328125 l 1
 546.454101562 674.36328125 l 1
 546.454101562 728.908203125 l 1
EndSplineSet
Validated: 524289
Comment: "Showers of hail, or of hail+AAoA-and rain, during past hour,+AAoA-but NOT at time of observation"
EndChar

StartChar: uF0056
Encoding: 983126 983126 33
Width: 1000
Flags: H
LayerCount: 2
Fore
SplineSet
132.454101562 509.454101562 m 1
 768.818359375 509.454101562 l 1
 768.818359375 454.908203125 l 1
 132.454101562 454.908203125 l 1
 132.454101562 509.454101562 l 1
132.454101562 336.7265625 m 1
 768.818359375 336.7265625 l 1
 768.818359375 282.181640625 l 1
 132.454101562 282.181640625 l 1
 132.454101562 336.7265625 l 1
132.454101562 164 m 1
 768.818359375 164 l 1
 768.818359375 109.454101562 l 1
 132.454101562 109.454101562 l 1
 132.454101562 164 l 1
732.454101562 754.908203125 m 1
 887 754.908203125 l 1
 887 -136 l 1
 732.454101562 -136 l 1
 732.454101562 -81.455078125 l 1
 832.454101562 -81.455078125 l 1
 832.454101562 700.36328125 l 1
 732.454101562 700.36328125 l 1
 732.454101562 754.908203125 l 1
EndSplineSet
Validated: 524289
Comment: "Fog during past hour, but+AAoA-NOT at time of observation"
EndChar

StartChar: uF0057
Encoding: 983127 983127 34
Width: 1000
Flags: H
LayerCount: 2
Fore
SplineSet
204.090820312 642.908203125 m 1
 693.615234375 642.908203125 l 1
 421.5625 264.001953125 l 1
 640.455078125 45.1103515625 l 1
 676.818359375 81.4736328125 l 1
 676.818359375 -29.818359375 l 1
 631.364257812 -29.818359375 l 1
 565.525390625 -29.818359375 l 1
 601.889648438 6.544921875 l 1
 350.255859375 258.178710938 l 1
 587.293945312 588.36328125 l 1
 304.090820312 588.36328125 l 1
 304.090820312 -57.091796875 l 1
 249.545898438 -57.091796875 l 1
 249.545898438 588.36328125 l 1
 204.090820312 588.36328125 l 1
 204.090820312 642.908203125 l 1
640.455078125 742.908203125 m 1
 795 742.908203125 l 1
 795 -148 l 1
 640.455078125 -148 l 1
 640.455078125 -93.455078125 l 1
 740.455078125 -93.455078125 l 1
 740.455078125 688.36328125 l 1
 640.455078125 688.36328125 l 1
 640.455078125 742.908203125 l 1
EndSplineSet
Validated: 524289
Comment: "Thunderstorm (with or without+AAoA-precipitation) during past hour,+AAoA-but NOT at time of observation"
EndChar

StartChar: uF0075
Encoding: 983157 983157 35
Width: 1000
Flags: H
LayerCount: 2
Fore
SplineSet
410.002929688 709.2890625 m 0
 416.823242188 709.240234375 423.612304688 708.845703125 430.3515625 708.081054688 c 0
 448.321289062 706.043945312 465.87890625 701.504882812 482.411132812 694.658203125 c 0
 548.537109375 667.271484375 600.2734375 602.161132812 600.2734375 518.2734375 c 1
 545.727539062 518.2734375 l 1
 545.727539062 580.1796875 509.338867188 624.481445312 461.565429688 644.267578125 c 0
 444.484828972 651.34178195 426.215432831 655.171047384 407.790346829 655.171047384 c 0
 374.681548915 655.171047384 341.070028751 642.806356877 312.950195312 614.686523438 c 0
 284.830786001 586.566486713 272.466344323 552.954683861 272.466344323 519.845653862 c 0
 272.466344323 501.420811259 276.295377848 483.151667891 283.369140625 466.071289062 c 0
 303.155273438 418.297851562 347.45703125 381.909179688 409.364257812 381.909179688 c 2
 645.727539062 381.909179688 l 1
 645.727539062 423.77734375 l 1
 715.400390625 377.328125 l 1
 749.456054688 354.63671875 l 1
 645.727539062 285.49609375 l 1
 645.727539062 327.364257812 l 1
 542.993164062 327.364257812 l 1
 561.416992188 309.169921875 576.01171875 287.55859375 585.749023438 264.046875 c 0
 595.331454517 240.90983479 600.400287179 215.757438755 600.400287179 190.291908844 c 0
 600.400287179 142.97660686 582.901588575 94.5802995118 544.342773438 56.021484375 c 0
 505.783958301 17.462669238 457.387650953 -0.0360293666136 410.072348969 -0.0360293666136 c 0
 384.606819058 -0.0360293666136 359.454423022 5.03280329608 336.317382812 14.615234375 c 0
 270.19140625 42.001953125 218.455078125 107.112304688 218.455078125 191 c 1
 273 191 l 1
 273 129.09375 309.388671875 84.7919921875 357.162109375 65.005859375 c 0
 374.242710091 57.9316555503 392.512106232 54.1023901163 410.937192233 54.1023901163 c 0
 444.045990148 54.1023901163 477.657510311 66.4670806236 505.77734375 94.5869140625 c 0
 533.897177189 122.706747501 546.261867696 156.318267665 546.261867696 189.42706558 c 0
 546.261867696 207.852151581 542.432602262 226.121547722 535.358398438 243.202148438 c 0
 515.572265625 290.975585938 471.270507812 327.364257812 409.364257812 327.364257812 c 2
 109.364257812 327.364257812 l 1
 109.364257812 381.909179688 l 1
 275.734375 381.909179688 l 1
 257.311523438 400.103515625 242.715820312 421.71484375 232.978515625 445.2265625 c 0
 223.396084546 468.36360271 218.327251884 493.515998745 218.327251884 518.981528656 c 0
 218.327251884 566.29683064 235.825950488 614.693137988 274.384765625 653.251953125 c 0
 312.94136381 691.807583962 361.336990755 709.293818191 408.651306555 709.293818191 c 0
 409.101948835 709.293818191 409.552493025 709.292231929 410.002929688 709.2890625 c 0
782.090820312 718.2734375 m 1
 836.63671875 718.2734375 l 1
 836.63671875 -9 l 1
 782.090820312 -9 l 1
 782.090820312 718.2734375 l 1
EndSplineSet
Comment: "Slight or moderate dust storm or+AAoA-sand storm, has decreased+AAoA-during the past hour"
EndChar

StartChar: uF0076
Encoding: 983158 983158 36
Width: 1000
Flags: H
LayerCount: 2
Fore
SplineSet
476.546875 712.65234375 m 0
 483.3671875 712.603515625 490.155273438 712.208984375 496.89453125 711.444335938 c 0
 514.864257812 709.407226562 532.422851562 704.868164062 548.954101562 698.021484375 c 0
 615.080078125 670.634765625 666.81640625 605.524414062 666.81640625 521.63671875 c 1
 612.270507812 521.63671875 l 1
 612.270507812 583.54296875 575.8828125 627.844726562 528.109375 647.630859375 c 0
 511.028425131 654.7050632 492.75880467 658.534328634 474.333619183 658.534328634 c 0
 441.224642499 658.534328634 407.613346655 646.169638127 379.494140625 618.049804688 c 0
 351.374307186 589.929971249 339.009616679 556.318451085 339.009616679 523.209653171 c 0
 339.009616679 504.784567169 342.838882113 486.515171028 349.913085938 469.434570312 c 0
 369.69921875 421.661132812 414 385.272460938 475.907226562 385.272460938 c 2
 712.270507812 385.272460938 l 1
 712.270507812 427.140625 l 1
 781.944335938 380.69140625 l 1
 816 358 l 1
 712.270507812 288.859375 l 1
 712.270507812 330.727539062 l 1
 609.536132812 330.727539062 l 1
 627.959960938 312.533203125 642.5546875 290.921875 652.291992188 267.41015625 c 0
 661.874423267 244.27311604 666.943255929 219.120720005 666.943255929 193.655190094 c 0
 666.943255929 146.33988811 649.444557325 97.9435807618 610.885742188 59.384765625 c 0
 572.326927051 20.825950488 523.930619703 3.32725188339 476.615317719 3.32725188339 c 0
 451.149787808 3.32725188339 425.997391772 8.39608454608 402.860351562 17.978515625 c 0
 336.734375 45.365234375 284.998046875 110.475585938 284.998046875 194.36328125 c 1
 339.543945312 194.36328125 l 1
 339.543945312 132.45703125 375.931640625 88.1552734375 423.705078125 68.369140625 c 0
 440.786027995 61.2949368003 459.055648456 57.4656713663 477.480833942 57.4656713663 c 0
 510.589810627 57.4656713663 544.20110647 69.8303618736 572.3203125 97.9501953125 c 0
 600.440145939 126.070028751 612.804836446 159.681548915 612.804836446 192.79034683 c 0
 612.804836446 211.215432831 608.975571012 229.484828972 601.901367188 246.565429688 c 0
 582.115234375 294.338867188 537.814453125 330.727539062 475.907226562 330.727539062 c 2
 175.907226562 330.727539062 l 1
 175.907226562 385.272460938 l 1
 342.278320312 385.272460938 l 1
 323.854492188 403.466796875 309.259765625 425.078125 299.522460938 448.58984375 c 0
 289.940029859 471.72688396 284.871197196 496.879279996 284.871197196 522.344809907 c 0
 284.871197196 569.66011189 302.369895801 618.056419238 340.928710938 656.615234375 c 0
 379.484341774 695.170865212 427.879959591 712.657099441 475.195224487 712.657099441 c 0
 475.645875807 712.657099441 476.096429123 712.655513179 476.546875 712.65234375 c 0
EndSplineSet
Comment: "Slight or moderate dust storm or+AAoA-sand storm, no appreciable+AAoA-change during past hour"
EndChar

StartChar: uF0077
Encoding: 983159 983159 37
Width: 1000
Flags: HW
LayerCount: 2
Fore
SplineSet
182 727.413085938 m 1
 244 727.413085938 l 1
 244 3.4130859375 l 1
 182 3.4130859375 l 1
 182 727.413085938 l 1
591.276367188 717.79296875 m 0
 598.096679688 717.744140625 604.884765625 717.349609375 611.624023438 716.584960938 c 0
 629.59375 714.547851562 647.15234375 710.008789062 663.68359375 703.162109375 c 0
 729.809570312 675.775390625 781.545898438 610.665039062 781.545898438 526.77734375 c 1
 727 526.77734375 l 1
 727 588.68359375 690.612304688 632.985351562 642.838867188 652.771484375 c 0
 625.757917318 659.8456882 607.488296857 663.674953634 589.063111371 663.674953634 c 0
 555.954134686 663.674953634 522.342838843 651.310263127 494.223632812 623.190429688 c 0
 466.103799373 595.070596249 453.739108866 561.459076085 453.739108866 528.350278171 c 0
 453.739108866 509.925192169 457.5683743 491.655796028 464.642578125 474.575195312 c 0
 484.428710938 426.801757812 528.729492188 390.413085938 590.63671875 390.413085938 c 2
 827 390.413085938 l 1
 827 432.28125 l 1
 896.673828125 385.83203125 l 1
 930.729492188 363.140625 l 1
 827 294 l 1
 827 335.868164062 l 1
 724.265625 335.868164062 l 1
 742.689453125 317.673828125 757.284179688 296.0625 767.021484375 272.55078125 c 0
 776.603915454 249.41374104 781.672748116 224.261345005 781.672748116 198.795815094 c 0
 781.672748116 151.48051311 764.174049512 103.084205762 725.615234375 64.525390625 c 0
 687.056419238 25.966575488 638.66011189 8.46787688339 591.344809907 8.46787688339 c 0
 565.879279996 8.46787688339 540.72688396 13.5367095461 517.58984375 23.119140625 c 0
 451.463867188 50.505859375 399.727539062 115.616210938 399.727539062 199.50390625 c 1
 454.2734375 199.50390625 l 1
 454.2734375 137.59765625 490.661132812 93.2958984375 538.434570312 73.509765625 c 0
 555.515520182 66.4355618003 573.785140643 62.6062963663 592.210326129 62.6062963663 c 0
 625.319302814 62.6062963663 658.930598657 74.9709868735 687.049804688 103.090820312 c 0
 715.169638127 131.210653751 727.534328634 164.822173915 727.534328634 197.930971829 c 0
 727.534328634 216.356057831 723.7050632 234.625453972 716.630859375 251.706054688 c 0
 696.844726562 299.479492188 652.543945312 335.868164062 590.63671875 335.868164062 c 2
 290.63671875 335.868164062 l 1
 290.63671875 390.413085938 l 1
 457.0078125 390.413085938 l 1
 438.583984375 408.607421875 423.989257812 430.21875 414.251953125 453.73046875 c 0
 404.669522046 476.86750896 399.600689384 502.019904995 399.600689384 527.485434906 c 0
 399.600689384 574.80073689 417.099387988 623.197044238 455.658203125 661.755859375 c 0
 494.213833962 700.311490212 542.609451778 717.797724441 589.924716675 717.797724441 c 0
 590.375367995 717.797724441 590.825921311 717.796138179 591.276367188 717.79296875 c 0
EndSplineSet
Comment: "Slight or moderate dust storm+AAoA-or sand storm, has increased+AAoA-during past hour"
EndChar

StartChar: uF0078
Encoding: 983160 983160 38
Width: 1000
Flags: H
LayerCount: 2
Fore
SplineSet
837 727.413085938 m 1
 899 727.413085938 l 1
 899 3.4130859375 l 1
 837 3.4130859375 l 1
 837 727.413085938 l 1
445.661132812 715.267578125 m 0
 452.481445312 715.21875 459.26953125 714.82421875 466.008789062 714.059570312 c 0
 483.978515625 712.022460938 501.537109375 707.483398438 518.068359375 700.63671875 c 0
 584.194335938 673.25 635.930664062 608.139648438 635.930664062 524.251953125 c 1
 581.384765625 524.251953125 l 1
 581.384765625 586.158203125 544.997070312 630.459960938 497.223632812 650.24609375 c 0
 480.142682943 657.320297574 461.873062482 661.149563008 443.447876995 661.149563008 c 0
 410.338900311 661.149563008 376.727604468 648.784872501 348.608398438 620.665039062 c 0
 320.488564999 592.545205623 308.123874492 558.933685461 308.123874492 525.824887546 c 0
 308.123874492 507.399801545 311.953139926 489.130405404 319.02734375 472.049804688 c 0
 327.206054688 452.302734375 339.784179688 434.720703125 355.852539062 420.629882812 c 2
 695.270507812 420.629882812 l 1
 639.552734375 462.426757812 l 1
 650.490234375 476.986328125 l 1
 805.639648438 360.615234375 l 1
 650.490234375 244.244140625 l 1
 639.552734375 258.803710938 l 1
 695.270507812 300.600585938 l 1
 605.249023438 300.600585938 l 1
 611.526367188 290.865234375 617.001953125 280.661132812 621.40625 270.025390625 c 0
 630.988681079 246.888350415 636.057513742 221.735954379 636.057513742 196.270424468 c 0
 636.057513742 148.955122485 618.558815137 100.558815137 580 62 c 0
 541.441184863 23.441184863 493.044877515 5.94248625839 445.729575532 5.94248625839 c 0
 420.264045621 5.94248625839 395.111649585 11.0113189211 371.974609375 20.59375 c 0
 305.848632812 47.98046875 254.112304688 113.090820312 254.112304688 196.978515625 c 1
 308.658203125 196.978515625 l 1
 308.658203125 135.072265625 345.045898438 90.7705078125 392.819335938 70.984375 c 0
 409.900285807 63.9101711754 428.169906268 60.0809057414 446.595091755 60.0809057414 c 0
 479.704068439 60.0809057414 513.315364282 72.4455962487 541.434570312 100.565429688 c 0
 569.554403751 128.685263127 581.919094258 162.296783289 581.919094258 195.405581204 c 0
 581.919094258 213.830667205 578.089828824 232.100063346 571.015625 249.180664062 c 0
 562.836914062 268.927734375 550.258789062 286.509765625 534.190429688 300.600585938 c 2
 135.930664062 300.600585938 l 1
 135.930664062 318.783203125 l 1
 507.770507812 318.783203125 l 1
 489.659179688 327.989257812 468.642578125 333.342773438 445.021484375 333.342773438 c 0
 383.348632812 333.342773438 331.885742188 361.361328125 298.040039062 402.447265625 c 2
 135.930664062 402.447265625 l 1
 135.930664062 420.629882812 l 1
 284.793945312 420.629882812 l 1
 278.516601562 430.365234375 273.041015625 440.569335938 268.63671875 451.205078125 c 0
 259.054287671 474.342118335 253.985455008 499.494514371 253.985455008 524.960044282 c 0
 253.985455008 572.275346265 271.484153613 620.671653613 310.04296875 659.23046875 c 0
 348.598599586 697.786099586 396.994217404 715.272333816 444.309482299 715.272333816 c 0
 444.760133619 715.272333816 445.210686935 715.270747554 445.661132812 715.267578125 c 0
717.749023438 403.796875 m 1
 717.749023438 402.447265625 l 1
 382.272460938 402.447265625 l 1
 400.383789062 393.241210938 421.400390625 387.887695312 445.021484375 387.887695312 c 0
 506.694335938 387.887695312 558.157226562 359.869140625 592.002929688 318.783203125 c 2
 717.749023438 318.783203125 l 1
 717.749023438 317.43359375 l 1
 775.3125 360.615234375 l 1
 717.749023438 403.796875 l 1
EndSplineSet
Comment: "Severe dust storm or sand+AAoA-storm, has decreased during+AAoA-past hour"
EndChar

StartChar: uF007A
Encoding: 983162 983162 39
Width: 1000
Flags: HW
LayerCount: 2
Fore
SplineSet
142 727.413085938 m 1
 204 727.413085938 l 1
 204 3.4130859375 l 1
 142 3.4130859375 l 1
 142 727.413085938 l 1
560.661132812 715.267578125 m 0
 567.481445312 715.21875 574.26953125 714.82421875 581.008789062 714.059570312 c 0
 598.978515625 712.022460938 616.537109375 707.483398438 633.068359375 700.63671875 c 0
 699.194335938 673.25 750.930664062 608.139648438 750.930664062 524.251953125 c 1
 696.384765625 524.251953125 l 1
 696.384765625 586.158203125 659.997070312 630.459960938 612.223632812 650.24609375 c 0
 595.142682943 657.320297574 576.873062482 661.149563008 558.447876995 661.149563008 c 0
 525.338900311 661.149563008 491.727604468 648.784872501 463.608398438 620.665039062 c 0
 435.488564999 592.545205623 423.123874492 558.933685461 423.123874492 525.824887546 c 0
 423.123874492 507.399801545 426.953139926 489.130405404 434.02734375 472.049804688 c 0
 442.206054688 452.302734375 454.784179688 434.720703125 470.852539062 420.629882812 c 2
 810.270507812 420.629882812 l 1
 754.552734375 462.426757812 l 1
 765.490234375 476.986328125 l 1
 920.639648438 360.615234375 l 1
 765.490234375 244.244140625 l 1
 754.552734375 258.803710938 l 1
 810.270507812 300.600585938 l 1
 720.249023438 300.600585938 l 1
 726.526367188 290.865234375 732.001953125 280.661132812 736.40625 270.025390625 c 0
 745.988681079 246.888350415 751.057513742 221.735954379 751.057513742 196.270424468 c 0
 751.057513742 148.955122485 733.558815137 100.558815137 695 62 c 0
 656.441184863 23.441184863 608.044877515 5.94248625839 560.729575532 5.94248625839 c 0
 535.264045621 5.94248625839 510.111649585 11.0113189211 486.974609375 20.59375 c 0
 420.848632812 47.98046875 369.112304688 113.090820312 369.112304688 196.978515625 c 1
 423.658203125 196.978515625 l 1
 423.658203125 135.072265625 460.045898438 90.7705078125 507.819335938 70.984375 c 0
 524.900285807 63.9101711754 543.169906268 60.0809057414 561.595091755 60.0809057414 c 0
 594.704068439 60.0809057414 628.315364282 72.4455962487 656.434570312 100.565429688 c 0
 684.554403751 128.685263127 696.919094258 162.296783289 696.919094258 195.405581204 c 0
 696.919094258 213.830667205 693.089828824 232.100063346 686.015625 249.180664062 c 0
 677.836914062 268.927734375 665.258789062 286.509765625 649.190429688 300.600585938 c 2
 250.930664062 300.600585938 l 1
 250.930664062 318.783203125 l 1
 622.770507812 318.783203125 l 1
 604.659179688 327.989257812 583.642578125 333.342773438 560.021484375 333.342773438 c 0
 498.348632812 333.342773438 446.885742188 361.361328125 413.040039062 402.447265625 c 2
 250.930664062 402.447265625 l 1
 250.930664062 420.629882812 l 1
 399.793945312 420.629882812 l 1
 393.516601562 430.365234375 388.041015625 440.569335938 383.63671875 451.205078125 c 0
 374.054287671 474.342118335 368.985455008 499.494514371 368.985455008 524.960044282 c 0
 368.985455008 572.275346265 386.484153613 620.671653613 425.04296875 659.23046875 c 0
 463.598599586 697.786099586 511.994217404 715.272333816 559.309482299 715.272333816 c 0
 559.760133619 715.272333816 560.210686935 715.270747554 560.661132812 715.267578125 c 0
832.749023438 403.796875 m 1
 832.749023438 402.447265625 l 1
 497.272460938 402.447265625 l 1
 515.383789062 393.241210938 536.400390625 387.887695312 560.021484375 387.887695312 c 0
 621.694335938 387.887695312 673.157226562 359.869140625 707.002929688 318.783203125 c 2
 832.749023438 318.783203125 l 1
 832.749023438 317.43359375 l 1
 890.3125 360.615234375 l 1
 832.749023438 403.796875 l 1
EndSplineSet
Comment: "Severe dust storm or sand storm,+AAoA-has increased during past hour"
EndChar

StartChar: uF0079
Encoding: 983161 983161 40
Width: 1000
Flags: HW
LayerCount: 2
Fore
SplineSet
445.661132812 715.267578125 m 0
 452.481445312 715.21875 459.26953125 714.82421875 466.008789062 714.059570312 c 0
 483.978515625 712.022460938 501.537109375 707.483398438 518.068359375 700.63671875 c 0
 584.194335938 673.25 635.930664062 608.139648438 635.930664062 524.251953125 c 1
 581.384765625 524.251953125 l 1
 581.384765625 586.158203125 544.997070312 630.459960938 497.223632812 650.24609375 c 0
 480.142682943 657.320297574 461.873062482 661.149563008 443.447876995 661.149563008 c 0
 410.338900311 661.149563008 376.727604468 648.784872501 348.608398438 620.665039062 c 0
 320.488564999 592.545205623 308.123874492 558.933685461 308.123874492 525.824887546 c 0
 308.123874492 507.399801545 311.953139926 489.130405404 319.02734375 472.049804688 c 0
 327.206054688 452.302734375 339.784179688 434.720703125 355.852539062 420.629882812 c 2
 695.270507812 420.629882812 l 1
 639.552734375 462.426757812 l 1
 650.490234375 476.986328125 l 1
 805.639648438 360.615234375 l 1
 650.490234375 244.244140625 l 1
 639.552734375 258.803710938 l 1
 695.270507812 300.600585938 l 1
 605.249023438 300.600585938 l 1
 611.526367188 290.865234375 617.001953125 280.661132812 621.40625 270.025390625 c 0
 630.988681079 246.888350415 636.057513742 221.735954379 636.057513742 196.270424468 c 0
 636.057513742 148.955122485 618.558815137 100.558815137 580 62 c 0
 541.441184863 23.441184863 493.044877515 5.94248625839 445.729575532 5.94248625839 c 0
 420.264045621 5.94248625839 395.111649585 11.0113189211 371.974609375 20.59375 c 0
 305.848632812 47.98046875 254.112304688 113.090820312 254.112304688 196.978515625 c 1
 308.658203125 196.978515625 l 1
 308.658203125 135.072265625 345.045898438 90.7705078125 392.819335938 70.984375 c 0
 409.900285807 63.9101711754 428.169906268 60.0809057414 446.595091755 60.0809057414 c 0
 479.704068439 60.0809057414 513.315364282 72.4455962487 541.434570312 100.565429688 c 0
 569.554403751 128.685263127 581.919094258 162.296783289 581.919094258 195.405581204 c 0
 581.919094258 213.830667205 578.089828824 232.100063346 571.015625 249.180664062 c 0
 562.836914062 268.927734375 550.258789062 286.509765625 534.190429688 300.600585938 c 2
 135.930664062 300.600585938 l 1
 135.930664062 318.783203125 l 1
 507.770507812 318.783203125 l 1
 489.659179688 327.989257812 468.642578125 333.342773438 445.021484375 333.342773438 c 0
 383.348632812 333.342773438 331.885742188 361.361328125 298.040039062 402.447265625 c 2
 135.930664062 402.447265625 l 1
 135.930664062 420.629882812 l 1
 284.793945312 420.629882812 l 1
 278.516601562 430.365234375 273.041015625 440.569335938 268.63671875 451.205078125 c 0
 259.054287671 474.342118335 253.985455008 499.494514371 253.985455008 524.960044282 c 0
 253.985455008 572.275346265 271.484153613 620.671653613 310.04296875 659.23046875 c 0
 348.598599586 697.786099586 396.994217404 715.272333816 444.309482299 715.272333816 c 0
 444.760133619 715.272333816 445.210686935 715.270747554 445.661132812 715.267578125 c 0
717.749023438 403.796875 m 1
 717.749023438 402.447265625 l 1
 382.272460938 402.447265625 l 1
 400.383789062 393.241210938 421.400390625 387.887695312 445.021484375 387.887695312 c 0
 506.694335938 387.887695312 558.157226562 359.869140625 592.002929688 318.783203125 c 2
 717.749023438 318.783203125 l 1
 717.749023438 317.43359375 l 1
 775.3125 360.615234375 l 1
 717.749023438 403.796875 l 1
EndSplineSet
Comment: "Severe dust storm or sand+AAoA-storm, no appreciable change+AAoA-during past hour"
EndChar

StartChar: uF007B
Encoding: 983163 983163 41
Width: 1000
Flags: HW
LayerCount: 2
Fore
SplineSet
456.586914062 650.36328125 m 1
 511.131835938 650.36328125 l 1
 511.131835938 377.635742188 l 1
 720.22265625 377.635742188 l 1
 720.22265625 419.50390625 l 1
 789.896484375 373.0546875 l 1
 823.952148438 350.36328125 l 1
 720.22265625 281.22265625 l 1
 720.22265625 323.090820312 l 1
 511.131835938 323.090820312 l 1
 511.131835938 114 l 1
 553 114 l 1
 506.55078125 44.326171875 l 1
 483.859375 10.2705078125 l 1
 414.71875 114 l 1
 456.586914062 114 l 1
 456.586914062 323.090820312 l 1
 183.859375 323.090820312 l 1
 183.859375 377.635742188 l 1
 456.586914062 377.635742188 l 1
 456.586914062 650.36328125 l 1
EndSplineSet
Validated: 524289
Comment: "Slight or moderate drifting+AAoA-snow, generally low"
EndChar

StartChar: uF007C
Encoding: 983164 983164 42
Width: 1000
Flags: H
LayerCount: 2
Fore
SplineSet
469.586914062 644.36328125 m 1
 524.131835938 644.36328125 l 1
 524.131835938 404.377929688 l 1
 747.108398438 404.377929688 l 1
 691.390625 446.174804688 l 1
 702.328125 460.734375 l 1
 857.477539062 344.36328125 l 1
 702.328125 227.9921875 l 1
 691.390625 242.551757812 l 1
 747.108398438 284.348632812 l 1
 524.131835938 284.348632812 l 1
 524.131835938 108 l 1
 566 108 l 1
 519.55078125 38.326171875 l 1
 496.859375 4.2705078125 l 1
 427.71875 108 l 1
 469.586914062 108 l 1
 469.586914062 284.348632812 l 1
 187.768554688 284.348632812 l 1
 187.768554688 302.53125 l 1
 469.586914062 302.53125 l 1
 469.586914062 386.1953125 l 1
 187.768554688 386.1953125 l 1
 187.768554688 404.377929688 l 1
 469.586914062 404.377929688 l 1
 469.586914062 644.36328125 l 1
769.586914062 387.544921875 m 1
 769.586914062 386.1953125 l 1
 524.131835938 386.1953125 l 1
 524.131835938 302.53125 l 1
 769.586914062 302.53125 l 1
 769.586914062 301.181640625 l 1
 827.150390625 344.36328125 l 1
 769.586914062 387.544921875 l 1
EndSplineSet
Validated: 524289
Comment: "Heavy drifting snow,+AAoA-generally low"
EndChar

StartChar: uF007D
Encoding: 983165 983165 43
Width: 1000
Flags: H
LayerCount: 2
Fore
SplineSet
489.727539062 640.092773438 m 1
 558.868164062 536.36328125 l 1
 517 536.36328125 l 1
 517 327.272460938 l 1
 726.090820312 327.272460938 l 1
 726.090820312 369.140625 l 1
 795.764648438 322.69140625 l 1
 829.8203125 300 l 1
 726.090820312 230.859375 l 1
 726.090820312 272.727539062 l 1
 517 272.727539062 l 1
 517 0 l 1
 462.455078125 0 l 1
 462.455078125 272.727539062 l 1
 189.727539062 272.727539062 l 1
 189.727539062 327.272460938 l 1
 462.455078125 327.272460938 l 1
 462.455078125 536.36328125 l 1
 420.586914062 536.36328125 l 1
 467.036132812 606.037109375 l 1
 489.727539062 640.092773438 l 1
EndSplineSet
Validated: 524289
Comment: "Slight or moderate drifting+AAoA-snow, generally high"
EndChar

StartChar: uF007E
Encoding: 983166 983166 44
Width: 1000
Flags: H
LayerCount: 2
Fore
SplineSet
493.727539062 640.092773438 m 1
 562.868164062 536.36328125 l 1
 521 536.36328125 l 1
 521 360.014648438 l 1
 743.9765625 360.014648438 l 1
 688.258789062 401.811523438 l 1
 699.196289062 416.37109375 l 1
 854.345703125 300 l 1
 699.196289062 183.62890625 l 1
 688.258789062 198.188476562 l 1
 743.9765625 239.985351562 l 1
 521 239.985351562 l 1
 521 0 l 1
 466.455078125 0 l 1
 466.455078125 239.985351562 l 1
 184.63671875 239.985351562 l 1
 184.63671875 258.16796875 l 1
 466.455078125 258.16796875 l 1
 466.455078125 341.83203125 l 1
 184.63671875 341.83203125 l 1
 184.63671875 360.014648438 l 1
 466.455078125 360.014648438 l 1
 466.455078125 536.36328125 l 1
 424.586914062 536.36328125 l 1
 471.036132812 606.037109375 l 1
 493.727539062 640.092773438 l 1
766.455078125 343.181640625 m 1
 766.455078125 341.83203125 l 1
 521 341.83203125 l 1
 521 258.16796875 l 1
 766.455078125 258.16796875 l 1
 766.455078125 256.818359375 l 1
 824.018554688 300 l 1
 766.455078125 343.181640625 l 1
EndSplineSet
Validated: 524289
Comment: "Heavy drifting snow,+AAoA-generally high"
EndChar

StartChar: uF009C
Encoding: 983196 983196 45
Width: 1000
Flags: HW
LayerCount: 2
Fore
SplineSet
190.64453125 727.068359375 m 1
 227.36328125 686.727539062 l 1
 133.946289062 601.818359375 87.2377929688 486.176269531 87.2377929688 370.534179688 c 0
 87.2377929688 254.892089844 133.946289062 139.25 227.36328125 54.3408203125 c 1
 190.64453125 14 l 1
 85.6416015625 109.440429688 33.1401367188 239.987304688 33.1401367188 370.534179688 c 0
 33.1401367188 501.081054688 85.6416015625 631.627929688 190.64453125 727.068359375 c 1
791 727.068359375 m 1
 896.00292969 631.627929688 948.504394535 501.081054688 948.504394535 370.534179688 c 0
 948.504394535 239.987304688 896.00292969 109.440429688 791 14 c 1
 754.28125 54.3408203125 l 1
 847.698242188 139.25 894.406738281 254.892089844 894.406738281 370.534179688 c 0
 894.406738281 486.176269531 847.698242188 601.818359375 754.28125 686.727539062 c 1
 791 727.068359375 l 1
172.640625 570.534179688 m 1
 809.00390625 570.534179688 l 1
 809.00390625 515.98828125 l 1
 172.640625 515.98828125 l 1
 172.640625 570.534179688 l 1
172.640625 397.806640625 m 1
 809.00390625 397.806640625 l 1
 809.00390625 343.26171875 l 1
 172.640625 343.26171875 l 1
 172.640625 397.806640625 l 1
172.640625 225.080078125 m 1
 809.00390625 225.080078125 l 1
 809.00390625 170.534179688 l 1
 172.640625 170.534179688 l 1
 172.640625 225.080078125 l 1
EndSplineSet
Comment: "Fog at distance at time of+AAoA-observation, but NOT at station+AAoA-during past hour"
EndChar

StartChar: uF009D
Encoding: 983197 983197 46
Width: 1000
Flags: H
LayerCount: 2
Fore
SplineSet
186.63671875 400 m 1
 450.272460938 400 l 1
 450.272460938 345.454101562 l 1
 186.63671875 345.454101562 l 1
 186.63671875 400 l 1
559.364257812 400 m 1
 823 400 l 1
 823 345.454101562 l 1
 559.364257812 345.454101562 l 1
 559.364257812 400 l 1
186.63671875 227.272460938 m 1
 823 227.272460938 l 1
 823 172.727539062 l 1
 186.63671875 172.727539062 l 1
 186.63671875 227.272460938 l 1
186.63671875 54.5458984375 m 1
 450.272460938 54.5458984375 l 1
 450.272460938 0 l 1
 186.63671875 0 l 1
 186.63671875 54.5458984375 l 1
559.364257812 54.5458984375 m 1
 823 54.5458984375 l 1
 823 0 l 1
 559.364257812 0 l 1
 559.364257812 54.5458984375 l 1
EndSplineSet
Validated: 524289
Comment: "Fog in patches"
EndChar

StartChar: uF009E
Encoding: 983198 983198 47
Width: 1000
Flags: H
LayerCount: 2
Fore
SplineSet
869 412 m 1
 869 12 l 1
 814.454101562 12 l 1
 814.454101562 412 l 1
 869 412 l 1
141.7265625 66.5458984375 m 1
 759.909179688 66.5458984375 l 1
 759.909179688 12 l 1
 141.7265625 12 l 1
 141.7265625 66.5458984375 l 1
141.7265625 239.272460938 m 1
 141.7265625 184.727539062 l 1
 759.909179688 184.727539062 l 1
 759.909179688 239.272460938 l 1
 141.7265625 239.272460938 l 1
759.909179688 357.454101562 m 1
 759.909179688 412 l 1
 505.36328125 412 l 1
 505.36328125 357.454101562 l 1
 759.909179688 357.454101562 l 1
141.7265625 412 m 1
 396.272460938 412 l 1
 396.272460938 357.454101562 l 1
 141.7265625 357.454101562 l 1
 141.7265625 412 l 1
EndSplineSet
Validated: 524297
Comment: "Fog, sky discernible, has+AAoA-become thinner during past hour+AAoA"
EndChar

StartChar: uF009F
Encoding: 983199 983199 48
Width: 1000
Flags: HW
LayerCount: 2
Fore
SplineSet
857 400 m 1
 857 0 l 1
 802.454101562 0 l 1
 802.454101562 400 l 1
 857 400 l 1
129.7265625 54.5458984375 m 1
 747.909179688 54.5458984375 l 1
 747.909179688 0 l 1
 129.7265625 0 l 1
 129.7265625 54.5458984375 l 1
129.7265625 227.272460938 m 1
 129.7265625 172.727539062 l 1
 747.909179688 172.727539062 l 1
 747.909179688 227.272460938 l 1
 129.7265625 227.272460938 l 1
129.7265625 400 m 1
 747.909179688 400 l 1
 747.909179688 345.454101562 l 1
 129.7265625 345.454101562 l 1
 129.7265625 400 l 1
EndSplineSet
Validated: 524289
Comment: "Fog, sky NOT discernable,+AAoA-has become thinner during+AAoA-past hour"
EndChar

StartChar: uF00A0
Encoding: 983200 983200 49
Width: 1000
Flags: HW
LayerCount: 2
Fore
SplineSet
176.63671875 54.5458984375 m 1
 813 54.5458984375 l 1
 813 0 l 1
 176.63671875 0 l 1
 176.63671875 54.5458984375 l 1
176.63671875 227.272460938 m 1
 176.63671875 172.727539062 l 1
 813 172.727539062 l 1
 813 227.272460938 l 1
 176.63671875 227.272460938 l 1
813 345.454101562 m 1
 549.364257812 345.454101562 l 1
 549.364257812 400 l 1
 813 400 l 1
 813 345.454101562 l 1
176.63671875 400 m 1
 440.272460938 400 l 1
 440.272460938 345.454101562 l 1
 176.63671875 345.454101562 l 1
 176.63671875 400 l 1
EndSplineSet
Validated: 524289
Comment: "Fog, sky discernible, no+AAoA-appreciable change during+AAoA-past hour"
EndChar

StartChar: uF00A1
Encoding: 983201 983201 50
Width: 1000
Flags: HW
LayerCount: 2
Fore
SplineSet
182.63671875 72.5458984375 m 1
 819 72.5458984375 l 1
 819 18 l 1
 182.63671875 18 l 1
 182.63671875 72.5458984375 l 1
182.63671875 245.272460938 m 1
 182.63671875 190.727539062 l 1
 819 190.727539062 l 1
 819 245.272460938 l 1
 182.63671875 245.272460938 l 1
182.63671875 418 m 1
 819 418 l 1
 819 363.454101562 l 1
 182.63671875 363.454101562 l 1
 182.63671875 418 l 1
EndSplineSet
Validated: 524289
Comment: "Fog, sky NOT discernible, no+AAoA-appreciable change during+AAoA-past hour"
EndChar

StartChar: uF00A2
Encoding: 983202 983202 51
Width: 1000
Flags: H
LayerCount: 2
Fore
SplineSet
176.272460938 400 m 1
 176.272460938 0 l 1
 121.7265625 0 l 1
 121.7265625 400 l 1
 176.272460938 400 l 1
230.817382812 54.5458984375 m 1
 230.817382812 0 l 1
 849 0 l 1
 849 54.5458984375 l 1
 230.817382812 54.5458984375 l 1
230.817382812 227.272460938 m 1
 230.817382812 172.727539062 l 1
 849 172.727539062 l 1
 849 227.272460938 l 1
 230.817382812 227.272460938 l 1
849 345.454101562 m 1
 849 400 l 1
 594.454101562 400 l 1
 594.454101562 345.454101562 l 1
 849 345.454101562 l 1
230.817382812 400 m 1
 485.36328125 400 l 1
 485.36328125 345.454101562 l 1
 230.817382812 345.454101562 l 1
 230.817382812 400 l 1
EndSplineSet
Validated: 524297
Comment: "Fog, sky discernible, has+AAoA-begun or become thicker+AAoA-during past hour"
EndChar

StartChar: uF00A3
Encoding: 983203 983203 52
Width: 1000
Flags: HW
LayerCount: 2
Fore
SplineSet
192.272460938 400 m 1
 192.272460938 0 l 1
 137.7265625 0 l 1
 137.7265625 400 l 1
 192.272460938 400 l 1
246.817382812 54.5458984375 m 1
 865 54.5458984375 l 1
 865 0 l 1
 246.817382812 0 l 1
 246.817382812 54.5458984375 l 1
246.817382812 227.272460938 m 1
 246.817382812 172.727539062 l 1
 865 172.727539062 l 1
 865 227.272460938 l 1
 246.817382812 227.272460938 l 1
246.817382812 400 m 1
 865 400 l 1
 865 345.454101562 l 1
 246.817382812 345.454101562 l 1
 246.817382812 400 l 1
EndSplineSet
Validated: 524289
Comment: "Fog, sky NOT discernible,+AAoA-has begun or become+AAoA-thicker during past hour"
EndChar

StartChar: uF00A4
Encoding: 983204 983204 53
Width: 1000
Flags: H
LayerCount: 2
Fore
SplineSet
190.63671875 70.5458984375 m 1
 482.869140625 70.5458984375 l 1
 423.778320312 188.727539062 l 1
 190.63671875 188.727539062 l 1
 190.63671875 243.272460938 l 1
 396.505859375 243.272460938 l 1
 337.415039062 361.454101562 l 1
 190.63671875 361.454101562 l 1
 190.63671875 416 l 1
 250.801757812 416 310.965820312 416 371.130859375 416 c 1
 399.918945312 358.423828125 428.70703125 300.848632812 457.495117188 243.272460938 c 1
 560.141601562 243.272460938 l 1
 588.9296875 300.848632812 617.717773438 358.423828125 646.505859375 416 c 1
 706.670898438 416 766.834960938 416 827 416 c 1
 827 361.454101562 l 1
 680.221679688 361.454101562 l 1
 621.130859375 243.272460938 l 1
 827 243.272460938 l 1
 827 188.727539062 l 1
 593.858398438 188.727539062 l 1
 534.767578125 70.5458984375 l 1
 827 70.5458984375 l 1
 827 16 l 1
 190.63671875 16 l 1
 190.63671875 70.5458984375 l 1
EndSplineSet
Validated: 524289
Comment: "Fog, depositing rime, sky+AAoA-discernible"
EndChar

StartChar: uF00A5
Encoding: 983205 983205 54
Width: 1000
Flags: HW
LayerCount: 2
Fore
SplineSet
184.63671875 412 m 1
 348.272460938 412 l 1
 365.140625 412 l 1
 640.49609375 412 l 1
 657.364257812 412 l 1
 821 412 l 1
 821 357.454101562 l 1
 674.231445312 357.454101562 l 1
 615.140625 239.272460938 l 1
 821 239.272460938 l 1
 821 184.727539062 l 1
 587.868164062 184.727539062 l 1
 528.77734375 66.5458984375 l 1
 821 66.5458984375 l 1
 821 12 l 1
 184.63671875 12 l 1
 184.63671875 66.5458984375 l 1
 476.859375 66.5458984375 l 1
 417.768554688 184.727539062 l 1
 184.63671875 184.727539062 l 1
 184.63671875 239.272460938 l 1
 390.49609375 239.272460938 l 1
 331.405273438 357.454101562 l 1
 184.63671875 357.454101562 l 1
 184.63671875 412 l 1
392.413085938 357.454101562 m 1
 451.504882812 239.272460938 l 1
 554.131835938 239.272460938 l 1
 613.223632812 357.454101562 l 1
 392.413085938 357.454101562 l 1
EndSplineSet
Validated: 524289
Comment: "Fog, depositing rime, kky+AAoA-NOT dicernible"
EndChar

StartChar: uF00C3
Encoding: 983235 983235 55
Width: 1000
Flags: HW
LayerCount: 2
Fore
SplineSet
461.219726562 7.5517578125 m 0
 450.447265625 13.306640625 446.013671875 21.322265625 446.013671875 35.03125 c 0
 446.013671875 49.48046875 447.994140625 52.599609375 466.7578125 67.69921875 c 0
 486.302726042 83.4306677901 504.627783382 103.16780381 504.627783382 108.111623811 c 0
 504.627783382 108.485117426 504.523194287 108.774179134 504.306640625 108.970703125 c 0
 503.583984375 109.625976562 495.604492188 110.942382812 486.575195312 111.895507812 c 0
 430.380859375 117.825195312 385.926757812 155.080078125 370.418945312 209.235351562 c 0
 368.006347656 217.662597656 366.800048828 231.409912109 366.800048828 245.157470703 c 0
 366.800048828 258.905029297 368.006347656 272.652832031 370.418945312 281.081054688 c 0
 388.21083249 343.213415746 442.843689997 379.00851755 498.755289227 379.00851755 c 0
 531.660153235 379.00851755 565.007910642 366.610850367 591.549804688 339.887695312 c 0
 617.323849889 313.937853971 629.842920657 282.933116752 629.842920657 245.040449458 c 0
 629.842920657 244.833162111 629.842546023 244.625668641 629.841796875 244.41796875 c 0
 629.75 219.352539062 626.974609375 207.208984375 616.318359375 185.266601562 c 0
 612.368164062 177.1328125 606.71484375 163.822265625 603.754882812 155.689453125 c 0
 585.295898438 104.963867188 555.46484375 61.8603515625 514 26 c 0
 496.074034889 10.4971392625 484.890627046 3.75149183784 474.695112688 3.75149183784 c 0
 470.176266834 3.75149183784 465.851485837 5.07662771067 461.219726562 7.5517578125 c 0
EndSplineSet
Comment: "intemittent drizzle (NOT+AAoA-freezing) slight at time of+AAoA-observatiion"
EndChar

StartChar: uF00C4
Encoding: 983236 983236 56
Width: 1000
Flags: HW
LayerCount: 2
Fore
SplineSet
621.219726562 7.5517578125 m 0
 610.447265625 13.306640625 606.013671875 21.322265625 606.013671875 35.03125 c 0
 606.013671875 49.48046875 607.994140625 52.599609375 626.7578125 67.69921875 c 0
 646.302726042 83.4306677901 664.627783382 103.16780381 664.627783382 108.111623811 c 0
 664.627783382 108.485117426 664.523194287 108.774179134 664.306640625 108.970703125 c 0
 663.583984375 109.625976562 655.604492188 110.942382812 646.575195312 111.895507812 c 0
 590.380859375 117.825195312 545.926757812 155.080078125 530.418945312 209.235351562 c 0
 528.006347656 217.662597656 526.800048828 231.409912109 526.800048828 245.157470703 c 0
 526.800048828 258.905029297 528.006347656 272.652832031 530.418945312 281.081054688 c 0
 548.21083249 343.213415746 602.843689997 379.00851755 658.755289227 379.00851755 c 0
 691.660153235 379.00851755 725.007910642 366.610850367 751.549804688 339.887695312 c 0
 777.323849889 313.937853971 789.842920657 282.933116752 789.842920657 245.040449458 c 0
 789.842920657 244.833162111 789.842546023 244.625668641 789.841796875 244.41796875 c 0
 789.75 219.352539062 786.974609375 207.208984375 776.318359375 185.266601562 c 0
 772.368164062 177.1328125 766.71484375 163.822265625 763.754882812 155.689453125 c 0
 745.295898438 104.963867188 715.46484375 61.8603515625 674 26 c 0
 656.074034889 10.4971392625 644.890627046 3.75149183784 634.695112688 3.75149183784 c 0
 630.176266834 3.75149183784 625.851485837 5.07662771067 621.219726562 7.5517578125 c 0
311.219726562 7.5517578125 m 0
 300.447265625 13.306640625 296.013671875 21.322265625 296.013671875 35.03125 c 0
 296.013671875 49.48046875 297.994140625 52.599609375 316.7578125 67.69921875 c 0
 336.302726042 83.4306677901 354.627783382 103.16780381 354.627783382 108.111623811 c 0
 354.627783382 108.485117426 354.523194287 108.774179134 354.306640625 108.970703125 c 0
 353.583984375 109.625976562 345.604492188 110.942382812 336.575195312 111.895507812 c 0
 280.380859375 117.825195312 235.926757812 155.080078125 220.418945312 209.235351562 c 0
 218.006347656 217.662597656 216.800048828 231.409912109 216.800048828 245.157470703 c 0
 216.800048828 258.905029297 218.006347656 272.652832031 220.418945312 281.081054688 c 0
 238.21083249 343.213415746 292.843689997 379.00851755 348.755289227 379.00851755 c 0
 381.660153235 379.00851755 415.007910642 366.610850367 441.549804688 339.887695312 c 0
 467.323849889 313.937853971 479.842920657 282.933116752 479.842920657 245.040449458 c 0
 479.842920657 244.833162111 479.842546023 244.625668641 479.841796875 244.41796875 c 0
 479.75 219.352539062 476.974609375 207.208984375 466.318359375 185.266601562 c 0
 462.368164062 177.1328125 456.71484375 163.822265625 453.754882812 155.689453125 c 0
 435.295898438 104.963867188 405.46484375 61.8603515625 364 26 c 0
 346.074034889 10.4971392625 334.890627046 3.75149183784 324.695112688 3.75149183784 c 0
 320.176266834 3.75149183784 315.851485837 5.07662771067 311.219726562 7.5517578125 c 0
EndSplineSet
Comment: "Continuous drizzle (NOT+AAoA-freezing) slight at time of+AAoA-observation"
EndChar

StartChar: uF00C5
Encoding: 983237 983237 57
Width: 1000
Flags: HW
LayerCount: 2
Fore
SplineSet
461.219726562 417.551757812 m 0
 450.447265625 423.306640625 446.013671875 431.322265625 446.013671875 445.03125 c 0
 446.013671875 459.48046875 447.994140625 462.599609375 466.7578125 477.69921875 c 0
 486.302726042 493.43066779 504.627783382 513.16780381 504.627783382 518.111623811 c 0
 504.627783382 518.485117426 504.523194287 518.774179134 504.306640625 518.970703125 c 0
 503.583984375 519.625976562 495.604492188 520.942382812 486.575195312 521.895507812 c 0
 430.380859375 527.825195312 385.926757812 565.080078125 370.418945312 619.235351562 c 0
 368.006347656 627.662597656 366.800048828 641.409912109 366.800048828 655.157470703 c 0
 366.800048828 668.905029297 368.006347656 682.652832031 370.418945312 691.081054688 c 0
 388.21083249 753.213415746 442.843689997 789.00851755 498.755289227 789.00851755 c 0
 531.660153235 789.00851755 565.007910642 776.610850367 591.549804688 749.887695312 c 0
 617.323849889 723.937853971 629.842920657 692.933116752 629.842920657 655.040449458 c 0
 629.842920657 654.833162111 629.842546023 654.625668641 629.841796875 654.41796875 c 0
 629.75 629.352539062 626.974609375 617.208984375 616.318359375 595.266601562 c 0
 612.368164062 587.1328125 606.71484375 573.822265625 603.754882812 565.689453125 c 0
 585.295898438 514.963867188 555.46484375 471.860351562 514 436 c 0
 496.074034889 420.497139262 484.890627046 413.751491838 474.695112688 413.751491838 c 0
 470.176266834 413.751491838 465.851485836 415.07662771 461.219726562 417.551757812 c 0
461.219726562 7.5517578125 m 0
 450.447265625 13.306640625 446.013671875 21.322265625 446.013671875 35.03125 c 0
 446.013671875 49.48046875 447.994140625 52.599609375 466.7578125 67.69921875 c 0
 486.302726042 83.4306677901 504.627783382 103.16780381 504.627783382 108.111623811 c 0
 504.627783382 108.485117426 504.523194287 108.774179134 504.306640625 108.970703125 c 0
 503.583984375 109.625976562 495.604492188 110.942382812 486.575195312 111.895507812 c 0
 430.380859375 117.825195312 385.926757812 155.080078125 370.418945312 209.235351562 c 0
 368.006347656 217.662597656 366.800048828 231.409912109 366.800048828 245.157470703 c 0
 366.800048828 258.905029297 368.006347656 272.652832031 370.418945312 281.081054688 c 0
 388.21083249 343.213415746 442.843689997 379.00851755 498.755289227 379.00851755 c 0
 531.660153235 379.00851755 565.007910642 366.610850367 591.549804688 339.887695312 c 0
 617.323849889 313.937853971 629.842920657 282.933116752 629.842920657 245.040449458 c 0
 629.842920657 244.833162111 629.842546023 244.625668641 629.841796875 244.41796875 c 0
 629.75 219.352539062 626.974609375 207.208984375 616.318359375 185.266601562 c 0
 612.368164062 177.1328125 606.71484375 163.822265625 603.754882812 155.689453125 c 0
 585.295898438 104.963867188 555.46484375 61.8603515625 514 26 c 0
 496.074034889 10.4971392625 484.890627046 3.75149183784 474.695112688 3.75149183784 c 0
 470.176266834 3.75149183784 465.851485837 5.07662771067 461.219726562 7.5517578125 c 0
EndSplineSet
Comment: "Intermittent drizzle (NOT+AAoA-freezing) moderate at time+AAoA-of observation"
EndChar

StartChar: uF00C6
Encoding: 983238 983238 58
Width: 1000
Flags: HW
LayerCount: 2
Fore
SplineSet
479.219726562 347.551757812 m 0
 468.447265625 353.306640625 464.013671875 361.322265625 464.013671875 375.03125 c 0
 464.013671875 389.48046875 465.994140625 392.599609375 484.7578125 407.69921875 c 0
 504.302726042 423.43066779 522.627783382 443.16780381 522.627783382 448.111623811 c 0
 522.627783382 448.485117426 522.523194287 448.774179134 522.306640625 448.970703125 c 0
 521.583984375 449.625976562 513.604492188 450.942382812 504.575195312 451.895507812 c 0
 448.380859375 457.825195312 403.926757812 495.080078125 388.418945312 549.235351562 c 0
 386.006347656 557.662597656 384.800048828 571.409912109 384.800048828 585.157470703 c 0
 384.800048828 598.905029297 386.006347656 612.652832031 388.418945312 621.081054688 c 0
 406.21083249 683.213415746 460.843689997 719.00851755 516.755289227 719.00851755 c 0
 549.660153235 719.00851755 583.007910642 706.610850367 609.549804688 679.887695312 c 0
 635.323849889 653.937853971 647.842920657 622.933116752 647.842920657 585.040449458 c 0
 647.842920657 584.833162111 647.842546023 584.625668641 647.841796875 584.41796875 c 0
 647.75 559.352539062 644.974609375 547.208984375 634.318359375 525.266601562 c 0
 630.368164062 517.1328125 624.71484375 503.822265625 621.754882812 495.689453125 c 0
 603.295898438 444.963867188 573.46484375 401.860351562 532 366 c 0
 514.074034889 350.497139262 502.890627046 343.751491838 492.695112688 343.751491838 c 0
 488.176266834 343.751491838 483.851485836 345.07662771 479.219726562 347.551757812 c 0
621.219726562 7.5517578125 m 0
 610.447265625 13.306640625 606.013671875 21.322265625 606.013671875 35.03125 c 0
 606.013671875 49.48046875 607.994140625 52.599609375 626.7578125 67.69921875 c 0
 646.302726042 83.4306677901 664.627783382 103.16780381 664.627783382 108.111623811 c 0
 664.627783382 108.485117426 664.523194287 108.774179134 664.306640625 108.970703125 c 0
 663.583984375 109.625976562 655.604492188 110.942382812 646.575195312 111.895507812 c 0
 590.380859375 117.825195312 545.926757812 155.080078125 530.418945312 209.235351562 c 0
 528.006347656 217.662597656 526.800048828 231.409912109 526.800048828 245.157470703 c 0
 526.800048828 258.905029297 528.006347656 272.652832031 530.418945312 281.081054688 c 0
 548.21083249 343.213415746 602.843689997 379.00851755 658.755289227 379.00851755 c 0
 691.660153235 379.00851755 725.007910642 366.610850367 751.549804688 339.887695312 c 0
 777.323849889 313.937853971 789.842920657 282.933116752 789.842920657 245.040449458 c 0
 789.842920657 244.833162111 789.842546023 244.625668641 789.841796875 244.41796875 c 0
 789.75 219.352539062 786.974609375 207.208984375 776.318359375 185.266601562 c 0
 772.368164062 177.1328125 766.71484375 163.822265625 763.754882812 155.689453125 c 0
 745.295898438 104.963867188 715.46484375 61.8603515625 674 26 c 0
 656.074034889 10.4971392625 644.890627046 3.75149183784 634.695112688 3.75149183784 c 0
 630.176266834 3.75149183784 625.851485837 5.07662771067 621.219726562 7.5517578125 c 0
311.219726562 7.5517578125 m 0
 300.447265625 13.306640625 296.013671875 21.322265625 296.013671875 35.03125 c 0
 296.013671875 49.48046875 297.994140625 52.599609375 316.7578125 67.69921875 c 0
 336.302726042 83.4306677901 354.627783382 103.16780381 354.627783382 108.111623811 c 0
 354.627783382 108.485117426 354.523194287 108.774179134 354.306640625 108.970703125 c 0
 353.583984375 109.625976562 345.604492188 110.942382812 336.575195312 111.895507812 c 0
 280.380859375 117.825195312 235.926757812 155.080078125 220.418945312 209.235351562 c 0
 218.006347656 217.662597656 216.800048828 231.409912109 216.800048828 245.157470703 c 0
 216.800048828 258.905029297 218.006347656 272.652832031 220.418945312 281.081054688 c 0
 238.21083249 343.213415746 292.843689997 379.00851755 348.755289227 379.00851755 c 0
 381.660153235 379.00851755 415.007910642 366.610850367 441.549804688 339.887695312 c 0
 467.323849889 313.937853971 479.842920657 282.933116752 479.842920657 245.040449458 c 0
 479.842920657 244.833162111 479.842546023 244.625668641 479.841796875 244.41796875 c 0
 479.75 219.352539062 476.974609375 207.208984375 466.318359375 185.266601562 c 0
 462.368164062 177.1328125 456.71484375 163.822265625 453.754882812 155.689453125 c 0
 435.295898438 104.963867188 405.46484375 61.8603515625 364 26 c 0
 346.074034889 10.4971392625 334.890627046 3.75149183784 324.695112688 3.75149183784 c 0
 320.176266834 3.75149183784 315.851485837 5.07662771067 311.219726562 7.5517578125 c 0
EndSplineSet
Comment: "Continuous drizzle (NOT+AAoA-freezing), moderate at time+AAoA-of observation"
EndChar

StartChar: uF00C7
Encoding: 983239 983239 59
Width: 1000
Flags: HW
LayerCount: 2
Fore
SplineSet
477.793945312 520.0390625 m 0
 470.645507812 523.584960938 467.703125 528.524414062 467.703125 536.971679688 c 0
 467.703125 545.875 469.017578125 547.797851562 481.46875 557.1015625 c 0
 494.439016241 566.794986539 506.598865597 578.957649531 506.598865597 582.003868722 c 0
 506.598865597 582.23401656 506.529455972 582.412126834 506.385742188 582.533203125 c 0
 505.907226562 582.9375 500.611328125 583.748046875 494.620117188 584.334960938 c 0
 457.329101562 587.989257812 427.829101562 610.946289062 417.5390625 644.31640625 c 0
 415.9375 649.509277344 415.13671875 657.98046875 415.13671875 666.451660156 c 0
 415.13671875 674.922851562 415.9375 683.394042969 417.5390625 688.586914062 c 0
 429.34563276 726.873276086 465.599823628 748.930498627 502.702795645 748.930498627 c 0
 524.53835335 748.930498627 546.667883689 741.291050175 564.28125 724.82421875 c 0
 581.385502094 708.833054271 589.692143109 689.728383641 589.692143109 666.377420748 c 0
 589.692143109 666.250437382 589.691897463 666.123328443 589.69140625 665.99609375 c 0
 589.630859375 650.55078125 587.7890625 643.067382812 580.716796875 629.546875 c 0
 578.096679688 624.53515625 574.344726562 616.33203125 572.379882812 611.321289062 c 0
 560.130859375 580.064453125 540.334960938 553.50390625 512.818359375 531.40625 c 0
 500.923063231 521.853474632 493.502253185 517.697368322 486.736789094 517.697368322 c 0
 483.737950162 517.697368322 480.867871452 518.513946448 477.793945312 520.0390625 c 0
477.793945312 267.396484375 m 0
 470.645507812 270.942382812 467.703125 275.8828125 467.703125 284.329101562 c 0
 467.703125 293.233398438 469.017578125 295.155273438 481.46875 304.459960938 c 0
 494.439016241 314.153384977 506.598865597 326.315203786 506.598865597 329.361304376 c 0
 506.598865597 329.591443254 506.529455972 329.76954871 506.385742188 329.890625 c 0
 505.907226562 330.294921875 500.611328125 331.106445312 494.620117188 331.693359375 c 0
 457.329101562 335.346679688 427.829101562 358.303710938 417.5390625 391.674804688 c 0
 415.9375 396.867675781 415.13671875 405.338623047 415.13671875 413.809692383 c 0
 415.13671875 422.280761719 415.9375 430.751953125 417.5390625 435.9453125 c 0
 429.345621719 474.231023957 465.599755825 496.288400296 502.702691561 496.288400296 c 0
 524.538283026 496.288400296 546.667855703 488.648860012 564.28125 472.181640625 c 0
 581.385502094 456.191447427 589.692143109 437.084849996 589.692143109 413.735787837 c 0
 589.692143109 413.608814807 589.691897463 413.481716317 589.69140625 413.354492188 c 0
 589.630859375 397.908203125 587.7890625 390.42578125 580.716796875 376.904296875 c 0
 578.096679688 371.892578125 574.344726562 363.690429688 572.379882812 358.678710938 c 0
 560.130859375 327.421875 540.334960938 300.861328125 512.818359375 278.764648438 c 0
 500.922703934 269.211584529 493.501804899 265.054577984 486.736176045 265.054577984 c 0
 483.737559009 265.054577984 480.867661985 265.871172345 477.793945312 267.396484375 c 0
477.793945312 14.7548828125 m 0
 470.645507812 18.30078125 467.703125 23.240234375 467.703125 31.6875 c 0
 467.703125 40.591796875 469.017578125 42.5126953125 481.46875 51.818359375 c 0
 494.439016241 61.5117834141 506.598865597 73.6736022226 506.598865597 76.7197028135 c 0
 506.598865597 76.9498416916 506.529455972 77.127947147 506.385742188 77.2490234375 c 0
 505.907226562 77.65234375 500.611328125 78.4638671875 494.620117188 79.0517578125 c 0
 457.329101562 82.705078125 427.829101562 105.661132812 417.5390625 139.032226562 c 0
 415.9375 144.225097656 415.13671875 152.696044922 415.13671875 161.167236328 c 0
 415.13671875 169.638427734 415.9375 178.109863281 417.5390625 183.303710938 c 0
 429.345610177 221.589384964 465.599684936 243.646368599 502.702582737 243.646368599 c 0
 524.5382095 243.646368599 546.667826443 236.006924007 564.28125 219.540039062 c 0
 581.385502094 203.549845864 589.692143109 184.443248433 589.692143109 161.093225471 c 0
 589.692143109 160.966247216 589.691897463 160.839143473 589.69140625 160.711914062 c 0
 589.630859375 145.266601562 587.7890625 137.784179688 580.716796875 124.262695312 c 0
 578.096679688 119.25 574.344726562 111.048828125 572.379882812 106.037109375 c 0
 560.130859375 74.7802734375 540.334960938 48.2197265625 512.818359375 26.123046875 c 0
 500.922703934 16.5699829665 493.501804899 12.4129764211 486.736176044 12.4129764211 c 0
 483.737559008 12.4129764211 480.867661985 13.2295707823 477.793945312 14.7548828125 c 0
EndSplineSet
Comment: "Intermittent drizzle (NOT+AAoA-freezing), heavy at time of+AAoA-observation"
EndChar

StartChar: uF00C8
Encoding: 983240 983240 60
Width: 1000
Flags: HW
LayerCount: 2
Fore
SplineSet
337.793945312 267.396484375 m 0
 330.645507812 270.942382812 327.703125 275.8828125 327.703125 284.329101562 c 0
 327.703125 293.233398438 329.017578125 295.155273438 341.46875 304.459960938 c 0
 354.439016241 314.153384977 366.598865597 326.315203786 366.598865597 329.361304376 c 0
 366.598865597 329.591443254 366.529455972 329.76954871 366.385742188 329.890625 c 0
 365.907226562 330.294921875 360.611328125 331.106445312 354.620117188 331.693359375 c 0
 317.329101562 335.346679688 287.829101562 358.303710938 277.5390625 391.674804688 c 0
 275.9375 396.867675781 275.13671875 405.338623047 275.13671875 413.809692383 c 0
 275.13671875 422.280761719 275.9375 430.751953125 277.5390625 435.9453125 c 0
 289.345621719 474.231023957 325.599755825 496.288400296 362.702691561 496.288400296 c 0
 384.538283026 496.288400296 406.667855703 488.648860012 424.28125 472.181640625 c 0
 441.385502094 456.191447427 449.692143109 437.084849996 449.692143109 413.735787837 c 0
 449.692143109 413.608814807 449.691897463 413.481716317 449.69140625 413.354492188 c 0
 449.630859375 397.908203125 447.7890625 390.42578125 440.716796875 376.904296875 c 0
 438.096679688 371.892578125 434.344726562 363.690429688 432.379882812 358.678710938 c 0
 420.130859375 327.421875 400.334960938 300.861328125 372.818359375 278.764648438 c 0
 360.922703934 269.211584529 353.501804899 265.054577984 346.736176045 265.054577984 c 0
 343.737559009 265.054577984 340.867661985 265.871172345 337.793945312 267.396484375 c 0
477.793945312 520.0390625 m 0
 470.645507812 523.584960938 467.703125 528.524414062 467.703125 536.971679688 c 0
 467.703125 545.875 469.017578125 547.797851562 481.46875 557.1015625 c 0
 494.439016241 566.794986539 506.598865597 578.957649531 506.598865597 582.003868722 c 0
 506.598865597 582.23401656 506.529455972 582.412126834 506.385742188 582.533203125 c 0
 505.907226562 582.9375 500.611328125 583.748046875 494.620117188 584.334960938 c 0
 457.329101562 587.989257812 427.829101562 610.946289062 417.5390625 644.31640625 c 0
 415.9375 649.509277344 415.13671875 657.98046875 415.13671875 666.451660156 c 0
 415.13671875 674.922851562 415.9375 683.394042969 417.5390625 688.586914062 c 0
 429.34563276 726.873276086 465.599823628 748.930498627 502.702795645 748.930498627 c 0
 524.53835335 748.930498627 546.667883689 741.291050175 564.28125 724.82421875 c 0
 581.385502094 708.833054271 589.692143109 689.728383641 589.692143109 666.377420748 c 0
 589.692143109 666.250437382 589.691897463 666.123328443 589.69140625 665.99609375 c 0
 589.630859375 650.55078125 587.7890625 643.067382812 580.716796875 629.546875 c 0
 578.096679688 624.53515625 574.344726562 616.33203125 572.379882812 611.321289062 c 0
 560.130859375 580.064453125 540.334960938 553.50390625 512.818359375 531.40625 c 0
 500.923063231 521.853474632 493.502253185 517.697368322 486.736789094 517.697368322 c 0
 483.737950162 517.697368322 480.867871452 518.513946448 477.793945312 520.0390625 c 0
607.793945312 267.396484375 m 0
 600.645507812 270.942382812 597.703125 275.8828125 597.703125 284.329101562 c 0
 597.703125 293.233398438 599.017578125 295.155273438 611.46875 304.459960938 c 0
 624.439016241 314.153384977 636.598865597 326.315203786 636.598865597 329.361304376 c 0
 636.598865597 329.591443254 636.529455972 329.76954871 636.385742188 329.890625 c 0
 635.907226562 330.294921875 630.611328125 331.106445312 624.620117188 331.693359375 c 0
 587.329101562 335.346679688 557.829101562 358.303710938 547.5390625 391.674804688 c 0
 545.9375 396.867675781 545.13671875 405.338623047 545.13671875 413.809692383 c 0
 545.13671875 422.280761719 545.9375 430.751953125 547.5390625 435.9453125 c 0
 559.345621719 474.231023957 595.599755825 496.288400296 632.702691561 496.288400296 c 0
 654.538283026 496.288400296 676.667855703 488.648860012 694.28125 472.181640625 c 0
 711.385502094 456.191447427 719.692143109 437.084849996 719.692143109 413.735787837 c 0
 719.692143109 413.608814807 719.691897463 413.481716317 719.69140625 413.354492188 c 0
 719.630859375 397.908203125 717.7890625 390.42578125 710.716796875 376.904296875 c 0
 708.096679688 371.892578125 704.344726562 363.690429688 702.379882812 358.678710938 c 0
 690.130859375 327.421875 670.334960938 300.861328125 642.818359375 278.764648438 c 0
 630.922703934 269.211584529 623.501804899 265.054577984 616.736176045 265.054577984 c 0
 613.737559009 265.054577984 610.867661985 265.871172345 607.793945312 267.396484375 c 0
477.793945312 14.7548828125 m 0
 470.645507812 18.30078125 467.703125 23.240234375 467.703125 31.6875 c 0
 467.703125 40.591796875 469.017578125 42.5126953125 481.46875 51.818359375 c 0
 494.439016241 61.5117834141 506.598865597 73.6736022226 506.598865597 76.7197028135 c 0
 506.598865597 76.9498416916 506.529455972 77.127947147 506.385742188 77.2490234375 c 0
 505.907226562 77.65234375 500.611328125 78.4638671875 494.620117188 79.0517578125 c 0
 457.329101562 82.705078125 427.829101562 105.661132812 417.5390625 139.032226562 c 0
 415.9375 144.225097656 415.13671875 152.696044922 415.13671875 161.167236328 c 0
 415.13671875 169.638427734 415.9375 178.109863281 417.5390625 183.303710938 c 0
 429.345610177 221.589384964 465.599684936 243.646368599 502.702582737 243.646368599 c 0
 524.5382095 243.646368599 546.667826443 236.006924007 564.28125 219.540039062 c 0
 581.385502094 203.549845864 589.692143109 184.443248433 589.692143109 161.093225471 c 0
 589.692143109 160.966247216 589.691897463 160.839143473 589.69140625 160.711914062 c 0
 589.630859375 145.266601562 587.7890625 137.784179688 580.716796875 124.262695312 c 0
 578.096679688 119.25 574.344726562 111.048828125 572.379882812 106.037109375 c 0
 560.130859375 74.7802734375 540.334960938 48.2197265625 512.818359375 26.123046875 c 0
 500.922703934 16.5699829665 493.501804899 12.4129764211 486.736176044 12.4129764211 c 0
 483.737559008 12.4129764211 480.867661985 13.2295707823 477.793945312 14.7548828125 c 0
EndSplineSet
Comment: "Continuous drizzle (NOT+AAoA-freeing), thick at time of+AAoA-observation"
EndChar

StartChar: uF00C9
Encoding: 983241 983241 61
Width: 1000
Flags: HW
LayerCount: 2
Fore
SplineSet
335.102539062 106.04296875 m 0
 327.954101562 109.588867188 325.01171875 114.528320312 325.01171875 122.975585938 c 0
 325.01171875 131.87890625 326.326171875 133.801757812 338.77734375 143.10546875 c 0
 351.747609991 152.798892789 363.907459347 164.961555781 363.907459347 168.007774972 c 0
 363.907459347 168.23792281 363.838049722 168.416033084 363.694335938 168.537109375 c 0
 363.215820312 168.94140625 357.919921875 169.751953125 351.928710938 170.338867188 c 0
 314.637695312 173.993164062 285.137695312 196.950195312 274.84765625 230.3203125 c 0
 273.24609375 235.513183594 272.4453125 243.984375 272.4453125 252.455566406 c 0
 272.4453125 260.926757812 273.24609375 269.397949219 274.84765625 274.590820312 c 0
 286.65422651 312.877182336 322.908417378 334.934404877 360.011389395 334.934404877 c 0
 381.8469471 334.934404877 403.976477439 327.294956425 421.58984375 310.828125 c 0
 438.694095844 294.836960521 447.000736859 275.732289891 447.000736859 252.381326998 c 0
 447.000736859 252.254343632 447.000491213 252.127234693 447 252 c 0
 446.939453125 236.5546875 445.09765625 229.071289062 438.025390625 215.55078125 c 0
 435.405273438 210.5390625 431.653320312 202.3359375 429.688476562 197.325195312 c 0
 417.439453125 166.068359375 397.643554688 139.5078125 370.126953125 117.41015625 c 0
 358.231656981 107.857380882 350.810846935 103.701274572 344.045382844 103.701274572 c 0
 341.046543912 103.701274572 338.176465202 104.517852698 335.102539062 106.04296875 c 0
472.947265625 262.6796875 m 0
 472.947265625 325.453125 422.720703125 375.6796875 359.947265625 375.6796875 c 0
 297.174804688 375.6796875 246.947265625 325.453125 246.947265625 262.6796875 c 2
 246.947265625 242.134765625 l 2
 246.947265625 225.125 233.138671875 211.31640625 216.129882812 211.31640625 c 0
 199.12109375 211.31640625 185.311523438 225.125 185.311523438 242.134765625 c 2
 185.311523438 262.6796875 l 2
 185.311523438 358.764648438 263.864257812 437.31640625 359.947265625 437.31640625 c 0
 456.03125 437.31640625 534.583984375 358.764648438 534.583984375 262.6796875 c 0
 534.583984375 199.90625 584.810546875 149.6796875 647.583984375 149.6796875 c 0
 710.357421875 149.6796875 760.583984375 199.90625 760.583984375 262.6796875 c 2
 760.583984375 283.225585938 l 2
 760.583984375 300.234375 774.393554688 314.04296875 791.40234375 314.04296875 c 0
 808.412109375 314.04296875 822.219726562 300.234375 822.219726562 283.225585938 c 2
 822.219726562 262.6796875 l 2
 822.219726562 166.595703125 743.66796875 88.04296875 647.583984375 88.04296875 c 0
 551.5 88.04296875 472.947265625 166.595703125 472.947265625 262.6796875 c 0
EndSplineSet
Comment: "Slight freezing drizzle"
EndChar

StartChar: uF00CA
Encoding: 983242 983242 62
Width: 1000
Flags: HW
LayerCount: 2
Fore
SplineSet
625.102539062 176.04296875 m 0
 617.954101562 179.588867188 615.01171875 184.528320312 615.01171875 192.975585938 c 0
 615.01171875 201.87890625 616.326171875 203.801757812 628.77734375 213.10546875 c 0
 641.747609991 222.798892789 653.907459347 234.961555781 653.907459347 238.007774972 c 0
 653.907459347 238.23792281 653.838049722 238.416033084 653.694335938 238.537109375 c 0
 653.215820312 238.94140625 647.919921875 239.751953125 641.928710938 240.338867188 c 0
 604.637695312 243.993164062 575.137695312 266.950195312 564.84765625 300.3203125 c 0
 563.24609375 305.513183594 562.4453125 313.984375 562.4453125 322.455566406 c 0
 562.4453125 330.926757812 563.24609375 339.397949219 564.84765625 344.590820312 c 0
 576.65422651 382.877182336 612.908417378 404.934404877 650.011389395 404.934404877 c 0
 671.8469471 404.934404877 693.976477439 397.294956425 711.58984375 380.828125 c 0
 728.694095844 364.836960521 737.000736859 345.732289891 737.000736859 322.381326998 c 0
 737.000736859 322.254343632 737.000491213 322.127234693 737 322 c 0
 736.939453125 306.5546875 735.09765625 299.071289062 728.025390625 285.55078125 c 0
 725.405273438 280.5390625 721.653320312 272.3359375 719.688476562 267.325195312 c 0
 707.439453125 236.068359375 687.643554688 209.5078125 660.126953125 187.41015625 c 0
 648.231656981 177.857380882 640.810846935 173.701274572 634.045382844 173.701274572 c 0
 631.046543912 173.701274572 628.176465202 174.517852698 625.102539062 176.04296875 c 0
335.102539062 106.04296875 m 0
 327.954101562 109.588867188 325.01171875 114.528320312 325.01171875 122.975585938 c 0
 325.01171875 131.87890625 326.326171875 133.801757812 338.77734375 143.10546875 c 0
 351.747609991 152.798892789 363.907459347 164.961555781 363.907459347 168.007774972 c 0
 363.907459347 168.23792281 363.838049722 168.416033084 363.694335938 168.537109375 c 0
 363.215820312 168.94140625 357.919921875 169.751953125 351.928710938 170.338867188 c 0
 314.637695312 173.993164062 285.137695312 196.950195312 274.84765625 230.3203125 c 0
 273.24609375 235.513183594 272.4453125 243.984375 272.4453125 252.455566406 c 0
 272.4453125 260.926757812 273.24609375 269.397949219 274.84765625 274.590820312 c 0
 286.65422651 312.877182336 322.908417378 334.934404877 360.011389395 334.934404877 c 0
 381.8469471 334.934404877 403.976477439 327.294956425 421.58984375 310.828125 c 0
 438.694095844 294.836960521 447.000736859 275.732289891 447.000736859 252.381326998 c 0
 447.000736859 252.254343632 447.000491213 252.127234693 447 252 c 0
 446.939453125 236.5546875 445.09765625 229.071289062 438.025390625 215.55078125 c 0
 435.405273438 210.5390625 431.653320312 202.3359375 429.688476562 197.325195312 c 0
 417.439453125 166.068359375 397.643554688 139.5078125 370.126953125 117.41015625 c 0
 358.231656981 107.857380882 350.810846935 103.701274572 344.045382844 103.701274572 c 0
 341.046543912 103.701274572 338.176465202 104.517852698 335.102539062 106.04296875 c 0
472.947265625 262.6796875 m 0
 472.947265625 325.453125 422.720703125 375.6796875 359.947265625 375.6796875 c 0
 297.174804688 375.6796875 246.947265625 325.453125 246.947265625 262.6796875 c 2
 246.947265625 242.134765625 l 2
 246.947265625 225.125 233.138671875 211.31640625 216.129882812 211.31640625 c 0
 199.12109375 211.31640625 185.311523438 225.125 185.311523438 242.134765625 c 2
 185.311523438 262.6796875 l 2
 185.311523438 358.764648438 263.864257812 437.31640625 359.947265625 437.31640625 c 0
 456.03125 437.31640625 534.583984375 358.764648438 534.583984375 262.6796875 c 0
 534.583984375 199.90625 584.810546875 149.6796875 647.583984375 149.6796875 c 0
 710.357421875 149.6796875 760.583984375 199.90625 760.583984375 262.6796875 c 2
 760.583984375 283.225585938 l 2
 760.583984375 300.234375 774.393554688 314.04296875 791.40234375 314.04296875 c 0
 808.412109375 314.04296875 822.219726562 300.234375 822.219726562 283.225585938 c 2
 822.219726562 262.6796875 l 2
 822.219726562 166.595703125 743.66796875 88.04296875 647.583984375 88.04296875 c 0
 551.5 88.04296875 472.947265625 166.595703125 472.947265625 262.6796875 c 0
EndSplineSet
Comment: "Moderate or thick freezing drizzle"
EndChar

StartChar: uF00CB
Encoding: 983243 983243 63
Width: 1000
Flags: HW
LayerCount: 2
Fore
SplineSet
500 720.36328125 m 0
 567.358398438 720.36328125 622.181640625 665.540039062 622.181640625 598.181640625 c 0
 622.181640625 530.822265625 567.358398438 476 500 476 c 0
 432.640625 476 377.817382812 530.822265625 377.817382812 598.181640625 c 0
 377.817382812 665.540039062 432.640625 720.36328125 500 720.36328125 c 0
461.219726562 7.5517578125 m 0
 450.447265625 13.306640625 446.013671875 21.322265625 446.013671875 35.03125 c 0
 446.013671875 49.48046875 447.994140625 52.599609375 466.7578125 67.69921875 c 0
 486.302726042 83.4306677901 504.627783382 103.16780381 504.627783382 108.111623811 c 0
 504.627783382 108.485117426 504.523194287 108.774179134 504.306640625 108.970703125 c 0
 503.583984375 109.625976562 495.604492188 110.942382812 486.575195312 111.895507812 c 0
 430.380859375 117.825195312 385.926757812 155.080078125 370.418945312 209.235351562 c 0
 368.006347656 217.662597656 366.800048828 231.409912109 366.800048828 245.157470703 c 0
 366.800048828 258.905029297 368.006347656 272.652832031 370.418945312 281.081054688 c 0
 388.21083249 343.213415746 442.843689997 379.00851755 498.755289227 379.00851755 c 0
 531.660153235 379.00851755 565.007910642 366.610850367 591.549804688 339.887695312 c 0
 617.323849889 313.937853971 629.842920657 282.933116752 629.842920657 245.040449458 c 0
 629.842920657 244.833162111 629.842546023 244.625668641 629.841796875 244.41796875 c 0
 629.75 219.352539062 626.974609375 207.208984375 616.318359375 185.266601562 c 0
 612.368164062 177.1328125 606.71484375 163.822265625 603.754882812 155.689453125 c 0
 585.295898438 104.963867188 555.46484375 61.8603515625 514 26 c 0
 496.074034889 10.4971392625 484.890627046 3.75149183784 474.695112688 3.75149183784 c 0
 470.176266834 3.75149183784 465.851485837 5.07662771067 461.219726562 7.5517578125 c 0
EndSplineSet
Comment: "Drizzle and rain, slight "
EndChar

StartChar: uF00CC
Encoding: 983244 983244 64
Width: 1000
Flags: HW
LayerCount: 2
Fore
SplineSet
505.544921875 485.181640625 m 0
 565.686523438 485.181640625 614.635742188 436.232421875 614.635742188 376.090820312 c 0
 614.635742188 315.94921875 565.686523438 267 505.544921875 267 c 0
 445.403320312 267 396.454101562 315.94921875 396.454101562 376.090820312 c 0
 396.454101562 436.232421875 445.403320312 485.181640625 505.544921875 485.181640625 c 0
477.793945312 520.0390625 m 0
 470.645507812 523.584960938 467.703125 528.524414062 467.703125 536.971679688 c 0
 467.703125 545.875 469.017578125 547.797851562 481.46875 557.1015625 c 0
 494.439016241 566.794986539 506.598865597 578.957649531 506.598865597 582.003868722 c 0
 506.598865597 582.23401656 506.529455972 582.412126834 506.385742188 582.533203125 c 0
 505.907226562 582.9375 500.611328125 583.748046875 494.620117188 584.334960938 c 0
 457.329101562 587.989257812 427.829101562 610.946289062 417.5390625 644.31640625 c 0
 415.9375 649.509277344 415.13671875 657.98046875 415.13671875 666.451660156 c 0
 415.13671875 674.922851562 415.9375 683.394042969 417.5390625 688.586914062 c 0
 429.34563276 726.873276086 465.599823628 748.930498627 502.702795645 748.930498627 c 0
 524.53835335 748.930498627 546.667883689 741.291050175 564.28125 724.82421875 c 0
 581.385502094 708.833054271 589.692143109 689.728383641 589.692143109 666.377420748 c 0
 589.692143109 666.250437382 589.691897463 666.123328443 589.69140625 665.99609375 c 0
 589.630859375 650.55078125 587.7890625 643.067382812 580.716796875 629.546875 c 0
 578.096679688 624.53515625 574.344726562 616.33203125 572.379882812 611.321289062 c 0
 560.130859375 580.064453125 540.334960938 553.50390625 512.818359375 531.40625 c 0
 500.923063231 521.853474632 493.502253185 517.697368322 486.736789094 517.697368322 c 0
 483.737950162 517.697368322 480.867871452 518.513946448 477.793945312 520.0390625 c 0
477.793945312 14.7548828125 m 0
 470.645507812 18.30078125 467.703125 23.240234375 467.703125 31.6875 c 0
 467.703125 40.591796875 469.017578125 42.5126953125 481.46875 51.818359375 c 0
 494.439016241 61.5117834141 506.598865597 73.6736022226 506.598865597 76.7197028135 c 0
 506.598865597 76.9498416916 506.529455972 77.127947147 506.385742188 77.2490234375 c 0
 505.907226562 77.65234375 500.611328125 78.4638671875 494.620117188 79.0517578125 c 0
 457.329101562 82.705078125 427.829101562 105.661132812 417.5390625 139.032226562 c 0
 415.9375 144.225097656 415.13671875 152.696044922 415.13671875 161.167236328 c 0
 415.13671875 169.638427734 415.9375 178.109863281 417.5390625 183.303710938 c 0
 429.345610177 221.589384964 465.599684936 243.646368599 502.702582737 243.646368599 c 0
 524.5382095 243.646368599 546.667826443 236.006924007 564.28125 219.540039062 c 0
 581.385502094 203.549845864 589.692143109 184.443248433 589.692143109 161.093225471 c 0
 589.692143109 160.966247216 589.691897463 160.839143473 589.69140625 160.711914062 c 0
 589.630859375 145.266601562 587.7890625 137.784179688 580.716796875 124.262695312 c 0
 578.096679688 119.25 574.344726562 111.048828125 572.379882812 106.037109375 c 0
 560.130859375 74.7802734375 540.334960938 48.2197265625 512.818359375 26.123046875 c 0
 500.922703934 16.5699829665 493.501804899 12.4129764211 486.736176044 12.4129764211 c 0
 483.737559008 12.4129764211 480.867661985 13.2295707823 477.793945312 14.7548828125 c 0
EndSplineSet
Comment: "Drizzle and rain, moderate or heavy"
EndChar

StartChar: uF00EA
Encoding: 983274 983274 65
Width: 1000
Flags: HW
LayerCount: 2
Fore
SplineSet
567.818359375 81.818359375 m 0
 567.818359375 127.004882812 531.1875 163.63671875 486 163.63671875 c 0
 440.813476562 163.63671875 404.181640625 127.004882812 404.181640625 81.818359375 c 0
 404.181640625 36.6318359375 440.813476562 0 486 0 c 0
 531.1875 0 567.818359375 36.6318359375 567.818359375 81.818359375 c 0
EndSplineSet
Validated: 524297
Comment: "intemittent rain (NOT freezing)+AAoA-slight at time of observatiion"
EndChar

StartChar: uF00F0
Encoding: 983280 983280 66
Width: 1000
Flags: H
LayerCount: 2
Fore
SplineSet
405.181640625 283.090820312 m 0
 405.181640625 328.27734375 368.55078125 364.909179688 323.36328125 364.909179688 c 0
 278.176757812 364.909179688 241.544921875 328.27734375 241.544921875 283.090820312 c 0
 241.544921875 237.904296875 278.176757812 201.272460938 323.36328125 201.272460938 c 0
 368.55078125 201.272460938 405.181640625 237.904296875 405.181640625 283.090820312 c 0
477.909179688 283.090820312 m 0
 477.909179688 368.766601562 409.040039062 437.63671875 323.36328125 437.63671875 c 0
 237.6875 437.63671875 168.818359375 368.766601562 168.818359375 283.090820312 c 2
 168.818359375 246.727539062 l 2
 168.818359375 231.674804688 156.59765625 219.454101562 141.544921875 219.454101562 c 0
 126.493164062 219.454101562 114.272460938 231.674804688 114.272460938 246.727539062 c 2
 114.272460938 283.090820312 l 2
 114.272460938 398.245117188 208.208984375 492.181640625 323.36328125 492.181640625 c 0
 438.518554688 492.181640625 532.454101562 398.245117188 532.454101562 283.090820312 c 0
 532.454101562 197.415039062 601.323242188 128.544921875 687 128.544921875 c 0
 772.67578125 128.544921875 841.544921875 197.415039062 841.544921875 283.090820312 c 2
 841.544921875 319.454101562 l 2
 841.544921875 334.506835938 853.765625 346.727539062 868.818359375 346.727539062 c 0
 883.870117188 346.727539062 896.090820312 334.506835938 896.090820312 319.454101562 c 2
 896.090820312 283.090820312 l 2
 896.090820312 167.936523438 802.154296875 74 687 74 c 0
 571.844726562 74 477.909179688 167.936523438 477.909179688 283.090820312 c 0
EndSplineSet
Validated: 524297
Comment: "Slight freezing rain "
EndChar

StartChar: uF00EB
Encoding: 983275 983275 67
Width: 1000
Flags: HW
LayerCount: 2
Fore
SplineSet
757.818359375 81.818359375 m 0
 757.818359375 127.004882812 721.1875 163.63671875 676 163.63671875 c 0
 630.813476562 163.63671875 594.181640625 127.004882812 594.181640625 81.818359375 c 0
 594.181640625 36.6318359375 630.813476562 0 676 0 c 0
 721.1875 0 757.818359375 36.6318359375 757.818359375 81.818359375 c 0
567.818359375 81.818359375 m 0
 567.818359375 127.004882812 531.1875 163.63671875 486 163.63671875 c 0
 440.813476562 163.63671875 404.181640625 127.004882812 404.181640625 81.818359375 c 0
 404.181640625 36.6318359375 440.813476562 0 486 0 c 0
 531.1875 0 567.818359375 36.6318359375 567.818359375 81.818359375 c 0
EndSplineSet
Validated: 524297
Comment: "Continuous rain (NOT freezing)+AAoA-slight at time of observation"
EndChar

StartChar: uF00EC
Encoding: 983276 983276 68
Width: 1000
Flags: HW
LayerCount: 2
Fore
SplineSet
567.818359375 271.818359375 m 0
 567.818359375 317.004882812 531.1875 353.63671875 486 353.63671875 c 0
 440.813476562 353.63671875 404.181640625 317.004882812 404.181640625 271.818359375 c 0
 404.181640625 226.631835938 440.813476562 190 486 190 c 0
 531.1875 190 567.818359375 226.631835938 567.818359375 271.818359375 c 0
567.818359375 81.818359375 m 0
 567.818359375 127.004882812 531.1875 163.63671875 486 163.63671875 c 0
 440.813476562 163.63671875 404.181640625 127.004882812 404.181640625 81.818359375 c 0
 404.181640625 36.6318359375 440.813476562 0 486 0 c 0
 531.1875 0 567.818359375 36.6318359375 567.818359375 81.818359375 c 0
EndSplineSet
Validated: 524297
Comment: "Intermittent rain (NOT freezing)+AAoA-moderate at time of observation"
EndChar

StartChar: uF00ED
Encoding: 983277 983277 69
Width: 1000
Flags: HW
LayerCount: 2
Fore
SplineSet
665.818359375 81.818359375 m 0
 665.818359375 127.004882812 629.1875 163.63671875 584 163.63671875 c 0
 538.813476562 163.63671875 502.181640625 127.004882812 502.181640625 81.818359375 c 0
 502.181640625 36.6318359375 538.813476562 0 584 0 c 0
 629.1875 0 665.818359375 36.6318359375 665.818359375 81.818359375 c 0
567.818359375 271.818359375 m 0
 567.818359375 317.004882812 531.1875 353.63671875 486 353.63671875 c 0
 440.813476562 353.63671875 404.181640625 317.004882812 404.181640625 271.818359375 c 0
 404.181640625 226.631835938 440.813476562 190 486 190 c 0
 531.1875 190 567.818359375 226.631835938 567.818359375 271.818359375 c 0
475.818359375 81.818359375 m 0
 475.818359375 127.004882812 439.1875 163.63671875 394 163.63671875 c 0
 348.813476562 163.63671875 312.181640625 127.004882812 312.181640625 81.818359375 c 0
 312.181640625 36.6318359375 348.813476562 0 394 0 c 0
 439.1875 0 475.818359375 36.6318359375 475.818359375 81.818359375 c 0
EndSplineSet
Validated: 524297
Comment: "Continuous rain (NOT freezing),+AAoA-moderate at time of observation"
EndChar

StartChar: uF00EE
Encoding: 983278 983278 70
Width: 1000
Flags: HW
LayerCount: 2
Fore
SplineSet
567.818359375 461.818359375 m 0
 567.818359375 507.004882812 531.1875 543.63671875 486 543.63671875 c 0
 440.813476562 543.63671875 404.181640625 507.004882812 404.181640625 461.818359375 c 0
 404.181640625 416.631835938 440.813476562 380 486 380 c 0
 531.1875 380 567.818359375 416.631835938 567.818359375 461.818359375 c 0
567.818359375 271.818359375 m 0
 567.818359375 317.004882812 531.1875 353.63671875 486 353.63671875 c 0
 440.813476562 353.63671875 404.181640625 317.004882812 404.181640625 271.818359375 c 0
 404.181640625 226.631835938 440.813476562 190 486 190 c 0
 531.1875 190 567.818359375 226.631835938 567.818359375 271.818359375 c 0
567.818359375 81.818359375 m 0
 567.818359375 127.004882812 531.1875 163.63671875 486 163.63671875 c 0
 440.813476562 163.63671875 404.181640625 127.004882812 404.181640625 81.818359375 c 0
 404.181640625 36.6318359375 440.813476562 0 486 0 c 0
 531.1875 0 567.818359375 36.6318359375 567.818359375 81.818359375 c 0
EndSplineSet
Validated: 524297
Comment: "Intermittent rain (NOT freezing),+AAoA-heavy at time of observation"
EndChar

StartChar: uF00EF
Encoding: 983279 983279 71
Width: 1000
Flags: HW
LayerCount: 2
Fore
SplineSet
567.818359375 84.818359375 m 0
 567.818359375 130.004882812 531.1875 166.63671875 486 166.63671875 c 0
 440.813476562 166.63671875 404.181640625 130.004882812 404.181640625 84.818359375 c 0
 404.181640625 39.6318359375 440.813476562 3 486 3 c 0
 531.1875 3 567.818359375 39.6318359375 567.818359375 84.818359375 c 0
665.818359375 264.818359375 m 0
 665.818359375 310.004882812 629.1875 346.63671875 584 346.63671875 c 0
 538.813476562 346.63671875 502.181640625 310.004882812 502.181640625 264.818359375 c 0
 502.181640625 219.631835938 538.813476562 183 584 183 c 0
 629.1875 183 665.818359375 219.631835938 665.818359375 264.818359375 c 0
567.818359375 444.818359375 m 0
 567.818359375 490.004882812 531.1875 526.63671875 486 526.63671875 c 0
 440.813476562 526.63671875 404.181640625 490.004882812 404.181640625 444.818359375 c 0
 404.181640625 399.631835938 440.813476562 363 486 363 c 0
 531.1875 363 567.818359375 399.631835938 567.818359375 444.818359375 c 0
475.818359375 264.818359375 m 0
 475.818359375 310.004882812 439.1875 346.63671875 394 346.63671875 c 0
 348.813476562 346.63671875 312.181640625 310.004882812 312.181640625 264.818359375 c 0
 312.181640625 219.631835938 348.813476562 183 394 183 c 0
 439.1875 183 475.818359375 219.631835938 475.818359375 264.818359375 c 0
EndSplineSet
Validated: 524297
Comment: "Continuous rain (NOT freeing),+AAoA-heavy at time of observation"
EndChar

StartChar: uF00F1
Encoding: 983281 983281 72
Width: 1000
Flags: HW
LayerCount: 2
Fore
SplineSet
775.181640625 283.090820312 m 0
 775.181640625 328.27734375 738.55078125 364.909179688 693.36328125 364.909179688 c 0
 648.176757812 364.909179688 611.544921875 328.27734375 611.544921875 283.090820312 c 0
 611.544921875 237.904296875 648.176757812 201.272460938 693.36328125 201.272460938 c 0
 738.55078125 201.272460938 775.181640625 237.904296875 775.181640625 283.090820312 c 0
405.181640625 283.090820312 m 0
 405.181640625 328.27734375 368.55078125 364.909179688 323.36328125 364.909179688 c 0
 278.176757812 364.909179688 241.544921875 328.27734375 241.544921875 283.090820312 c 0
 241.544921875 237.904296875 278.176757812 201.272460938 323.36328125 201.272460938 c 0
 368.55078125 201.272460938 405.181640625 237.904296875 405.181640625 283.090820312 c 0
477.909179688 283.090820312 m 0
 477.909179688 368.766601562 409.040039062 437.63671875 323.36328125 437.63671875 c 0
 237.6875 437.63671875 168.818359375 368.766601562 168.818359375 283.090820312 c 2
 168.818359375 246.727539062 l 2
 168.818359375 231.674804688 156.59765625 219.454101562 141.544921875 219.454101562 c 0
 126.493164062 219.454101562 114.272460938 231.674804688 114.272460938 246.727539062 c 2
 114.272460938 283.090820312 l 2
 114.272460938 398.245117188 208.208984375 492.181640625 323.36328125 492.181640625 c 0
 438.518554688 492.181640625 532.454101562 398.245117188 532.454101562 283.090820312 c 0
 532.454101562 197.415039062 601.323242188 128.544921875 687 128.544921875 c 0
 772.67578125 128.544921875 841.544921875 197.415039062 841.544921875 283.090820312 c 2
 841.544921875 319.454101562 l 2
 841.544921875 334.506835938 853.765625 346.727539062 868.818359375 346.727539062 c 0
 883.870117188 346.727539062 896.090820312 334.506835938 896.090820312 319.454101562 c 2
 896.090820312 283.090820312 l 2
 896.090820312 167.936523438 802.154296875 74 687 74 c 0
 571.844726562 74 477.909179688 167.936523438 477.909179688 283.090820312 c 0
EndSplineSet
Validated: 524297
Comment: "Moderate or heavy freezing rain"
EndChar

StartChar: uF00F2
Encoding: 983282 983282 73
Width: 1000
Flags: H
LayerCount: 2
Fore
SplineSet
608.818359375 383.818359375 m 0
 608.818359375 429.004882812 572.1875 465.63671875 527 465.63671875 c 0
 481.813476562 465.63671875 445.181640625 429.004882812 445.181640625 383.818359375 c 0
 445.181640625 338.631835938 481.813476562 302 527 302 c 0
 572.1875 302 608.818359375 338.631835938 608.818359375 383.818359375 c 0
525 263.272460938 m 0
 540.051757812 263.272460938 552.272460938 251.051757812 552.272460938 236 c 2
 552.272460938 183.229492188 l 1
 597.975585938 209.615234375 l 2
 601.984375 211.932617188 606.658203125 213.276367188 611.6171875 213.276367188 c 0
 611.76953125 213.276367188 611.921875 213.275390625 612.07421875 213.272460938 c 0
 621.974609375 213.102539062 630.587890625 207.674804688 635.227539062 199.635742188 c 0
 637.540039062 195.630859375 638.909179688 190.971679688 638.909179688 186.018554688 c 0
 638.909179688 175.921875 633.411132812 167.099609375 625.249023438 162.384765625 c 2
 579.545898438 136 l 1
 625.249023438 109.615234375 l 2
 633.411132812 104.899414062 638.86328125 96.0654296875 638.86328125 85.9697265625 c 0
 638.86328125 81.015625 637.540039062 76.369140625 635.227539062 72.36328125 c 0
 630.512695312 64.2001953125 621.677734375 58.7490234375 611.58203125 58.7490234375 c 0
 606.627929688 58.7490234375 601.981445312 60.072265625 597.975585938 62.384765625 c 2
 552.272460938 88.76953125 l 1
 552.272460938 36 l 2
 552.272460938 20.947265625 540.051757812 8.7265625 525 8.7265625 c 0
 509.948242188 8.7265625 497.727539062 20.947265625 497.727539062 36 c 2
 497.727539062 88.76953125 l 1
 452.024414062 62.384765625 l 2
 448.018554688 60.072265625 443.359375 58.7021484375 438.40625 58.7021484375 c 0
 428.309570312 58.7021484375 419.487304688 64.2001953125 414.772460938 72.36328125 c 0
 412.459960938 76.369140625 411.090820312 81.02734375 411.090820312 85.9814453125 c 0
 411.090820312 96.0771484375 416.588867188 104.899414062 424.750976562 109.615234375 c 2
 470.454101562 136 l 1
 424.750976562 162.384765625 l 2
 416.588867188 167.099609375 411.13671875 175.93359375 411.13671875 186.030273438 c 0
 411.13671875 190.983398438 412.459960938 195.630859375 414.772460938 199.635742188 c 0
 419.376953125 207.618164062 427.90234375 213.026367188 437.712890625 213.272460938 c 0
 437.934570312 213.27734375 438.173828125 213.262695312 438.396484375 213.262695312 c 0
 443.359375 213.262695312 448.013671875 211.934570312 452.024414062 209.615234375 c 2
 497.727539062 183.229492188 l 1
 497.727539062 236 l 2
 497.727539062 251.051757812 509.948242188 263.272460938 525 263.272460938 c 0
EndSplineSet
Validated: 524297
Comment: "Rain or drizzle and snow, slight"
EndChar

StartChar: uF00F3
Encoding: 983283 983283 74
Width: 1000
Flags: HW
LayerCount: 2
Fore
SplineSet
525 763.272460938 m 0
 540.051757812 763.272460938 552.272460938 751.051757812 552.272460938 736 c 2
 552.272460938 683.229492188 l 1
 597.975585938 709.615234375 l 2
 601.984375 711.932617188 606.658203125 713.276367188 611.6171875 713.276367188 c 0
 611.76953125 713.276367188 611.921875 713.275390625 612.07421875 713.272460938 c 0
 621.974609375 713.102539062 630.587890625 707.674804688 635.227539062 699.635742188 c 0
 637.540039062 695.630859375 638.909179688 690.971679688 638.909179688 686.018554688 c 0
 638.909179688 675.921875 633.411132812 667.099609375 625.249023438 662.384765625 c 2
 579.545898438 636 l 1
 625.249023438 609.615234375 l 2
 633.411132812 604.899414062 638.86328125 596.065429688 638.86328125 585.969726562 c 0
 638.86328125 581.015625 637.540039062 576.369140625 635.227539062 572.36328125 c 0
 630.512695312 564.200195312 621.677734375 558.749023438 611.58203125 558.749023438 c 0
 606.627929688 558.749023438 601.981445312 560.072265625 597.975585938 562.384765625 c 2
 552.272460938 588.76953125 l 1
 552.272460938 536 l 2
 552.272460938 520.947265625 540.051757812 508.7265625 525 508.7265625 c 0
 509.948242188 508.7265625 497.727539062 520.947265625 497.727539062 536 c 2
 497.727539062 588.76953125 l 1
 452.024414062 562.384765625 l 2
 448.018554688 560.072265625 443.359375 558.702148438 438.40625 558.702148438 c 0
 428.309570312 558.702148438 419.487304688 564.200195312 414.772460938 572.36328125 c 0
 412.459960938 576.369140625 411.090820312 581.02734375 411.090820312 585.981445312 c 0
 411.090820312 596.077148438 416.588867188 604.899414062 424.750976562 609.615234375 c 2
 470.454101562 636 l 1
 424.750976562 662.384765625 l 2
 416.588867188 667.099609375 411.13671875 675.93359375 411.13671875 686.030273438 c 0
 411.13671875 690.983398438 412.459960938 695.630859375 414.772460938 699.635742188 c 0
 419.376953125 707.618164062 427.90234375 713.026367188 437.712890625 713.272460938 c 0
 437.934570312 713.27734375 438.173828125 713.262695312 438.396484375 713.262695312 c 0
 443.359375 713.262695312 448.013671875 711.934570312 452.024414062 709.615234375 c 2
 497.727539062 683.229492188 l 1
 497.727539062 736 l 2
 497.727539062 751.051757812 509.948242188 763.272460938 525 763.272460938 c 0
608.818359375 383.818359375 m 0
 608.818359375 429.004882812 572.1875 465.63671875 527 465.63671875 c 0
 481.813476562 465.63671875 445.181640625 429.004882812 445.181640625 383.818359375 c 0
 445.181640625 338.631835938 481.813476562 302 527 302 c 0
 572.1875 302 608.818359375 338.631835938 608.818359375 383.818359375 c 0
525 263.272460938 m 0
 540.051757812 263.272460938 552.272460938 251.051757812 552.272460938 236 c 2
 552.272460938 183.229492188 l 1
 597.975585938 209.615234375 l 2
 601.984375 211.932617188 606.658203125 213.276367188 611.6171875 213.276367188 c 0
 611.76953125 213.276367188 611.921875 213.275390625 612.07421875 213.272460938 c 0
 621.974609375 213.102539062 630.587890625 207.674804688 635.227539062 199.635742188 c 0
 637.540039062 195.630859375 638.909179688 190.971679688 638.909179688 186.018554688 c 0
 638.909179688 175.921875 633.411132812 167.099609375 625.249023438 162.384765625 c 2
 579.545898438 136 l 1
 625.249023438 109.615234375 l 2
 633.411132812 104.899414062 638.86328125 96.0654296875 638.86328125 85.9697265625 c 0
 638.86328125 81.015625 637.540039062 76.369140625 635.227539062 72.36328125 c 0
 630.512695312 64.2001953125 621.677734375 58.7490234375 611.58203125 58.7490234375 c 0
 606.627929688 58.7490234375 601.981445312 60.072265625 597.975585938 62.384765625 c 2
 552.272460938 88.76953125 l 1
 552.272460938 36 l 2
 552.272460938 20.947265625 540.051757812 8.7265625 525 8.7265625 c 0
 509.948242188 8.7265625 497.727539062 20.947265625 497.727539062 36 c 2
 497.727539062 88.76953125 l 1
 452.024414062 62.384765625 l 2
 448.018554688 60.072265625 443.359375 58.7021484375 438.40625 58.7021484375 c 0
 428.309570312 58.7021484375 419.487304688 64.2001953125 414.772460938 72.36328125 c 0
 412.459960938 76.369140625 411.090820312 81.02734375 411.090820312 85.9814453125 c 0
 411.090820312 96.0771484375 416.588867188 104.899414062 424.750976562 109.615234375 c 2
 470.454101562 136 l 1
 424.750976562 162.384765625 l 2
 416.588867188 167.099609375 411.13671875 175.93359375 411.13671875 186.030273438 c 0
 411.13671875 190.983398438 412.459960938 195.630859375 414.772460938 199.635742188 c 0
 419.376953125 207.618164062 427.90234375 213.026367188 437.712890625 213.272460938 c 0
 437.934570312 213.27734375 438.173828125 213.262695312 438.396484375 213.262695312 c 0
 443.359375 213.262695312 448.013671875 211.934570312 452.024414062 209.615234375 c 2
 497.727539062 183.229492188 l 1
 497.727539062 236 l 2
 497.727539062 251.051757812 509.948242188 263.272460938 525 263.272460938 c 0
EndSplineSet
Validated: 524297
Comment: "Rain or drizzle and snow, moderate+AAoA-or heavy"
EndChar

StartChar: uF0117
Encoding: 983319 983319 75
Width: 1000
Flags: H
LayerCount: 2
Fore
SplineSet
337.211914062 221.090820312 m 0
 337.482421875 221.098632812 337.723632812 221.130859375 337.99609375 221.130859375 c 0
 347.638671875 221.130859375 356.119140625 216.116210938 360.96875 208.555664062 c 0
 363.694335938 204.310546875 365.3203125 199.250976562 365.3203125 193.836914062 c 0
 365.3203125 184.204101562 360.315429688 175.73046875 352.765625 170.877929688 c 2
 303.618164062 139.272460938 l 1
 699.711914062 139.272460938 l 1
 650.564453125 170.877929688 l 2
 643.014648438 175.73046875 638.0546875 184.215820312 638.0546875 193.848632812 c 0
 638.0546875 199.262695312 639.635742188 204.310546875 642.361328125 208.555664062 c 0
 647.211914062 216.11328125 655.663085938 221.09765625 665.302734375 221.09765625 c 0
 665.50390625 221.09765625 665.705078125 221.095703125 665.905273438 221.090820312 c 0
 671.088867188 220.971679688 675.956054688 219.38671875 680.0390625 216.758789062 c 2
 843 112 l 1
 680.0390625 7.2412109375 l 2
 675.793945312 4.5166015625 670.734375 2.8896484375 665.3203125 2.8896484375 c 0
 655.686523438 2.8896484375 647.213867188 7.8955078125 642.361328125 15.4443359375 c 0
 639.635742188 19.689453125 638.009765625 24.7490234375 638.009765625 30.1630859375 c 0
 638.009765625 39.7958984375 643.014648438 48.26953125 650.564453125 53.1220703125 c 2
 699.711914062 84.7275390625 l 1
 303.618164062 84.7275390625 l 1
 352.765625 53.1220703125 l 2
 360.315429688 48.26953125 365.275390625 39.7841796875 365.275390625 30.1513671875 c 0
 365.275390625 24.7373046875 363.694335938 19.689453125 360.96875 15.4443359375 c 0
 356.116210938 7.8955078125 347.631835938 2.9345703125 337.998046875 2.9345703125 c 0
 332.583984375 2.9345703125 327.536132812 4.5166015625 323.291015625 7.2412109375 c 2
 160.330078125 112 l 1
 323.291015625 216.758789062 l 2
 327.317382812 219.3515625 332.110351562 220.931640625 337.211914062 221.090820312 c 0
EndSplineSet
Validated: 524289
Comment: "Ice needles (with or without fog)"
EndChar

StartChar: uF0116
Encoding: 983318 983318 76
Width: 1000
Flags: HW
LayerCount: 2
Fore
SplineSet
525 263.272460938 m 0
 540.051757812 263.272460938 552.272460938 251.051757812 552.272460938 236 c 2
 552.272460938 183.229492188 l 1
 597.975585938 209.615234375 l 2
 601.984375 211.932617188 606.658203125 213.276367188 611.6171875 213.276367188 c 0
 611.76953125 213.276367188 611.921875 213.275390625 612.07421875 213.272460938 c 0
 621.974609375 213.102539062 630.587890625 207.674804688 635.227539062 199.635742188 c 0
 637.540039062 195.630859375 638.909179688 190.971679688 638.909179688 186.018554688 c 0
 638.909179688 175.921875 633.411132812 167.099609375 625.249023438 162.384765625 c 2
 579.545898438 136 l 1
 625.249023438 109.615234375 l 2
 633.411132812 104.899414062 638.86328125 96.0654296875 638.86328125 85.9697265625 c 0
 638.86328125 81.015625 637.540039062 76.369140625 635.227539062 72.36328125 c 0
 630.512695312 64.2001953125 621.677734375 58.7490234375 611.58203125 58.7490234375 c 0
 606.627929688 58.7490234375 601.981445312 60.072265625 597.975585938 62.384765625 c 2
 552.272460938 88.76953125 l 1
 552.272460938 36 l 2
 552.272460938 20.947265625 540.051757812 8.7265625 525 8.7265625 c 0
 509.948242188 8.7265625 497.727539062 20.947265625 497.727539062 36 c 2
 497.727539062 88.76953125 l 1
 452.024414062 62.384765625 l 2
 448.018554688 60.072265625 443.359375 58.7021484375 438.40625 58.7021484375 c 0
 428.309570312 58.7021484375 419.487304688 64.2001953125 414.772460938 72.36328125 c 0
 412.459960938 76.369140625 411.090820312 81.02734375 411.090820312 85.9814453125 c 0
 411.090820312 96.0771484375 416.588867188 104.899414062 424.750976562 109.615234375 c 2
 470.454101562 136 l 1
 424.750976562 162.384765625 l 2
 416.588867188 167.099609375 411.13671875 175.93359375 411.13671875 186.030273438 c 0
 411.13671875 190.983398438 412.459960938 195.630859375 414.772460938 199.635742188 c 0
 419.376953125 207.618164062 427.90234375 213.026367188 437.712890625 213.272460938 c 0
 437.934570312 213.27734375 438.173828125 213.262695312 438.396484375 213.262695312 c 0
 443.359375 213.262695312 448.013671875 211.934570312 452.024414062 209.615234375 c 2
 497.727539062 183.229492188 l 1
 497.727539062 236 l 2
 497.727539062 251.051757812 509.948242188 263.272460938 525 263.272460938 c 0
513 700.272460938 m 0
 528.051757812 700.272460938 540.272460938 688.051757812 540.272460938 673 c 2
 540.272460938 620.229492188 l 1
 585.975585938 646.615234375 l 2
 589.984375 648.932617188 594.658203125 650.276367188 599.6171875 650.276367188 c 0
 599.76953125 650.276367188 599.921875 650.275390625 600.07421875 650.272460938 c 0
 609.974609375 650.102539062 618.587890625 644.674804688 623.227539062 636.635742188 c 0
 625.540039062 632.630859375 626.909179688 627.971679688 626.909179688 623.018554688 c 0
 626.909179688 612.921875 621.411132812 604.099609375 613.249023438 599.384765625 c 2
 567.545898438 573 l 1
 613.249023438 546.615234375 l 2
 621.411132812 541.899414062 626.86328125 533.065429688 626.86328125 522.969726562 c 0
 626.86328125 518.015625 625.540039062 513.369140625 623.227539062 509.36328125 c 0
 618.512695312 501.200195312 609.677734375 495.749023438 599.58203125 495.749023438 c 0
 594.627929688 495.749023438 589.981445312 497.072265625 585.975585938 499.384765625 c 2
 540.272460938 525.76953125 l 1
 540.272460938 473 l 2
 540.272460938 457.947265625 528.051757812 445.7265625 513 445.7265625 c 0
 497.948242188 445.7265625 485.727539062 457.947265625 485.727539062 473 c 2
 485.727539062 525.76953125 l 1
 440.024414062 499.384765625 l 2
 436.018554688 497.072265625 431.359375 495.702148438 426.40625 495.702148438 c 0
 416.309570312 495.702148438 407.487304688 501.200195312 402.772460938 509.36328125 c 0
 400.459960938 513.369140625 399.090820312 518.02734375 399.090820312 522.981445312 c 0
 399.090820312 533.077148438 404.588867188 541.899414062 412.750976562 546.615234375 c 2
 458.454101562 573 l 1
 412.750976562 599.384765625 l 2
 404.588867188 604.099609375 399.13671875 612.93359375 399.13671875 623.030273438 c 0
 399.13671875 627.983398438 400.459960938 632.630859375 402.772460938 636.635742188 c 0
 407.376953125 644.618164062 415.90234375 650.026367188 425.712890625 650.272460938 c 0
 425.934570312 650.27734375 426.173828125 650.262695312 426.396484375 650.262695312 c 0
 431.359375 650.262695312 436.013671875 648.934570312 440.024414062 646.615234375 c 2
 485.727539062 620.229492188 l 1
 485.727539062 673 l 2
 485.727539062 688.051757812 497.948242188 700.272460938 513 700.272460938 c 0
648 490.272460938 m 0
 663.051757812 490.272460938 675.272460938 478.051757812 675.272460938 463 c 2
 675.272460938 410.229492188 l 1
 720.975585938 436.615234375 l 2
 724.984375 438.932617188 729.658203125 440.276367188 734.6171875 440.276367188 c 0
 734.76953125 440.276367188 734.921875 440.275390625 735.07421875 440.272460938 c 0
 744.974609375 440.102539062 753.587890625 434.674804688 758.227539062 426.635742188 c 0
 760.540039062 422.630859375 761.909179688 417.971679688 761.909179688 413.018554688 c 0
 761.909179688 402.921875 756.411132812 394.099609375 748.249023438 389.384765625 c 2
 702.545898438 363 l 1
 748.249023438 336.615234375 l 2
 756.411132812 331.899414062 761.86328125 323.065429688 761.86328125 312.969726562 c 0
 761.86328125 308.015625 760.540039062 303.369140625 758.227539062 299.36328125 c 0
 753.512695312 291.200195312 744.677734375 285.749023438 734.58203125 285.749023438 c 0
 729.627929688 285.749023438 724.981445312 287.072265625 720.975585938 289.384765625 c 2
 675.272460938 315.76953125 l 1
 675.272460938 263 l 2
 675.272460938 247.947265625 663.051757812 235.7265625 648 235.7265625 c 0
 632.948242188 235.7265625 620.727539062 247.947265625 620.727539062 263 c 2
 620.727539062 315.76953125 l 1
 575.024414062 289.384765625 l 2
 571.018554688 287.072265625 566.359375 285.702148438 561.40625 285.702148438 c 0
 551.309570312 285.702148438 542.487304688 291.200195312 537.772460938 299.36328125 c 0
 535.459960938 303.369140625 534.090820312 308.02734375 534.090820312 312.981445312 c 0
 534.090820312 323.077148438 539.588867188 331.899414062 547.750976562 336.615234375 c 2
 593.454101562 363 l 1
 547.750976562 389.384765625 l 2
 539.588867188 394.099609375 534.13671875 402.93359375 534.13671875 413.030273438 c 0
 534.13671875 417.983398438 535.459960938 422.630859375 537.772460938 426.635742188 c 0
 542.376953125 434.618164062 550.90234375 440.026367188 560.712890625 440.272460938 c 0
 560.934570312 440.27734375 561.173828125 440.262695312 561.396484375 440.262695312 c 0
 566.359375 440.262695312 571.013671875 438.934570312 575.024414062 436.615234375 c 2
 620.727539062 410.229492188 l 1
 620.727539062 463 l 2
 620.727539062 478.051757812 632.948242188 490.272460938 648 490.272460938 c 0
378 490.272460938 m 0
 393.051757812 490.272460938 405.272460938 478.051757812 405.272460938 463 c 2
 405.272460938 410.229492188 l 1
 450.975585938 436.615234375 l 2
 454.984375 438.932617188 459.658203125 440.276367188 464.6171875 440.276367188 c 0
 464.76953125 440.276367188 464.921875 440.275390625 465.07421875 440.272460938 c 0
 474.974609375 440.102539062 483.587890625 434.674804688 488.227539062 426.635742188 c 0
 490.540039062 422.630859375 491.909179688 417.971679688 491.909179688 413.018554688 c 0
 491.909179688 402.921875 486.411132812 394.099609375 478.249023438 389.384765625 c 2
 432.545898438 363 l 1
 478.249023438 336.615234375 l 2
 486.411132812 331.899414062 491.86328125 323.065429688 491.86328125 312.969726562 c 0
 491.86328125 308.015625 490.540039062 303.369140625 488.227539062 299.36328125 c 0
 483.512695312 291.200195312 474.677734375 285.749023438 464.58203125 285.749023438 c 0
 459.627929688 285.749023438 454.981445312 287.072265625 450.975585938 289.384765625 c 2
 405.272460938 315.76953125 l 1
 405.272460938 263 l 2
 405.272460938 247.947265625 393.051757812 235.7265625 378 235.7265625 c 0
 362.948242188 235.7265625 350.727539062 247.947265625 350.727539062 263 c 2
 350.727539062 315.76953125 l 1
 305.024414062 289.384765625 l 2
 301.018554688 287.072265625 296.359375 285.702148438 291.40625 285.702148438 c 0
 281.309570312 285.702148438 272.487304688 291.200195312 267.772460938 299.36328125 c 0
 265.459960938 303.369140625 264.090820312 308.02734375 264.090820312 312.981445312 c 0
 264.090820312 323.077148438 269.588867188 331.899414062 277.750976562 336.615234375 c 2
 323.454101562 363 l 1
 277.750976562 389.384765625 l 2
 269.588867188 394.099609375 264.13671875 402.93359375 264.13671875 413.030273438 c 0
 264.13671875 417.983398438 265.459960938 422.630859375 267.772460938 426.635742188 c 0
 272.376953125 434.618164062 280.90234375 440.026367188 290.712890625 440.272460938 c 0
 290.934570312 440.27734375 291.173828125 440.262695312 291.396484375 440.262695312 c 0
 296.359375 440.262695312 301.013671875 438.934570312 305.024414062 436.615234375 c 2
 350.727539062 410.229492188 l 1
 350.727539062 463 l 2
 350.727539062 478.051757812 362.948242188 490.272460938 378 490.272460938 c 0
EndSplineSet
Validated: 524289
Comment: "Continuous fall of snowflakes,+AAoA-heavy at time of observation"
EndChar

StartChar: uF0111
Encoding: 983313 983313 77
Width: 1000
Flags: HW
LayerCount: 2
Fore
SplineSet
525 263.272460938 m 0
 540.051757812 263.272460938 552.272460938 251.051757812 552.272460938 236 c 2
 552.272460938 183.229492188 l 1
 597.975585938 209.615234375 l 2
 601.984375 211.932617188 606.658203125 213.276367188 611.6171875 213.276367188 c 0
 611.76953125 213.276367188 611.921875 213.275390625 612.07421875 213.272460938 c 0
 621.974609375 213.102539062 630.587890625 207.674804688 635.227539062 199.635742188 c 0
 637.540039062 195.630859375 638.909179688 190.971679688 638.909179688 186.018554688 c 0
 638.909179688 175.921875 633.411132812 167.099609375 625.249023438 162.384765625 c 2
 579.545898438 136 l 1
 625.249023438 109.615234375 l 2
 633.411132812 104.899414062 638.86328125 96.0654296875 638.86328125 85.9697265625 c 0
 638.86328125 81.015625 637.540039062 76.369140625 635.227539062 72.36328125 c 0
 630.512695312 64.2001953125 621.677734375 58.7490234375 611.58203125 58.7490234375 c 0
 606.627929688 58.7490234375 601.981445312 60.072265625 597.975585938 62.384765625 c 2
 552.272460938 88.76953125 l 1
 552.272460938 36 l 2
 552.272460938 20.947265625 540.051757812 8.7265625 525 8.7265625 c 0
 509.948242188 8.7265625 497.727539062 20.947265625 497.727539062 36 c 2
 497.727539062 88.76953125 l 1
 452.024414062 62.384765625 l 2
 448.018554688 60.072265625 443.359375 58.7021484375 438.40625 58.7021484375 c 0
 428.309570312 58.7021484375 419.487304688 64.2001953125 414.772460938 72.36328125 c 0
 412.459960938 76.369140625 411.090820312 81.02734375 411.090820312 85.9814453125 c 0
 411.090820312 96.0771484375 416.588867188 104.899414062 424.750976562 109.615234375 c 2
 470.454101562 136 l 1
 424.750976562 162.384765625 l 2
 416.588867188 167.099609375 411.13671875 175.93359375 411.13671875 186.030273438 c 0
 411.13671875 190.983398438 412.459960938 195.630859375 414.772460938 199.635742188 c 0
 419.376953125 207.618164062 427.90234375 213.026367188 437.712890625 213.272460938 c 0
 437.934570312 213.27734375 438.173828125 213.262695312 438.396484375 213.262695312 c 0
 443.359375 213.262695312 448.013671875 211.934570312 452.024414062 209.615234375 c 2
 497.727539062 183.229492188 l 1
 497.727539062 236 l 2
 497.727539062 251.051757812 509.948242188 263.272460938 525 263.272460938 c 0
EndSplineSet
Validated: 524289
Comment: "Intermittent fall of snowfalkes,+AAoA-sllight at time of observation"
EndChar

StartChar: uF0112
Encoding: 983314 983314 78
Width: 1000
Flags: HW
LayerCount: 2
Fore
SplineSet
645 263.272460938 m 0
 660.051757812 263.272460938 672.272460938 251.051757812 672.272460938 236 c 2
 672.272460938 183.229492188 l 1
 717.975585938 209.615234375 l 2
 721.984375 211.932617188 726.658203125 213.276367188 731.6171875 213.276367188 c 0
 731.76953125 213.276367188 731.921875 213.275390625 732.07421875 213.272460938 c 0
 741.974609375 213.102539062 750.587890625 207.674804688 755.227539062 199.635742188 c 0
 757.540039062 195.630859375 758.909179688 190.971679688 758.909179688 186.018554688 c 0
 758.909179688 175.921875 753.411132812 167.099609375 745.249023438 162.384765625 c 2
 699.545898438 136 l 1
 745.249023438 109.615234375 l 2
 753.411132812 104.899414062 758.86328125 96.0654296875 758.86328125 85.9697265625 c 0
 758.86328125 81.015625 757.540039062 76.369140625 755.227539062 72.36328125 c 0
 750.512695312 64.2001953125 741.677734375 58.7490234375 731.58203125 58.7490234375 c 0
 726.627929688 58.7490234375 721.981445312 60.072265625 717.975585938 62.384765625 c 2
 672.272460938 88.76953125 l 1
 672.272460938 36 l 2
 672.272460938 20.947265625 660.051757812 8.7265625 645 8.7265625 c 0
 629.948242188 8.7265625 617.727539062 20.947265625 617.727539062 36 c 2
 617.727539062 88.76953125 l 1
 572.024414062 62.384765625 l 2
 568.018554688 60.072265625 563.359375 58.7021484375 558.40625 58.7021484375 c 0
 548.309570312 58.7021484375 539.487304688 64.2001953125 534.772460938 72.36328125 c 0
 532.459960938 76.369140625 531.090820312 81.02734375 531.090820312 85.9814453125 c 0
 531.090820312 96.0771484375 536.588867188 104.899414062 544.750976562 109.615234375 c 2
 590.454101562 136 l 1
 544.750976562 162.384765625 l 2
 536.588867188 167.099609375 531.13671875 175.93359375 531.13671875 186.030273438 c 0
 531.13671875 190.983398438 532.459960938 195.630859375 534.772460938 199.635742188 c 0
 539.376953125 207.618164062 547.90234375 213.026367188 557.712890625 213.272460938 c 0
 557.934570312 213.27734375 558.173828125 213.262695312 558.396484375 213.262695312 c 0
 563.359375 213.262695312 568.013671875 211.934570312 572.024414062 209.615234375 c 2
 617.727539062 183.229492188 l 1
 617.727539062 236 l 2
 617.727539062 251.051757812 629.948242188 263.272460938 645 263.272460938 c 0
375 263.272460938 m 0
 390.051757812 263.272460938 402.272460938 251.051757812 402.272460938 236 c 2
 402.272460938 183.229492188 l 1
 447.975585938 209.615234375 l 2
 451.984375 211.932617188 456.658203125 213.276367188 461.6171875 213.276367188 c 0
 461.76953125 213.276367188 461.921875 213.275390625 462.07421875 213.272460938 c 0
 471.974609375 213.102539062 480.587890625 207.674804688 485.227539062 199.635742188 c 0
 487.540039062 195.630859375 488.909179688 190.971679688 488.909179688 186.018554688 c 0
 488.909179688 175.921875 483.411132812 167.099609375 475.249023438 162.384765625 c 2
 429.545898438 136 l 1
 475.249023438 109.615234375 l 2
 483.411132812 104.899414062 488.86328125 96.0654296875 488.86328125 85.9697265625 c 0
 488.86328125 81.015625 487.540039062 76.369140625 485.227539062 72.36328125 c 0
 480.512695312 64.2001953125 471.677734375 58.7490234375 461.58203125 58.7490234375 c 0
 456.627929688 58.7490234375 451.981445312 60.072265625 447.975585938 62.384765625 c 2
 402.272460938 88.76953125 l 1
 402.272460938 36 l 2
 402.272460938 20.947265625 390.051757812 8.7265625 375 8.7265625 c 0
 359.948242188 8.7265625 347.727539062 20.947265625 347.727539062 36 c 2
 347.727539062 88.76953125 l 1
 302.024414062 62.384765625 l 2
 298.018554688 60.072265625 293.359375 58.7021484375 288.40625 58.7021484375 c 0
 278.309570312 58.7021484375 269.487304688 64.2001953125 264.772460938 72.36328125 c 0
 262.459960938 76.369140625 261.090820312 81.02734375 261.090820312 85.9814453125 c 0
 261.090820312 96.0771484375 266.588867188 104.899414062 274.750976562 109.615234375 c 2
 320.454101562 136 l 1
 274.750976562 162.384765625 l 2
 266.588867188 167.099609375 261.13671875 175.93359375 261.13671875 186.030273438 c 0
 261.13671875 190.983398438 262.459960938 195.630859375 264.772460938 199.635742188 c 0
 269.376953125 207.618164062 277.90234375 213.026367188 287.712890625 213.272460938 c 0
 287.934570312 213.27734375 288.173828125 213.262695312 288.396484375 213.262695312 c 0
 293.359375 213.262695312 298.013671875 211.934570312 302.024414062 209.615234375 c 2
 347.727539062 183.229492188 l 1
 347.727539062 236 l 2
 347.727539062 251.051757812 359.948242188 263.272460938 375 263.272460938 c 0
EndSplineSet
Validated: 524289
Comment: "Continuous fall of snowflakes,+AAoA-slight at time of observation"
EndChar

StartChar: uF0113
Encoding: 983315 983315 79
Width: 1000
Flags: HW
LayerCount: 2
Fore
SplineSet
525 533.272460938 m 0
 540.051757812 533.272460938 552.272460938 521.051757812 552.272460938 506 c 2
 552.272460938 453.229492188 l 1
 597.975585938 479.615234375 l 2
 601.984375 481.932617188 606.658203125 483.276367188 611.6171875 483.276367188 c 0
 611.76953125 483.276367188 611.921875 483.275390625 612.07421875 483.272460938 c 0
 621.974609375 483.102539062 630.587890625 477.674804688 635.227539062 469.635742188 c 0
 637.540039062 465.630859375 638.909179688 460.971679688 638.909179688 456.018554688 c 0
 638.909179688 445.921875 633.411132812 437.099609375 625.249023438 432.384765625 c 2
 579.545898438 406 l 1
 625.249023438 379.615234375 l 2
 633.411132812 374.899414062 638.86328125 366.065429688 638.86328125 355.969726562 c 0
 638.86328125 351.015625 637.540039062 346.369140625 635.227539062 342.36328125 c 0
 630.512695312 334.200195312 621.677734375 328.749023438 611.58203125 328.749023438 c 0
 606.627929688 328.749023438 601.981445312 330.072265625 597.975585938 332.384765625 c 2
 552.272460938 358.76953125 l 1
 552.272460938 306 l 2
 552.272460938 290.947265625 540.051757812 278.7265625 525 278.7265625 c 0
 509.948242188 278.7265625 497.727539062 290.947265625 497.727539062 306 c 2
 497.727539062 358.76953125 l 1
 452.024414062 332.384765625 l 2
 448.018554688 330.072265625 443.359375 328.702148438 438.40625 328.702148438 c 0
 428.309570312 328.702148438 419.487304688 334.200195312 414.772460938 342.36328125 c 0
 412.459960938 346.369140625 411.090820312 351.02734375 411.090820312 355.981445312 c 0
 411.090820312 366.077148438 416.588867188 374.899414062 424.750976562 379.615234375 c 2
 470.454101562 406 l 1
 424.750976562 432.384765625 l 2
 416.588867188 437.099609375 411.13671875 445.93359375 411.13671875 456.030273438 c 0
 411.13671875 460.983398438 412.459960938 465.630859375 414.772460938 469.635742188 c 0
 419.376953125 477.618164062 427.90234375 483.026367188 437.712890625 483.272460938 c 0
 437.934570312 483.27734375 438.173828125 483.262695312 438.396484375 483.262695312 c 0
 443.359375 483.262695312 448.013671875 481.934570312 452.024414062 479.615234375 c 2
 497.727539062 453.229492188 l 1
 497.727539062 506 l 2
 497.727539062 521.051757812 509.948242188 533.272460938 525 533.272460938 c 0
525 263.272460938 m 0
 540.051757812 263.272460938 552.272460938 251.051757812 552.272460938 236 c 2
 552.272460938 183.229492188 l 1
 597.975585938 209.615234375 l 2
 601.984375 211.932617188 606.658203125 213.276367188 611.6171875 213.276367188 c 0
 611.76953125 213.276367188 611.921875 213.275390625 612.07421875 213.272460938 c 0
 621.974609375 213.102539062 630.587890625 207.674804688 635.227539062 199.635742188 c 0
 637.540039062 195.630859375 638.909179688 190.971679688 638.909179688 186.018554688 c 0
 638.909179688 175.921875 633.411132812 167.099609375 625.249023438 162.384765625 c 2
 579.545898438 136 l 1
 625.249023438 109.615234375 l 2
 633.411132812 104.899414062 638.86328125 96.0654296875 638.86328125 85.9697265625 c 0
 638.86328125 81.015625 637.540039062 76.369140625 635.227539062 72.36328125 c 0
 630.512695312 64.2001953125 621.677734375 58.7490234375 611.58203125 58.7490234375 c 0
 606.627929688 58.7490234375 601.981445312 60.072265625 597.975585938 62.384765625 c 2
 552.272460938 88.76953125 l 1
 552.272460938 36 l 2
 552.272460938 20.947265625 540.051757812 8.7265625 525 8.7265625 c 0
 509.948242188 8.7265625 497.727539062 20.947265625 497.727539062 36 c 2
 497.727539062 88.76953125 l 1
 452.024414062 62.384765625 l 2
 448.018554688 60.072265625 443.359375 58.7021484375 438.40625 58.7021484375 c 0
 428.309570312 58.7021484375 419.487304688 64.2001953125 414.772460938 72.36328125 c 0
 412.459960938 76.369140625 411.090820312 81.02734375 411.090820312 85.9814453125 c 0
 411.090820312 96.0771484375 416.588867188 104.899414062 424.750976562 109.615234375 c 2
 470.454101562 136 l 1
 424.750976562 162.384765625 l 2
 416.588867188 167.099609375 411.13671875 175.93359375 411.13671875 186.030273438 c 0
 411.13671875 190.983398438 412.459960938 195.630859375 414.772460938 199.635742188 c 0
 419.376953125 207.618164062 427.90234375 213.026367188 437.712890625 213.272460938 c 0
 437.934570312 213.27734375 438.173828125 213.262695312 438.396484375 213.262695312 c 0
 443.359375 213.262695312 448.013671875 211.934570312 452.024414062 209.615234375 c 2
 497.727539062 183.229492188 l 1
 497.727539062 236 l 2
 497.727539062 251.051757812 509.948242188 263.272460938 525 263.272460938 c 0
EndSplineSet
Validated: 524289
Comment: "Intermittent fall of snowflakes,+AAoA-moderate at time of observation"
EndChar

StartChar: uF0114
Encoding: 983316 983316 80
Width: 1000
Flags: HW
LayerCount: 2
Fore
SplineSet
510 473.272460938 m 0
 525.051757812 473.272460938 537.272460938 461.051757812 537.272460938 446 c 2
 537.272460938 393.229492188 l 1
 582.975585938 419.615234375 l 2
 586.984375 421.932617188 591.658203125 423.276367188 596.6171875 423.276367188 c 0
 596.76953125 423.276367188 596.921875 423.275390625 597.07421875 423.272460938 c 0
 606.974609375 423.102539062 615.587890625 417.674804688 620.227539062 409.635742188 c 0
 622.540039062 405.630859375 623.909179688 400.971679688 623.909179688 396.018554688 c 0
 623.909179688 385.921875 618.411132812 377.099609375 610.249023438 372.384765625 c 2
 564.545898438 346 l 1
 610.249023438 319.615234375 l 2
 618.411132812 314.899414062 623.86328125 306.065429688 623.86328125 295.969726562 c 0
 623.86328125 291.015625 622.540039062 286.369140625 620.227539062 282.36328125 c 0
 615.512695312 274.200195312 606.677734375 268.749023438 596.58203125 268.749023438 c 0
 591.627929688 268.749023438 586.981445312 270.072265625 582.975585938 272.384765625 c 2
 537.272460938 298.76953125 l 1
 537.272460938 246 l 2
 537.272460938 230.947265625 525.051757812 218.7265625 510 218.7265625 c 0
 494.948242188 218.7265625 482.727539062 230.947265625 482.727539062 246 c 2
 482.727539062 298.76953125 l 1
 437.024414062 272.384765625 l 2
 433.018554688 270.072265625 428.359375 268.702148438 423.40625 268.702148438 c 0
 413.309570312 268.702148438 404.487304688 274.200195312 399.772460938 282.36328125 c 0
 397.459960938 286.369140625 396.090820312 291.02734375 396.090820312 295.981445312 c 0
 396.090820312 306.077148438 401.588867188 314.899414062 409.750976562 319.615234375 c 2
 455.454101562 346 l 1
 409.750976562 372.384765625 l 2
 401.588867188 377.099609375 396.13671875 385.93359375 396.13671875 396.030273438 c 0
 396.13671875 400.983398438 397.459960938 405.630859375 399.772460938 409.635742188 c 0
 404.376953125 417.618164062 412.90234375 423.026367188 422.712890625 423.272460938 c 0
 422.934570312 423.27734375 423.173828125 423.262695312 423.396484375 423.262695312 c 0
 428.359375 423.262695312 433.013671875 421.934570312 437.024414062 419.615234375 c 2
 482.727539062 393.229492188 l 1
 482.727539062 446 l 2
 482.727539062 461.051757812 494.948242188 473.272460938 510 473.272460938 c 0
645 263.272460938 m 0
 660.051757812 263.272460938 672.272460938 251.051757812 672.272460938 236 c 2
 672.272460938 183.229492188 l 1
 717.975585938 209.615234375 l 2
 721.984375 211.932617188 726.658203125 213.276367188 731.6171875 213.276367188 c 0
 731.76953125 213.276367188 731.921875 213.275390625 732.07421875 213.272460938 c 0
 741.974609375 213.102539062 750.587890625 207.674804688 755.227539062 199.635742188 c 0
 757.540039062 195.630859375 758.909179688 190.971679688 758.909179688 186.018554688 c 0
 758.909179688 175.921875 753.411132812 167.099609375 745.249023438 162.384765625 c 2
 699.545898438 136 l 1
 745.249023438 109.615234375 l 2
 753.411132812 104.899414062 758.86328125 96.0654296875 758.86328125 85.9697265625 c 0
 758.86328125 81.015625 757.540039062 76.369140625 755.227539062 72.36328125 c 0
 750.512695312 64.2001953125 741.677734375 58.7490234375 731.58203125 58.7490234375 c 0
 726.627929688 58.7490234375 721.981445312 60.072265625 717.975585938 62.384765625 c 2
 672.272460938 88.76953125 l 1
 672.272460938 36 l 2
 672.272460938 20.947265625 660.051757812 8.7265625 645 8.7265625 c 0
 629.948242188 8.7265625 617.727539062 20.947265625 617.727539062 36 c 2
 617.727539062 88.76953125 l 1
 572.024414062 62.384765625 l 2
 568.018554688 60.072265625 563.359375 58.7021484375 558.40625 58.7021484375 c 0
 548.309570312 58.7021484375 539.487304688 64.2001953125 534.772460938 72.36328125 c 0
 532.459960938 76.369140625 531.090820312 81.02734375 531.090820312 85.9814453125 c 0
 531.090820312 96.0771484375 536.588867188 104.899414062 544.750976562 109.615234375 c 2
 590.454101562 136 l 1
 544.750976562 162.384765625 l 2
 536.588867188 167.099609375 531.13671875 175.93359375 531.13671875 186.030273438 c 0
 531.13671875 190.983398438 532.459960938 195.630859375 534.772460938 199.635742188 c 0
 539.376953125 207.618164062 547.90234375 213.026367188 557.712890625 213.272460938 c 0
 557.934570312 213.27734375 558.173828125 213.262695312 558.396484375 213.262695312 c 0
 563.359375 213.262695312 568.013671875 211.934570312 572.024414062 209.615234375 c 2
 617.727539062 183.229492188 l 1
 617.727539062 236 l 2
 617.727539062 251.051757812 629.948242188 263.272460938 645 263.272460938 c 0
375 263.272460938 m 0
 390.051757812 263.272460938 402.272460938 251.051757812 402.272460938 236 c 2
 402.272460938 183.229492188 l 1
 447.975585938 209.615234375 l 2
 451.984375 211.932617188 456.658203125 213.276367188 461.6171875 213.276367188 c 0
 461.76953125 213.276367188 461.921875 213.275390625 462.07421875 213.272460938 c 0
 471.974609375 213.102539062 480.587890625 207.674804688 485.227539062 199.635742188 c 0
 487.540039062 195.630859375 488.909179688 190.971679688 488.909179688 186.018554688 c 0
 488.909179688 175.921875 483.411132812 167.099609375 475.249023438 162.384765625 c 2
 429.545898438 136 l 1
 475.249023438 109.615234375 l 2
 483.411132812 104.899414062 488.86328125 96.0654296875 488.86328125 85.9697265625 c 0
 488.86328125 81.015625 487.540039062 76.369140625 485.227539062 72.36328125 c 0
 480.512695312 64.2001953125 471.677734375 58.7490234375 461.58203125 58.7490234375 c 0
 456.627929688 58.7490234375 451.981445312 60.072265625 447.975585938 62.384765625 c 2
 402.272460938 88.76953125 l 1
 402.272460938 36 l 2
 402.272460938 20.947265625 390.051757812 8.7265625 375 8.7265625 c 0
 359.948242188 8.7265625 347.727539062 20.947265625 347.727539062 36 c 2
 347.727539062 88.76953125 l 1
 302.024414062 62.384765625 l 2
 298.018554688 60.072265625 293.359375 58.7021484375 288.40625 58.7021484375 c 0
 278.309570312 58.7021484375 269.487304688 64.2001953125 264.772460938 72.36328125 c 0
 262.459960938 76.369140625 261.090820312 81.02734375 261.090820312 85.9814453125 c 0
 261.090820312 96.0771484375 266.588867188 104.899414062 274.750976562 109.615234375 c 2
 320.454101562 136 l 1
 274.750976562 162.384765625 l 2
 266.588867188 167.099609375 261.13671875 175.93359375 261.13671875 186.030273438 c 0
 261.13671875 190.983398438 262.459960938 195.630859375 264.772460938 199.635742188 c 0
 269.376953125 207.618164062 277.90234375 213.026367188 287.712890625 213.272460938 c 0
 287.934570312 213.27734375 288.173828125 213.262695312 288.396484375 213.262695312 c 0
 293.359375 213.262695312 298.013671875 211.934570312 302.024414062 209.615234375 c 2
 347.727539062 183.229492188 l 1
 347.727539062 236 l 2
 347.727539062 251.051757812 359.948242188 263.272460938 375 263.272460938 c 0
EndSplineSet
Validated: 524289
Comment: "Continuous fall of snowflakes,+AAoA-moderate at time of observation"
EndChar

StartChar: uF0115
Encoding: 983317 983317 81
Width: 1000
Flags: HW
LayerCount: 2
Fore
SplineSet
525 789.272460938 m 0
 540.051757812 789.272460938 552.272460938 777.051757812 552.272460938 762 c 2
 552.272460938 709.229492188 l 1
 597.975585938 735.615234375 l 2
 601.984375 737.932617188 606.658203125 739.276367188 611.6171875 739.276367188 c 0
 611.76953125 739.276367188 611.921875 739.275390625 612.07421875 739.272460938 c 0
 621.974609375 739.102539062 630.587890625 733.674804688 635.227539062 725.635742188 c 0
 637.540039062 721.630859375 638.909179688 716.971679688 638.909179688 712.018554688 c 0
 638.909179688 701.921875 633.411132812 693.099609375 625.249023438 688.384765625 c 2
 579.545898438 662 l 1
 625.249023438 635.615234375 l 2
 633.411132812 630.899414062 638.86328125 622.065429688 638.86328125 611.969726562 c 0
 638.86328125 607.015625 637.540039062 602.369140625 635.227539062 598.36328125 c 0
 630.512695312 590.200195312 621.677734375 584.749023438 611.58203125 584.749023438 c 0
 606.627929688 584.749023438 601.981445312 586.072265625 597.975585938 588.384765625 c 2
 552.272460938 614.76953125 l 1
 552.272460938 562 l 2
 552.272460938 546.947265625 540.051757812 534.7265625 525 534.7265625 c 0
 509.948242188 534.7265625 497.727539062 546.947265625 497.727539062 562 c 2
 497.727539062 614.76953125 l 1
 452.024414062 588.384765625 l 2
 448.018554688 586.072265625 443.359375 584.702148438 438.40625 584.702148438 c 0
 428.309570312 584.702148438 419.487304688 590.200195312 414.772460938 598.36328125 c 0
 412.459960938 602.369140625 411.090820312 607.02734375 411.090820312 611.981445312 c 0
 411.090820312 622.077148438 416.588867188 630.899414062 424.750976562 635.615234375 c 2
 470.454101562 662 l 1
 424.750976562 688.384765625 l 2
 416.588867188 693.099609375 411.13671875 701.93359375 411.13671875 712.030273438 c 0
 411.13671875 716.983398438 412.459960938 721.630859375 414.772460938 725.635742188 c 0
 419.376953125 733.618164062 427.90234375 739.026367188 437.712890625 739.272460938 c 0
 437.934570312 739.27734375 438.173828125 739.262695312 438.396484375 739.262695312 c 0
 443.359375 739.262695312 448.013671875 737.934570312 452.024414062 735.615234375 c 2
 497.727539062 709.229492188 l 1
 497.727539062 762 l 2
 497.727539062 777.051757812 509.948242188 789.272460938 525 789.272460938 c 0
525 524.272460938 m 0
 540.051757812 524.272460938 552.272460938 512.051757812 552.272460938 497 c 2
 552.272460938 444.229492188 l 1
 597.975585938 470.615234375 l 2
 601.984375 472.932617188 606.658203125 474.276367188 611.6171875 474.276367188 c 0
 611.76953125 474.276367188 611.921875 474.275390625 612.07421875 474.272460938 c 0
 621.974609375 474.102539062 630.587890625 468.674804688 635.227539062 460.635742188 c 0
 637.540039062 456.630859375 638.909179688 451.971679688 638.909179688 447.018554688 c 0
 638.909179688 436.921875 633.411132812 428.099609375 625.249023438 423.384765625 c 2
 579.545898438 397 l 1
 625.249023438 370.615234375 l 2
 633.411132812 365.899414062 638.86328125 357.065429688 638.86328125 346.969726562 c 0
 638.86328125 342.015625 637.540039062 337.369140625 635.227539062 333.36328125 c 0
 630.512695312 325.200195312 621.677734375 319.749023438 611.58203125 319.749023438 c 0
 606.627929688 319.749023438 601.981445312 321.072265625 597.975585938 323.384765625 c 2
 552.272460938 349.76953125 l 1
 552.272460938 297 l 2
 552.272460938 281.947265625 540.051757812 269.7265625 525 269.7265625 c 0
 509.948242188 269.7265625 497.727539062 281.947265625 497.727539062 297 c 2
 497.727539062 349.76953125 l 1
 452.024414062 323.384765625 l 2
 448.018554688 321.072265625 443.359375 319.702148438 438.40625 319.702148438 c 0
 428.309570312 319.702148438 419.487304688 325.200195312 414.772460938 333.36328125 c 0
 412.459960938 337.369140625 411.090820312 342.02734375 411.090820312 346.981445312 c 0
 411.090820312 357.077148438 416.588867188 365.899414062 424.750976562 370.615234375 c 2
 470.454101562 397 l 1
 424.750976562 423.384765625 l 2
 416.588867188 428.099609375 411.13671875 436.93359375 411.13671875 447.030273438 c 0
 411.13671875 451.983398438 412.459960938 456.630859375 414.772460938 460.635742188 c 0
 419.376953125 468.618164062 427.90234375 474.026367188 437.712890625 474.272460938 c 0
 437.934570312 474.27734375 438.173828125 474.262695312 438.396484375 474.262695312 c 0
 443.359375 474.262695312 448.013671875 472.934570312 452.024414062 470.615234375 c 2
 497.727539062 444.229492188 l 1
 497.727539062 497 l 2
 497.727539062 512.051757812 509.948242188 524.272460938 525 524.272460938 c 0
525 263.272460938 m 0
 540.051757812 263.272460938 552.272460938 251.051757812 552.272460938 236 c 2
 552.272460938 183.229492188 l 1
 597.975585938 209.615234375 l 2
 601.984375 211.932617188 606.658203125 213.276367188 611.6171875 213.276367188 c 0
 611.76953125 213.276367188 611.921875 213.275390625 612.07421875 213.272460938 c 0
 621.974609375 213.102539062 630.587890625 207.674804688 635.227539062 199.635742188 c 0
 637.540039062 195.630859375 638.909179688 190.971679688 638.909179688 186.018554688 c 0
 638.909179688 175.921875 633.411132812 167.099609375 625.249023438 162.384765625 c 2
 579.545898438 136 l 1
 625.249023438 109.615234375 l 2
 633.411132812 104.899414062 638.86328125 96.0654296875 638.86328125 85.9697265625 c 0
 638.86328125 81.015625 637.540039062 76.369140625 635.227539062 72.36328125 c 0
 630.512695312 64.2001953125 621.677734375 58.7490234375 611.58203125 58.7490234375 c 0
 606.627929688 58.7490234375 601.981445312 60.072265625 597.975585938 62.384765625 c 2
 552.272460938 88.76953125 l 1
 552.272460938 36 l 2
 552.272460938 20.947265625 540.051757812 8.7265625 525 8.7265625 c 0
 509.948242188 8.7265625 497.727539062 20.947265625 497.727539062 36 c 2
 497.727539062 88.76953125 l 1
 452.024414062 62.384765625 l 2
 448.018554688 60.072265625 443.359375 58.7021484375 438.40625 58.7021484375 c 0
 428.309570312 58.7021484375 419.487304688 64.2001953125 414.772460938 72.36328125 c 0
 412.459960938 76.369140625 411.090820312 81.02734375 411.090820312 85.9814453125 c 0
 411.090820312 96.0771484375 416.588867188 104.899414062 424.750976562 109.615234375 c 2
 470.454101562 136 l 1
 424.750976562 162.384765625 l 2
 416.588867188 167.099609375 411.13671875 175.93359375 411.13671875 186.030273438 c 0
 411.13671875 190.983398438 412.459960938 195.630859375 414.772460938 199.635742188 c 0
 419.376953125 207.618164062 427.90234375 213.026367188 437.712890625 213.272460938 c 0
 437.934570312 213.27734375 438.173828125 213.262695312 438.396484375 213.262695312 c 0
 443.359375 213.262695312 448.013671875 211.934570312 452.024414062 209.615234375 c 2
 497.727539062 183.229492188 l 1
 497.727539062 236 l 2
 497.727539062 251.051757812 509.948242188 263.272460938 525 263.272460938 c 0
EndSplineSet
Validated: 524289
Comment: "Intermittent fall of snowflakes,+AAoA-heavy at time of observation"
EndChar

StartChar: uF0118
Encoding: 983320 983320 82
Width: 1000
Flags: H
LayerCount: 2
Fore
SplineSet
490.821289062 345.987304688 m 1
 592.987304688 174.538085938 l 1
 818.09375 174.538085938 l 1
 818.09375 119.993164062 l 1
 625.48046875 119.993164062 l 1
 697 0 l 1
 284.642578125 0 l 1
 356.126953125 119.993164062 l 1
 163.548828125 119.993164062 l 1
 163.548828125 174.538085938 l 1
 388.655273438 174.538085938 l 1
 467.383789062 306.67578125 l 1
 490.821289062 345.987304688 l 1
490.821289062 239.453125 m 1
 452.149414062 174.538085938 l 1
 529.493164062 174.538085938 l 1
 490.821289062 239.453125 l 1
419.62109375 119.993164062 m 1
 380.629882812 54.5458984375 l 1
 601.012695312 54.5458984375 l 1
 562.021484375 119.993164062 l 1
 419.62109375 119.993164062 l 1
EndSplineSet
Validated: 524289
Comment: "Granular snow (with or without+AAoA-fog"
EndChar

StartChar: uF0119
Encoding: 983321 983321 83
Width: 1000
Flags: H
LayerCount: 2
Fore
SplineSet
442.297851562 247.454101562 m 0
 442.615234375 247.46484375 442.904296875 247.470703125 443.223632812 247.470703125 c 0
 443.543945312 247.470703125 443.862304688 247.46484375 444.1796875 247.454101562 c 0
 451.376953125 247.234375 457.893554688 244.223632812 462.646484375 239.463867188 c 2
 534.272460938 167.837890625 l 1
 605.8984375 239.463867188 l 2
 610.836914062 244.409179688 617.651367188 247.465820312 625.184570312 247.465820312 c 0
 625.456054688 247.465820312 625.727539062 247.461914062 625.998046875 247.454101562 c 0
 633.1953125 247.234375 639.711914062 244.223632812 644.463867188 239.463867188 c 0
 649.399414062 234.52734375 652.454101562 227.703125 652.454101562 220.177734375 c 0
 652.454101562 212.65234375 649.399414062 205.834960938 644.463867188 200.8984375 c 2
 600.110351562 156.544921875 l 1
 807 156.544921875 l 1
 807 102 l 1
 600.110351562 102 l 1
 644.463867188 57.646484375 l 2
 649.399414062 52.7099609375 652.454101562 45.884765625 652.454101562 38.359375 c 0
 652.454101562 30.8349609375 649.399414062 24.017578125 644.463867188 19.0810546875 c 0
 639.52734375 14.1455078125 632.703125 11.0908203125 625.177734375 11.0908203125 c 0
 617.65234375 11.0908203125 610.834960938 14.1455078125 605.8984375 19.0810546875 c 2
 534.272460938 90.70703125 l 1
 462.646484375 19.0810546875 l 2
 457.709960938 14.1455078125 450.884765625 11.0908203125 443.359375 11.0908203125 c 0
 435.834960938 11.0908203125 429.017578125 14.1455078125 424.081054688 19.0810546875 c 0
 419.145507812 24.017578125 416.090820312 30.841796875 416.090820312 38.3671875 c 0
 416.090820312 45.892578125 419.145507812 52.7099609375 424.081054688 57.646484375 c 2
 468.434570312 102 l 1
 261.544921875 102 l 1
 261.544921875 156.544921875 l 1
 468.434570312 156.544921875 l 1
 424.081054688 200.8984375 l 2
 419.145507812 205.834960938 416.090820312 212.66015625 416.090820312 220.185546875 c 0
 416.090820312 227.709960938 419.145507812 234.52734375 424.081054688 239.463867188 c 0
 428.776367188 244.170898438 435.200195312 247.169921875 442.297851562 247.454101562 c 0
EndSplineSet
Validated: 524289
Comment: "Isolated starlike snow+AAoA-crystals (with or without fog)"
EndChar

StartChar: uF011A
Encoding: 983322 983322 84
Width: 1000
Flags: H
LayerCount: 2
Fore
SplineSet
487.799804688 270.880859375 m 0
 534.887695312 270.880859375 573.240234375 232.528320312 573.240234375 185.440429688 c 0
 573.240234375 138.352539062 534.887695312 100 487.799804688 100 c 0
 440.711914062 100 402.359375 138.352539062 402.359375 185.440429688 c 0
 402.359375 232.528320312 440.711914062 270.880859375 487.799804688 270.880859375 c 0
487.799804688 252.69921875 m 0
 525.061523438 252.69921875 555.05859375 222.702148438 555.05859375 185.440429688 c 0
 555.05859375 148.178710938 525.061523438 118.181640625 487.799804688 118.181640625 c 0
 450.538085938 118.181640625 420.541015625 148.178710938 420.541015625 185.440429688 c 0
 420.541015625 222.702148438 450.538085938 252.69921875 487.799804688 252.69921875 c 0
487.799804688 556.356445312 m 1
 809 0 l 1
 166.599609375 0 l 1
 464.184570312 515.447265625 l 1
 487.799804688 556.356445312 l 1
487.799804688 447.265625 m 1
 261.059570312 54.5458984375 l 1
 714.540039062 54.5458984375 l 1
 487.799804688 447.265625 l 1
EndSplineSet
Validated: 524297
Comment: "Ice pellets (sleet, U.S. definition)"
EndChar

StartChar: uF0138
Encoding: 983352 983352 85
Width: 1000
Flags: HW
LayerCount: 2
Fore
SplineSet
324.116210938 383.234375 m 1
 487 383.234375 l 1
 649.883789062 383.234375 l 1
 487 0 l 1
 324.116210938 383.234375 l 1
392.720703125 337.852539062 m 1
 487 116.025390625 l 1
 581.279296875 337.852539062 l 1
 487 337.852539062 l 1
 392.720703125 337.852539062 l 1
399.426757812 488.559570312 m 0
 399.426757812 536.916015625 438.625976562 576.1328125 487 576.1328125 c 0
 535.374023438 576.1328125 574.573242188 536.916015625 574.573242188 488.559570312 c 0
 574.573242188 440.185546875 535.374023438 400.986328125 487 400.986328125 c 0
 438.625976562 400.986328125 399.426757812 440.185546875 399.426757812 488.559570312 c 0
396.234375 488.559570312 m 0
 396.234375 438.424804688 436.865234375 397.793945312 487 397.793945312 c 0
 537.134765625 397.793945312 577.765625 438.424804688 577.765625 488.559570312 c 0
 577.765625 538.676757812 537.134765625 579.32421875 487 579.32421875 c 0
 436.865234375 579.32421875 396.234375 538.676757812 396.234375 488.559570312 c 0
397.83203125 488.553710938 m 0
 397.83203125 537.799804688 437.75390625 577.721679688 487 577.721679688 c 0
 536.24609375 577.721679688 576.16796875 537.799804688 576.16796875 488.553710938 c 0
 576.16796875 439.30859375 536.24609375 399.38671875 487 399.38671875 c 0
 437.75390625 399.38671875 397.83203125 439.30859375 397.83203125 488.553710938 c 0
EndSplineSet
Validated: 524297
Comment: "Slight rain showers(s)"
EndChar

StartChar: uF013A
Encoding: 983354 983354 86
Width: 1000
Flags: H
LayerCount: 2
Fore
SplineSet
324.116210938 383.234375 m 1
 487 383.234375 l 1
 649.883789062 383.234375 l 1
 487 0 l 1
 324.116210938 383.234375 l 1
392.720703125 337.852539062 m 1
 487 116.025390625 l 1
 581.279296875 337.852539062 l 1
 487 337.852539062 l 1
 392.720703125 337.852539062 l 1
399.426757812 488.559570312 m 0
 399.426757812 536.916015625 438.625976562 576.1328125 487 576.1328125 c 0
 535.374023438 576.1328125 574.573242188 536.916015625 574.573242188 488.559570312 c 0
 574.573242188 440.185546875 535.374023438 400.986328125 487 400.986328125 c 0
 438.625976562 400.986328125 399.426757812 440.185546875 399.426757812 488.559570312 c 0
396.234375 488.559570312 m 0
 396.234375 438.424804688 436.865234375 397.793945312 487 397.793945312 c 0
 537.134765625 397.793945312 577.765625 438.424804688 577.765625 488.559570312 c 0
 577.765625 538.676757812 537.134765625 579.32421875 487 579.32421875 c 0
 436.865234375 579.32421875 396.234375 538.676757812 396.234375 488.559570312 c 0
397.83203125 488.553710938 m 0
 397.83203125 537.799804688 437.75390625 577.721679688 487 577.721679688 c 0
 536.24609375 577.721679688 576.16796875 537.799804688 576.16796875 488.553710938 c 0
 576.16796875 439.30859375 536.24609375 399.38671875 487 399.38671875 c 0
 437.75390625 399.38671875 397.83203125 439.30859375 397.83203125 488.553710938 c 0
399.426757812 687.387695312 m 0
 399.426757812 735.76171875 438.625976562 774.9609375 487 774.9609375 c 0
 535.374023438 774.9609375 574.573242188 735.76171875 574.573242188 687.387695312 c 0
 574.573242188 639.03125 535.374023438 599.814453125 487 599.814453125 c 0
 438.625976562 599.814453125 399.426757812 639.03125 399.426757812 687.387695312 c 0
396.234375 687.387695312 m 0
 396.234375 637.270507812 436.865234375 596.622070312 487 596.622070312 c 0
 537.134765625 596.622070312 577.765625 637.270507812 577.765625 687.387695312 c 0
 577.765625 737.522460938 537.134765625 778.15234375 487 778.15234375 c 0
 436.865234375 778.15234375 396.234375 737.522460938 396.234375 687.387695312 c 0
397.83203125 687.39453125 m 0
 397.83203125 736.640625 437.75390625 776.561523438 487 776.561523438 c 0
 536.24609375 776.561523438 576.16796875 736.640625 576.16796875 687.39453125 c 0
 576.16796875 638.1484375 536.24609375 598.2265625 487 598.2265625 c 0
 437.75390625 598.2265625 397.83203125 638.1484375 397.83203125 687.39453125 c 0
EndSplineSet
Validated: 524297
Comment: "Violent rain shower(s)"
EndChar

StartChar: uF0139
Encoding: 983353 983353 87
Width: 1000
Flags: H
LayerCount: 2
Fore
SplineSet
404.426757812 521.387695312 m 0
 404.426757812 569.76171875 443.625976562 608.9609375 492 608.9609375 c 0
 519.255103168 608.9609375 543.597692032 596.517262761 559.657678628 577.000001245 c 0
 572.101938127 561.876833768 579.573242188 542.506615582 579.573242188 521.387695312 c 0
 579.573242188 473.03125 540.374023438 433.814453125 492 433.814453125 c 0
 443.625976562 433.814453125 404.426757812 473.03125 404.426757812 521.387695312 c 0
401.234375 521.387695312 m 0
 401.234375 471.270507812 441.865234375 430.622070312 492 430.622070312 c 0
 542.134765625 430.622070312 582.765625 471.270507812 582.765625 521.387695312 c 0
 582.765625 571.522460938 542.134765625 612.15234375 492 612.15234375 c 0
 441.865234375 612.15234375 401.234375 571.522460938 401.234375 521.387695312 c 0
402.83203125 521.39453125 m 0
 402.83203125 570.640625 442.75390625 610.561523438 492 610.561523438 c 0
 541.24609375 610.561523438 581.16796875 570.640625 581.16796875 521.39453125 c 0
 581.16796875 472.1484375 541.24609375 432.2265625 492 432.2265625 c 0
 442.75390625 432.2265625 402.83203125 472.1484375 402.83203125 521.39453125 c 0
320.71875 405.918945312 m 1
 493 405.918945312 l 1
 665.28125 405.918945312 l 1
 493 0.5751953125 l 1
 320.71875 405.918945312 l 1
393.28125 357.918945312 m 1
 413.6875 309.918945312 l 1
 572.3125 309.918945312 l 1
 592.71875 357.918945312 l 1
 493 357.918945312 l 1
 393.28125 357.918945312 l 1
434.09375 261.918945312 m 1
 493 123.293945312 l 1
 551.90625 261.918945312 l 1
 434.09375 261.918945312 l 1
EndSplineSet
Validated: 524297
Comment: "Moderate or heavy rain shower(s)"
EndChar

StartChar: uF013B
Encoding: 983355 983355 88
Width: 1000
Flags: HW
LayerCount: 2
Fore
SplineSet
489 563.455078125 m 0
 498.6328125 563.455078125 506.455078125 555.6328125 506.455078125 546 c 2
 506.455078125 512.2265625 l 1
 535.705078125 529.114257812 l 2
 538.270507812 530.596679688 541.260742188 531.45703125 544.435546875 531.45703125 c 0
 544.533203125 531.45703125 544.629882812 531.456054688 544.727539062 531.455078125 c 0
 551.064453125 531.345703125 556.576171875 527.872070312 559.544921875 522.7265625 c 0
 561.025390625 520.1640625 561.901367188 517.181640625 561.901367188 514.01171875 c 0
 561.901367188 507.549804688 558.3828125 501.904296875 553.159179688 498.885742188 c 2
 523.909179688 482 l 1
 553.159179688 465.114257812 l 2
 558.3828125 462.095703125 561.873046875 456.442382812 561.873046875 449.98046875 c 0
 561.873046875 446.810546875 561.025390625 443.8359375 559.544921875 441.272460938 c 0
 556.528320312 436.048828125 550.873046875 432.559570312 544.412109375 432.559570312 c 0
 541.2421875 432.559570312 538.267578125 433.40625 535.705078125 434.885742188 c 2
 506.455078125 451.772460938 l 1
 506.455078125 418 l 2
 506.455078125 408.366210938 498.6328125 400.544921875 489 400.544921875 c 0
 479.3671875 400.544921875 471.544921875 408.366210938 471.544921875 418 c 2
 471.544921875 451.772460938 l 1
 442.294921875 434.885742188 l 2
 439.732421875 433.40625 436.75 432.529296875 433.580078125 432.529296875 c 0
 427.118164062 432.529296875 421.471679688 436.048828125 418.455078125 441.272460938 c 0
 416.974609375 443.8359375 416.098632812 446.817382812 416.098632812 449.98828125 c 0
 416.098632812 456.44921875 419.6171875 462.095703125 424.840820312 465.114257812 c 2
 454.090820312 482 l 1
 424.840820312 498.885742188 l 2
 419.6171875 501.904296875 416.126953125 507.557617188 416.126953125 514.01953125 c 0
 416.126953125 517.189453125 416.974609375 520.1640625 418.455078125 522.7265625 c 0
 421.401367188 527.8359375 426.857421875 531.296875 433.135742188 531.455078125 c 0
 433.278320312 531.458007812 433.431640625 531.448242188 433.573242188 531.448242188 c 0
 436.75 531.448242188 439.728515625 530.598632812 442.294921875 529.114257812 c 2
 471.544921875 512.2265625 l 1
 471.544921875 546 l 2
 471.544921875 555.6328125 479.3671875 563.455078125 489 563.455078125 c 0
324.116210938 383.234375 m 1
 487 383.234375 l 1
 649.883789062 383.234375 l 1
 487 0 l 1
 324.116210938 383.234375 l 1
392.720703125 337.852539062 m 1
 487 116.025390625 l 1
 581.279296875 337.852539062 l 1
 487 337.852539062 l 1
 392.720703125 337.852539062 l 1
399.426757812 689.559570312 m 0
 399.426757812 737.916015625 438.625976562 777.1328125 487 777.1328125 c 0
 535.374023438 777.1328125 574.573242188 737.916015625 574.573242188 689.559570312 c 0
 574.573242188 641.185546875 535.374023438 601.986328125 487 601.986328125 c 0
 438.625976562 601.986328125 399.426757812 641.185546875 399.426757812 689.559570312 c 0
396.234375 689.559570312 m 0
 396.234375 639.424804688 436.865234375 598.793945312 487 598.793945312 c 0
 537.134765625 598.793945312 577.765625 639.424804688 577.765625 689.559570312 c 0
 577.765625 739.676757812 537.134765625 780.32421875 487 780.32421875 c 0
 436.865234375 780.32421875 396.234375 739.676757812 396.234375 689.559570312 c 0
397.83203125 689.553710938 m 0
 397.83203125 738.799804688 437.75390625 778.721679688 487 778.721679688 c 0
 536.24609375 778.721679688 576.16796875 738.799804688 576.16796875 689.553710938 c 0
 576.16796875 640.30859375 536.24609375 600.38671875 487 600.38671875 c 0
 437.75390625 600.38671875 397.83203125 640.30859375 397.83203125 689.553710938 c 0
EndSplineSet
Validated: 524297
Comment: "Slight showers(s) of rain+AAoA-and snow mixed"
EndChar

StartChar: uF013C
Encoding: 983356 983356 89
Width: 1000
Flags: HW
LayerCount: 2
Fore
SplineSet
320.71875 405.918945312 m 1
 493 405.918945312 l 1
 665.28125 405.918945312 l 1
 493 0.5751953125 l 1
 320.71875 405.918945312 l 1
393.28125 357.918945312 m 1
 413.6875 309.918945312 l 1
 572.3125 309.918945312 l 1
 592.71875 357.918945312 l 1
 493 357.918945312 l 1
 393.28125 357.918945312 l 1
434.09375 261.918945312 m 1
 493 123.293945312 l 1
 551.90625 261.918945312 l 1
 434.09375 261.918945312 l 1
489 581.455078125 m 0
 498.6328125 581.455078125 506.455078125 580.6328125 506.455078125 571 c 2
 506.455078125 537.2265625 l 1
 535.705078125 554.114257812 l 2
 538.270507812 555.596679688 541.260742188 556.45703125 544.435546875 556.45703125 c 0
 544.533203125 556.45703125 544.629882812 556.456054688 544.727539062 556.455078125 c 0
 551.064453125 556.345703125 556.576171875 552.872070312 559.544921875 547.7265625 c 0
 561.025390625 545.1640625 561.901367188 542.181640625 561.901367188 539.01171875 c 0
 561.901367188 532.549804688 558.3828125 526.904296875 553.159179688 523.885742188 c 2
 523.909179688 507 l 1
 553.159179688 490.114257812 l 2
 558.3828125 487.095703125 561.873046875 481.442382812 561.873046875 474.98046875 c 0
 561.873046875 471.810546875 561.025390625 468.8359375 559.544921875 466.272460938 c 0
 556.528320312 461.048828125 550.873046875 457.559570312 544.412109375 457.559570312 c 0
 541.2421875 457.559570312 538.267578125 458.40625 535.705078125 459.885742188 c 2
 506.455078125 476.772460938 l 1
 506.455078125 443 l 2
 506.455078125 433.366210938 498.6328125 425.544921875 489 425.544921875 c 0
 479.3671875 425.544921875 471.544921875 433.366210938 471.544921875 443 c 2
 471.544921875 476.772460938 l 1
 442.294921875 459.885742188 l 2
 439.732421875 458.40625 436.75 457.529296875 433.580078125 457.529296875 c 0
 427.118164062 457.529296875 421.471679688 461.048828125 418.455078125 466.272460938 c 0
 416.974609375 468.8359375 416.098632812 471.817382812 416.098632812 474.98828125 c 0
 416.098632812 481.44921875 419.6171875 487.095703125 424.840820312 490.114257812 c 2
 454.090820312 507 l 1
 424.840820312 523.885742188 l 2
 419.6171875 526.904296875 416.126953125 532.557617188 416.126953125 539.01953125 c 0
 416.126953125 542.189453125 416.974609375 545.1640625 418.455078125 547.7265625 c 0
 421.401367188 552.8359375 426.857421875 556.296875 433.135742188 556.455078125 c 0
 433.278320312 556.458007812 433.431640625 556.448242188 433.573242188 556.448242188 c 0
 436.75 556.448242188 439.728515625 555.598632812 442.294921875 554.114257812 c 2
 471.544921875 537.2265625 l 1
 471.544921875 571 l 2
 471.544921875 580.6328125 479.3671875 581.455078125 489 581.455078125 c 0
399.426757812 696.559570312 m 0
 399.426757812 744.916015625 438.625976562 784.1328125 487 784.1328125 c 0
 535.374023438 784.1328125 574.573242188 744.916015625 574.573242188 696.559570312 c 0
 574.573242188 648.185546875 535.374023438 608.986328125 487 608.986328125 c 0
 438.625976562 608.986328125 399.426757812 648.185546875 399.426757812 696.559570312 c 0
396.234375 696.559570312 m 0
 396.234375 646.424804688 436.865234375 605.793945312 487 605.793945312 c 0
 537.134765625 605.793945312 577.765625 646.424804688 577.765625 696.559570312 c 0
 577.765625 746.676757812 537.134765625 787.32421875 487 787.32421875 c 0
 436.865234375 787.32421875 396.234375 746.676757812 396.234375 696.559570312 c 0
397.83203125 696.553710938 m 0
 397.83203125 745.799804688 437.75390625 785.721679688 487 785.721679688 c 0
 536.24609375 785.721679688 576.16796875 745.799804688 576.16796875 696.553710938 c 0
 576.16796875 647.30859375 536.24609375 607.38671875 487 607.38671875 c 0
 437.75390625 607.38671875 397.83203125 647.30859375 397.83203125 696.553710938 c 0
EndSplineSet
Validated: 524297
Comment: "Moderate or heavy shower(s) of rain and snow mized"
EndChar

StartChar: uF013D
Encoding: 983357 983357 90
Width: 1000
Flags: HW
LayerCount: 2
Fore
SplineSet
489 561.455078125 m 0
 498.6328125 561.455078125 506.455078125 560.6328125 506.455078125 551 c 2
 506.455078125 517.2265625 l 1
 535.705078125 534.114257812 l 2
 538.270507812 535.596679688 541.260742188 536.45703125 544.435546875 536.45703125 c 0
 544.533203125 536.45703125 544.629882812 536.456054688 544.727539062 536.455078125 c 0
 551.064453125 536.345703125 556.576171875 532.872070312 559.544921875 527.7265625 c 0
 561.025390625 525.1640625 561.901367188 522.181640625 561.901367188 519.01171875 c 0
 561.901367188 512.549804688 558.3828125 506.904296875 553.159179688 503.885742188 c 2
 523.909179688 487 l 1
 553.159179688 470.114257812 l 2
 558.3828125 467.095703125 561.873046875 461.442382812 561.873046875 454.98046875 c 0
 561.873046875 451.810546875 561.025390625 448.8359375 559.544921875 446.272460938 c 0
 556.528320312 441.048828125 550.873046875 437.559570312 544.412109375 437.559570312 c 0
 541.2421875 437.559570312 538.267578125 438.40625 535.705078125 439.885742188 c 2
 506.455078125 456.772460938 l 1
 506.455078125 423 l 2
 506.455078125 413.366210938 498.6328125 405.544921875 489 405.544921875 c 0
 479.3671875 405.544921875 471.544921875 413.366210938 471.544921875 423 c 2
 471.544921875 456.772460938 l 1
 442.294921875 439.885742188 l 2
 439.732421875 438.40625 436.75 437.529296875 433.580078125 437.529296875 c 0
 427.118164062 437.529296875 421.471679688 441.048828125 418.455078125 446.272460938 c 0
 416.974609375 448.8359375 416.098632812 451.817382812 416.098632812 454.98828125 c 0
 416.098632812 461.44921875 419.6171875 467.095703125 424.840820312 470.114257812 c 2
 454.090820312 487 l 1
 424.840820312 503.885742188 l 2
 419.6171875 506.904296875 416.126953125 512.557617188 416.126953125 519.01953125 c 0
 416.126953125 522.189453125 416.974609375 525.1640625 418.455078125 527.7265625 c 0
 421.401367188 532.8359375 426.857421875 536.296875 433.135742188 536.455078125 c 0
 433.278320312 536.458007812 433.431640625 536.448242188 433.573242188 536.448242188 c 0
 436.75 536.448242188 439.728515625 535.598632812 442.294921875 534.114257812 c 2
 471.544921875 517.2265625 l 1
 471.544921875 551 l 2
 471.544921875 560.6328125 479.3671875 561.455078125 489 561.455078125 c 0
324.116210938 383.234375 m 1
 487 383.234375 l 1
 649.883789062 383.234375 l 1
 487 0 l 1
 324.116210938 383.234375 l 1
392.720703125 337.852539062 m 1
 487 116.025390625 l 1
 581.279296875 337.852539062 l 1
 487 337.852539062 l 1
 392.720703125 337.852539062 l 1
EndSplineSet
Validated: 524289
EndChar

StartChar: uF013E
Encoding: 983358 983358 91
Width: 1000
Flags: HW
LayerCount: 2
Fore
SplineSet
493 592.455078125 m 0
 502.6328125 592.455078125 510.455078125 591.6328125 510.455078125 582 c 2
 510.455078125 548.2265625 l 1
 539.705078125 565.114257812 l 2
 542.270507812 566.596679688 545.260742188 567.45703125 548.435546875 567.45703125 c 0
 548.533203125 567.45703125 548.629882812 567.456054688 548.727539062 567.455078125 c 0
 555.064453125 567.345703125 560.576171875 563.872070312 563.544921875 558.7265625 c 0
 565.025390625 556.1640625 565.901367188 553.181640625 565.901367188 550.01171875 c 0
 565.901367188 543.549804688 562.3828125 537.904296875 557.159179688 534.885742188 c 2
 527.909179688 518 l 1
 557.159179688 501.114257812 l 2
 562.3828125 498.095703125 565.873046875 492.442382812 565.873046875 485.98046875 c 0
 565.873046875 482.810546875 565.025390625 479.8359375 563.544921875 477.272460938 c 0
 560.528320312 472.048828125 554.873046875 468.559570312 548.412109375 468.559570312 c 0
 545.2421875 468.559570312 542.267578125 469.40625 539.705078125 470.885742188 c 2
 510.455078125 487.772460938 l 1
 510.455078125 454 l 2
 510.455078125 444.366210938 502.6328125 436.544921875 493 436.544921875 c 0
 483.3671875 436.544921875 475.544921875 444.366210938 475.544921875 454 c 2
 475.544921875 487.772460938 l 1
 446.294921875 470.885742188 l 2
 443.732421875 469.40625 440.75 468.529296875 437.580078125 468.529296875 c 0
 431.118164062 468.529296875 425.471679688 472.048828125 422.455078125 477.272460938 c 0
 420.974609375 479.8359375 420.098632812 482.817382812 420.098632812 485.98828125 c 0
 420.098632812 492.44921875 423.6171875 498.095703125 428.840820312 501.114257812 c 2
 458.090820312 518 l 1
 428.840820312 534.885742188 l 2
 423.6171875 537.904296875 420.126953125 543.557617188 420.126953125 550.01953125 c 0
 420.126953125 553.189453125 420.974609375 556.1640625 422.455078125 558.7265625 c 0
 425.401367188 563.8359375 430.857421875 567.296875 437.135742188 567.455078125 c 0
 437.278320312 567.458007812 437.431640625 567.448242188 437.573242188 567.448242188 c 0
 440.75 567.448242188 443.728515625 566.598632812 446.294921875 565.114257812 c 2
 475.544921875 548.2265625 l 1
 475.544921875 582 l 2
 475.544921875 591.6328125 483.3671875 592.455078125 493 592.455078125 c 0
320.71875 405.918945312 m 1
 493 405.918945312 l 1
 665.28125 405.918945312 l 1
 493 0.5751953125 l 1
 320.71875 405.918945312 l 1
393.28125 357.918945312 m 1
 413.6875 309.918945312 l 1
 572.3125 309.918945312 l 1
 592.71875 357.918945312 l 1
 493 357.918945312 l 1
 393.28125 357.918945312 l 1
434.09375 261.918945312 m 1
 493 123.293945312 l 1
 551.90625 261.918945312 l 1
 434.09375 261.918945312 l 1
EndSplineSet
Validated: 524289
Comment: "Moderate or heavy snow shower(s)"
EndChar

StartChar: uF013F
Encoding: 983359 983359 92
Width: 1000
Flags: HW
LayerCount: 2
Fore
SplineSet
487 699.115234375 m 1
 643.321289062 428.163085938 l 1
 377.909179688 428.163085938 l 1
 330.678710938 428.163085938 l 1
 487 699.115234375 l 1
487 589.953125 m 1
 425.139648438 482.708984375 l 1
 548.860351562 482.708984375 l 1
 487 589.953125 l 1
324.116210938 383.234375 m 1
 487 383.234375 l 1
 649.883789062 383.234375 l 1
 487 0 l 1
 324.116210938 383.234375 l 1
392.720703125 337.852539062 m 1
 487 116.025390625 l 1
 581.279296875 337.852539062 l 1
 487 337.852539062 l 1
 392.720703125 337.852539062 l 1
EndSplineSet
Validated: 524289
Comment: "Slight shower(s) of soft or small hail with or without rain, or rain and snow mixed"
EndChar

